<?xml version="1.0" encoding="UTF-8" standalone="no"?>
<!DOCTYPE svg PUBLIC "-//W3C//DTD SVG 1.1//EN" "http://www.w3.org/Graphics/SVG/1.1/DTD/svg11.dtd">
<svg width="100%" height="100%" viewBox="0 0 3300 2200" version="1.1" xmlns="http://www.w3.org/2000/svg" xmlns:xlink="http://www.w3.org/1999/xlink" xml:space="preserve" xmlns:serif="http://www.serif.com/" style="fill-rule:evenodd;clip-rule:evenodd;">
    <g id="Notes">
        <rect id="artboard" x="0" y="0" width="3300" height="2200" style="fill:white;"/>
        <path d="M263,292L3036,292" style="fill:none;fill-rule:nonzero;stroke:black;stroke-width:0.5px;"/>
        <g transform="matrix(1,0,0,1,263,322)">
            <text x="0px" y="0px" style="font-family:'SFProDisplay-Bold', 'SF Pro Display';font-weight:700;font-size:16px;">W<tspan x="14.508px " y="0px ">e</tspan>ight/Scale V<tspan x="111.125px " y="0px ">a</tspan>riations</text>
        </g>
        <g transform="matrix(1,0,0,1,559.711,322)">
            <text x="-30.398px" y="0px" style="font-family:'SFProDisplay-Regular', 'SF Pro Display';font-size:16px;">Ultr<tspan x="-6.398px " y="0px ">a</tspan>light</text>
        </g>
        <g transform="matrix(1,0,0,1,856.422,322)">
            <text x="-14.809px" y="0px" style="font-family:'SFProDisplay-Regular', 'SF Pro Display';font-size:16px;">Thin</text>
        </g>
        <g transform="matrix(1,0,0,1,1153.13,322)">
            <text x="-16.945px" y="0px" style="font-family:'SFProDisplay-Regular', 'SF Pro Display';font-size:16px;">Light</text>
        </g>
        <g transform="matrix(1,0,0,1,1449.84,322)">
            <text x="-25.613px" y="0px" style="font-family:'SFProDisplay-Regular', 'SF Pro Display';font-size:16px;">Regular</text>
        </g>
        <g transform="matrix(1,0,0,1,1746.56,322)">
            <text x="-27.449px" y="0px" style="font-family:'SFProDisplay-Regular', 'SF Pro Display';font-size:16px;">Medium</text>
        </g>
        <g transform="matrix(1,0,0,1,2043.27,322)">
            <text x="-31.645px" y="0px" style="font-family:'SFProDisplay-Regular', 'SF Pro Display';font-size:16px;">Semibold</text>
        </g>
        <g transform="matrix(1,0,0,1,2339.98,322)">
            <text x="-15.145px" y="0px" style="font-family:'SFProDisplay-Regular', 'SF Pro Display';font-size:16px;">Bold</text>
        </g>
        <g transform="matrix(1,0,0,1,2636.69,322)">
            <text x="-21.461px" y="0px" style="font-family:'SFProDisplay-Regular', 'SF Pro Display';font-size:16px;">Heavy</text>
        </g>
        <g transform="matrix(1,0,0,1,2933.4,322)">
            <text x="-18.375px" y="0px" style="font-family:'SFProDisplay-Regular', 'SF Pro Display';font-size:16px;">Black</text>
        </g>
        <path d="M263,1903L3036,1903" style="fill:none;fill-rule:nonzero;stroke:black;stroke-width:0.5px;"/>
        <g transform="matrix(1,0,0,1,263,1933)">
            <path d="M9.248,0.83C13.555,0.83 17.139,-2.744 17.139,-7.051C17.139,-11.357 13.545,-14.932 9.238,-14.932C4.941,-14.932 1.367,-11.357 1.367,-7.051C1.367,-2.744 4.951,0.83 9.248,0.83ZM9.248,-0.654C5.703,-0.654 2.871,-3.496 2.871,-7.051C2.871,-10.605 5.693,-13.447 9.238,-13.447C12.793,-13.447 15.635,-10.605 15.645,-7.051C15.654,-3.496 12.803,-0.654 9.248,-0.654ZM9.229,-3.428C9.697,-3.428 9.971,-3.74 9.971,-4.258L9.971,-6.318L12.197,-6.318C12.695,-6.318 13.037,-6.572 13.037,-7.041C13.037,-7.52 12.715,-7.783 12.197,-7.783L9.971,-7.783L9.971,-10.01C9.971,-10.527 9.697,-10.85 9.229,-10.85C8.76,-10.85 8.506,-10.508 8.506,-10.01L8.506,-7.783L6.299,-7.783C5.781,-7.783 5.449,-7.52 5.449,-7.041C5.449,-6.572 5.801,-6.318 6.299,-6.318L8.506,-6.318L8.506,-4.258C8.506,-3.76 8.76,-3.428 9.229,-3.428Z" style="fill-rule:nonzero;"/>
        </g>
        <g transform="matrix(1,0,0,1,281.506,1933)">
            <path d="M11.709,2.91C17.158,2.91 21.67,-1.602 21.67,-7.051C21.67,-12.49 17.148,-17.012 11.699,-17.012C6.26,-17.012 1.748,-12.49 1.748,-7.051C1.748,-1.602 6.27,2.91 11.709,2.91ZM11.709,1.25C7.1,1.25 3.418,-2.441 3.418,-7.051C3.418,-11.65 7.09,-15.352 11.699,-15.352C16.309,-15.352 20,-11.65 20.01,-7.051C20.02,-2.441 16.318,1.25 11.709,1.25ZM11.69,-2.412C12.207,-2.412 12.52,-2.773 12.52,-3.34L12.52,-6.23L15.576,-6.23C16.123,-6.23 16.504,-6.514 16.504,-7.031C16.504,-7.559 16.143,-7.861 15.576,-7.861L12.52,-7.861L12.52,-10.928C12.52,-11.504 12.207,-11.855 11.69,-11.855C11.172,-11.855 10.879,-11.484 10.879,-10.928L10.879,-7.861L7.832,-7.861C7.266,-7.861 6.895,-7.559 6.895,-7.031C6.895,-6.514 7.285,-6.23 7.832,-6.23L10.879,-6.23L10.879,-3.34C10.879,-2.793 11.172,-2.412 11.69,-2.412Z" style="fill-rule:nonzero;"/>
        </g>
        <g transform="matrix(1,0,0,1,304.924,1933)">
            <path d="M14.971,5.674C21.934,5.674 27.695,-0.078 27.695,-7.041C27.695,-14.004 21.924,-19.756 14.961,-19.756C8.008,-19.756 2.256,-14.004 2.256,-7.041C2.256,-0.078 8.018,5.674 14.971,5.674ZM14.971,3.857C8.936,3.857 4.082,-1.006 4.082,-7.041C4.082,-13.076 8.926,-17.94 14.961,-17.94C21.006,-17.94 25.859,-13.076 25.869,-7.041C25.879,-1.006 21.016,3.857 14.971,3.857ZM14.951,-1.064C15.518,-1.064 15.869,-1.455 15.869,-2.061L15.869,-6.133L20.107,-6.133C20.693,-6.133 21.113,-6.465 21.113,-7.021C21.113,-7.598 20.723,-7.939 20.107,-7.939L15.869,-7.939L15.869,-12.188C15.869,-12.803 15.518,-13.193 14.951,-13.193C14.385,-13.193 14.063,-12.783 14.063,-12.188L14.063,-7.939L9.834,-7.939C9.219,-7.939 8.809,-7.598 8.809,-7.021C8.809,-6.465 9.238,-6.133 9.834,-6.133L14.063,-6.133L14.063,-2.061C14.063,-1.475 14.385,-1.064 14.951,-1.064Z" style="fill-rule:nonzero;"/>
        </g>
        <g transform="matrix(1,0,0,1,263,1953)">
            <text x="0px" y="0px" style="font-family:'SFProDisplay-Bold', 'SF Pro Display';font-weight:700;font-size:16px;">Design V<tspan x="63.789px " y="0px ">a</tspan>riations</text>
        </g>
        <g transform="matrix(1,0,0,1,263,1971)">
            <text x="0px" y="0px" style="font-family:'SFProDisplay-Regular', 'SF Pro Display';font-size:16px;">Symbols ar<tspan x="74.047px " y="0px ">e</tspan> suppor<tspan x="132.711px 137.297px " y="0px 0px ">te</tspan>d in up t<tspan x="197.695px " y="0px ">o</tspan> nine weights and thr<tspan x="343.523px " y="0px ">e</tspan>e scales.</text>
        </g>
        <g transform="matrix(1,0,0,1,263,1989)">
            <text x="0px" y="0px" style="font-family:'SFProDisplay-Regular', 'SF Pro Display';font-size:16px;">F<tspan x="8.133px " y="0px ">o</tspan>r optimal lay<tspan x="96.477px " y="0px ">o</tspan>ut with t<tspan x="157.523px 165.563px " y="0px 0px ">ex</tspan>t and other symbols,<tspan x="307.547px 310.828px 318.32px 326.516px 331.758px " y="0px 0px 0px 0px 0px "> vert</tspan>ically align</text>
        </g>
        <g transform="matrix(1,0,0,1,263,2007)">
            <text x="0px" y="0px" style="font-family:'SFProDisplay-Regular', 'SF Pro Display';font-size:16px;">symbols with the adjacent t<tspan x="181.305px 189.344px " y="0px 0px ">ex</tspan>t.</text>
        </g>
        <rect x="776" y="1919" width="3" height="14" style="fill:rgb(0,174,239);fill-opacity:0.4;"/>
        <g transform="matrix(1,0,0,1,779,1933)">
            <path d="M10.527,0L12.373,0L7.178,-14.092L5.439,-14.092L0.244,0L2.09,0L3.506,-4.033L9.111,-4.033L10.527,0ZM6.279,-11.953L6.338,-11.953L8.594,-5.527L4.023,-5.527L6.279,-11.953Z" style="fill-rule:nonzero;"/>
        </g>
        <rect x="791.617" y="1919" width="3" height="14" style="fill:rgb(0,174,239);fill-opacity:0.4;"/>
        <g transform="matrix(1,0,0,1,776,1953)">
            <text x="0px" y="0px" style="font-family:'SFProDisplay-Bold', 'SF Pro Display';font-weight:700;font-size:16px;">M<tspan x="13.641px 22.398px 27.945px " y="0px 0px 0px ">arg</tspan>ins</text>
        </g>
        <g transform="matrix(1,0,0,1,776,1971)">
            <text x="0px" y="0px" style="font-family:'SFProDisplay-Regular', 'SF Pro Display';font-size:16px;">L<tspan x="8.156px " y="0px ">e</tspan>ading and tr<tspan x="95.203px " y="0px ">a</tspan>iling mar<tspan x="158.953px " y="0px ">g</tspan>ins on the left and right side of each symbol</text>
        </g>
        <g transform="matrix(1,0,0,1,776,1989)">
            <text x="0px" y="0px" style="font-family:'SFProDisplay-Regular', 'SF Pro Display';font-size:16px;">can be adjust<tspan x="88.719px " y="0px ">e</tspan>d b<tspan x="117.688px " y="0px ">y</tspan> modifying the width of the blue r<tspan x="341.977px " y="0px ">e</tspan>ct<tspan x="362.852px " y="0px ">a</tspan>ngles.</text>
        </g>
        <g transform="matrix(1,0,0,1,776,2007)">
            <text x="0px" y="0px" style="font-family:'SFProDisplay-Regular', 'SF Pro Display';font-size:16px;">Modifications ar<tspan x="106.391px " y="0px ">e</tspan> aut<tspan x="138.914px " y="0px ">o</tspan>matically applied pr<tspan x="275.82px " y="0px ">o</tspan>por<tspan x="306.836px " y="0px ">t</tspan>ionally t<tspan x="362.055px " y="0px ">o</tspan> all</text>
        </g>
        <g transform="matrix(1,0,0,1,776,2025)">
            <text x="0px" y="0px" style="font-family:'SFProDisplay-Regular', 'SF Pro Display';font-size:16px;">scales and weights.</text>
        </g>
        <g transform="matrix(1,0,0,1,1289,1933)">
            <path d="M2.832,3.115L4.375,4.658C5.225,5.488 6.191,5.42 7.061,4.463L17.275,-6.66C17.705,-6.367 18.096,-6.377 18.565,-6.475L19.609,-6.689L20.303,-5.996L20.254,-5.479C20.186,-4.951 20.352,-4.531 20.85,-4.033L21.66,-3.223C22.168,-2.715 22.822,-2.686 23.301,-3.164L26.553,-6.416C27.031,-6.895 27.012,-7.549 26.504,-8.057L25.684,-8.877C25.186,-9.375 24.775,-9.551 24.238,-9.473L23.711,-9.414L23.057,-10.078L23.34,-11.221C23.486,-11.787 23.34,-12.256 22.715,-12.861L20.303,-15.254C16.758,-18.779 12.227,-18.672 9.111,-15.537C8.691,-15.107 8.643,-14.522 8.916,-14.092C9.15,-13.721 9.629,-13.496 10.273,-13.662C11.787,-14.043 13.301,-13.926 14.785,-12.92L14.16,-11.338C13.926,-10.752 13.945,-10.273 14.18,-9.834L3.018,0.439C2.08,1.309 1.973,2.256 2.832,3.115ZM10.674,-15.147C13.34,-17.139 16.65,-16.826 19.053,-14.414L21.68,-11.807C21.914,-11.572 21.943,-11.387 21.885,-11.094L21.504,-9.531L23.076,-7.959L24.043,-8.047C24.326,-8.076 24.414,-8.057 24.639,-7.832L25.264,-7.207L22.51,-4.463L21.885,-5.078C21.66,-5.303 21.641,-5.4 21.67,-5.684L21.758,-6.641L20.195,-8.203L18.574,-7.891C18.291,-7.832 18.145,-7.832 17.91,-8.076L15.732,-10.254C15.508,-10.488 15.479,-10.625 15.605,-10.947L16.553,-13.223C14.951,-14.756 12.842,-15.605 10.801,-14.951C10.713,-14.922 10.645,-14.941 10.615,-14.98C10.586,-15.029 10.586,-15.078 10.674,-15.147ZM4.102,2.412C3.613,1.914 3.789,1.611 4.121,1.309L15.078,-8.809L16.309,-7.578L6.152,3.35C5.85,3.682 5.469,3.779 5.068,3.379L4.102,2.412Z" style="fill-rule:nonzero;"/>
        </g>
        <g transform="matrix(1,0,0,1,1289,1953)">
            <text x="0px" y="0px" style="font-family:'SFProDisplay-Bold', 'SF Pro Display';font-weight:700;font-size:16px;">Expor<tspan x="42.367px " y="0px ">t</tspan>ing</text>
        </g>
        <g transform="matrix(1,0,0,1,1289,1971)">
            <text x="0px" y="0px" style="font-family:'SFProDisplay-Regular', 'SF Pro Display';font-size:16px;">Symbols should be outlined when e<tspan x="235.273px " y="0px ">x</tspan>por<tspan x="265.305px " y="0px ">t</tspan>ing t<tspan x="298.477px " y="0px ">o</tspan> ensur<tspan x="347.289px " y="0px ">e</tspan> the</text>
        </g>
        <g transform="matrix(1,0,0,1,1289,1989)">
            <text x="0px" y="0px" style="font-family:'SFProDisplay-Regular', 'SF Pro Display';font-size:16px;">design is pr<tspan x="75.586px " y="0px ">e</tspan>serv<tspan x="111.844px " y="0px ">e</tspan>d when submitting t<tspan x="251.008px " y="0px ">o</tspan> X<tspan x="272.391px " y="0px ">c</tspan>ode.</text>
        </g>
        <g id="template-version" transform="matrix(1,0,0,1,3036,1933)">
            <text x="-94.531px" y="0px" style="font-family:'SFProDisplay-Regular', 'SF Pro Display';font-size:16px;">T<tspan x="-87.344px " y="0px ">e</tspan>mplat<tspan x="-41.625px " y="0px ">e</tspan> v<tspan x="-23.594px -20.469px -13.766px " y="0px 0px 0px ">.1.</tspan>0</text>
        </g>
        <g transform="matrix(1,0,0,1,3036,1951)">
            <text x="-169.555px" y="0px" style="font-family:'SFProDisplay-Regular', 'SF Pro Display';font-size:16px;">Gener<tspan x="-128.656px -120.625px -116.039px " y="0px 0px 0px ">ate</tspan>d fr<tspan x="-86.305px " y="0px ">o</tspan>m paper<tspan x="-23.336px " y="0px ">c</tspan>lip</text>
        </g>
        <g transform="matrix(1,0,0,1,3036,1969)">
            <text x="-143.086px" y="0px" style="font-family:'SFProDisplay-Regular', 'SF Pro Display';font-size:16px;">T<tspan x="-135.664px " y="0px ">y</tspan>peset at 100 points</text>
        </g>
        <g transform="matrix(1,0,0,1,263,726)">
            <text x="0px" y="0px" style="font-family:'SFProDisplay-Regular', 'SF Pro Display';font-size:16px;">Small</text>
        </g>
        <g transform="matrix(1,0,0,1,263,1156)">
            <text x="0px" y="0px" style="font-family:'SFProDisplay-Regular', 'SF Pro Display';font-size:16px;">Medium</text>
        </g>
        <g transform="matrix(1,0,0,1,263,1586)">
            <text x="0px" y="0px" style="font-family:'SFProDisplay-Regular', 'SF Pro Display';font-size:16px;">Lar<tspan x="20.961px " y="0px ">g</tspan>e</text>
        </g>
    </g>
    <g id="Guides">
        <g id="H-reference" transform="matrix(1,0,0,1,339,696)">
            <path d="M54.932,0L57.666,0L30.566,-70.459L28.076,-70.459L0.977,0L3.662,0L12.94,-24.463L45.703,-24.463L54.932,0ZM29.199,-67.09L29.443,-67.09L44.824,-26.709L13.818,-26.709L29.199,-67.09Z" style="fill:rgb(39,170,225);fill-rule:nonzero;"/>
        </g>
        <path id="Baseline-S" d="M263,696L3036,696" style="fill:none;fill-rule:nonzero;stroke:rgb(39,170,225);stroke-width:0.58px;"/>
        <path id="Capline-S" d="M263,625.541L3036,625.541" style="fill:none;fill-rule:nonzero;stroke:rgb(39,170,225);stroke-width:0.58px;"/>
        <g id="H-reference1" serif:id="H-reference" transform="matrix(1,0,0,1,339,1126)">
            <path d="M54.932,0L57.666,0L30.566,-70.459L28.076,-70.459L0.977,0L3.662,0L12.94,-24.463L45.703,-24.463L54.932,0ZM29.199,-67.09L29.443,-67.09L44.824,-26.709L13.818,-26.709L29.199,-67.09Z" style="fill:rgb(39,170,225);fill-rule:nonzero;"/>
        </g>
        <path id="Baseline-M" d="M263,1126L3036,1126" style="fill:none;fill-rule:nonzero;stroke:rgb(39,170,225);stroke-width:0.58px;"/>
        <path id="Capline-M" d="M263,1055.54L3036,1055.54" style="fill:none;fill-rule:nonzero;stroke:rgb(39,170,225);stroke-width:0.58px;"/>
        <g id="H-reference2" serif:id="H-reference" transform="matrix(1,0,0,1,339,1556)">
            <path d="M54.932,0L57.666,0L30.566,-70.459L28.076,-70.459L0.977,0L3.662,0L12.94,-24.463L45.703,-24.463L54.932,0ZM29.199,-67.09L29.443,-67.09L44.824,-26.709L13.818,-26.709L29.199,-67.09Z" style="fill:rgb(39,170,225);fill-rule:nonzero;"/>
        </g>
        <path id="Baseline-L" d="M263,1556L3036,1556" style="fill:none;fill-rule:nonzero;stroke:rgb(39,170,225);stroke-width:0.58px;"/>
        <path id="Capline-L" d="M263,1485.54L3036,1485.54" style="fill:none;fill-rule:nonzero;stroke:rgb(39,170,225);stroke-width:0.58px;"/>
        <rect id="left-margin" x="1392.08" y="1030.79" width="11.241" height="119.336" style="fill:rgb(0,174,239);fill-opacity:0.4;"/>
        <rect id="right-margin" x="1496.39" y="1030.79" width="11.217" height="119.336" style="fill:rgb(0,174,239);fill-opacity:0.4;"/>
    </g>
    <g id="Symbols">
        <g id="Black-L" transform="matrix(1,0,0,1,2853.35,1556)">
            <path d="M121.191,-33.106L74.268,13.77C63.135,25 48.193,24.17 38.574,14.453C28.857,4.834 28.076,-10.01 39.307,-21.24L104.346,-86.279C110.205,-92.139 119.482,-94.287 125.781,-87.988C132.178,-81.543 129.932,-72.363 124.072,-66.504L59.473,-1.807C57.764,-0.049 55.811,-0.586 54.688,-1.66C53.662,-2.734 53.174,-4.688 54.883,-6.396L99.561,-51.074C102.832,-54.395 102.881,-59.228 99.756,-62.402C96.582,-65.478 91.65,-65.43 88.428,-62.207L43.506,-17.285C35.596,-9.375 35.986,2.93 43.066,10.01C50.781,17.725 62.402,17.481 70.313,9.57L135.352,-55.469C148.877,-68.994 148.828,-86.963 136.572,-99.268C124.512,-111.182 106.25,-111.572 92.725,-98.144L27.148,-32.422C9.912,-15.137 10.693,10.205 26.758,26.27C42.871,42.334 68.213,43.164 85.498,25.928L132.812,-21.387C135.938,-24.414 135.889,-30.225 132.617,-33.252C129.639,-36.475 124.414,-36.231 121.191,-33.106Z" style="fill-rule:nonzero;"/>
        </g>
        <g id="Heavy-L" transform="matrix(1,0,0,1,2558.17,1556)">
            <path d="M120.166,-32.715L73.242,14.16C61.865,25.635 46.631,24.658 36.816,14.795C26.904,4.98 26.025,-10.205 37.451,-21.68L102.051,-86.231C108.301,-92.529 117.969,-94.238 124.414,-87.842C130.859,-81.299 129.102,-71.729 122.803,-65.478L58.887,-1.416C56.787,0.684 54.346,0.098 52.881,-1.27C51.563,-2.686 50.977,-5.127 53.076,-7.275L97.51,-51.709C100.439,-54.639 100.488,-58.887 97.705,-61.67C94.922,-64.404 90.625,-64.356 87.744,-61.523L43.066,-16.846C35.547,-9.277 35.938,2.295 42.627,8.984C49.902,16.26 60.889,16.113 68.408,8.594L132.764,-55.762C145.801,-68.799 145.508,-86.084 133.887,-97.754C122.412,-109.131 104.883,-109.717 91.797,-96.68L26.758,-31.494C9.961,-14.697 10.889,9.766 26.367,25.195C41.895,40.625 66.309,41.65 83.154,24.902L130.42,-22.412C133.203,-25.098 133.154,-30.176 130.273,-32.861C127.637,-35.693 123.047,-35.498 120.166,-32.715Z" style="fill-rule:nonzero;"/>
        </g>
        <g id="Bold-L" transform="matrix(1,0,0,1,2263.17,1556)">
            <path d="M119.092,-32.275L72.168,14.648C60.498,26.318 44.873,25.244 34.863,15.137C24.756,5.127 23.682,-10.449 35.352,-22.168L99.463,-86.231C106.201,-92.969 116.26,-94.19 122.803,-87.647C129.395,-81.006 128.125,-71.045 121.387,-64.307L58.252,-1.025C55.713,1.514 52.686,0.83 50.879,-0.879C49.17,-2.686 48.535,-5.664 51.025,-8.203L95.264,-52.441C97.754,-54.883 97.803,-58.545 95.459,-60.889C93.066,-63.184 89.453,-63.135 86.963,-60.693L42.578,-16.309C35.498,-9.18 35.84,1.611 42.139,7.861C48.926,14.648 59.18,14.551 66.309,7.422L129.785,-56.055C142.334,-68.604 141.748,-85.107 130.859,-96.094C120.068,-106.787 103.32,-107.617 90.772,-95.068L26.318,-30.518C10.01,-14.209 11.182,9.229 25.977,24.023C40.82,38.77 64.209,39.99 80.566,23.682L127.783,-23.535C130.176,-25.83 130.127,-30.176 127.686,-32.422C125.439,-34.863 121.533,-34.619 119.092,-32.275Z" style="fill-rule:nonzero;"/>
        </g>
        <g id="Semibold-L" transform="matrix(1,0,0,1,1967.66,1556)">
            <path d="M118.311,-31.934L71.387,14.99C59.57,26.856 43.652,25.635 33.496,15.381C23.242,5.225 22.07,-10.596 33.936,-22.51L97.656,-86.231C104.736,-93.311 115.088,-94.141 121.729,-87.5C128.369,-80.859 127.49,-70.557 120.41,-63.477L57.813,-0.732C54.932,2.1 51.563,1.367 49.512,-0.635C47.559,-2.637 46.826,-6.006 49.658,-8.887L93.701,-52.881C95.898,-55.078 95.947,-58.252 93.897,-60.352C91.797,-62.353 88.623,-62.305 86.426,-60.156L42.236,-15.967C35.498,-9.131 35.84,1.123 41.797,7.08C48.242,13.525 58.008,13.477 64.844,6.641L127.783,-56.299C139.941,-68.457 139.209,-84.424 128.76,-94.922C118.457,-105.176 102.295,-106.152 90.088,-93.994L26.025,-29.834C10.059,-13.867 11.377,8.838 25.684,23.193C40.039,37.5 62.793,38.818 78.76,22.9L125.928,-24.316C128.027,-26.367 128.027,-30.127 125.879,-32.129C123.877,-34.277 120.459,-34.033 118.311,-31.934Z" style="fill-rule:nonzero;"/>
        </g>
        <g id="Medium-L" transform="matrix(1,0,0,1,1671.82,1556)">
            <path d="M117.725,-31.738L70.801,15.234C58.838,27.197 42.725,25.928 32.471,15.576C22.119,5.322 20.85,-10.693 32.861,-22.754L96.338,-86.182C103.662,-93.555 114.209,-94.092 120.898,-87.402C127.588,-80.713 127.002,-70.166 119.678,-62.842L57.471,-0.537C54.395,2.539 50.684,1.758 48.438,-0.391C46.338,-2.637 45.557,-6.25 48.633,-9.375L92.529,-53.272C94.482,-55.225 94.531,-58.057 92.676,-59.912C90.869,-61.719 88.037,-61.67 86.035,-59.717L41.992,-15.674C35.449,-9.082 35.791,0.732 41.553,6.494C47.705,12.647 57.129,12.647 63.721,6.055L126.221,-56.445C138.135,-68.359 137.256,-83.936 127.148,-94.043C117.236,-103.955 101.465,-105.078 89.551,-93.115L25.781,-29.346C10.059,-13.623 11.475,8.594 25.488,22.559C39.502,36.523 61.67,37.988 77.393,22.266L124.561,-24.902C126.465,-26.758 126.416,-30.078 124.512,-31.885C122.705,-33.789 119.678,-33.594 117.725,-31.738Z" style="fill-rule:nonzero;"/>
        </g>
        <g id="Regular-L" transform="matrix(1,0,0,1,1376.28,1556)">
            <path d="M116.992,-31.397L70.019,15.527C57.861,27.686 41.553,26.318 31.104,15.82C20.654,5.42 19.238,-10.889 31.445,-23.047L94.58,-86.182C102.197,-93.848 113.086,-94.043 119.824,-87.305C126.611,-80.518 126.367,-69.727 118.701,-62.06L57.031,-0.293C53.613,3.125 49.561,2.246 47.07,-0.146C44.727,-2.588 43.897,-6.641 47.217,-10.059L90.967,-53.76C92.627,-55.42 92.676,-57.813 91.162,-59.375C89.6,-60.889 87.207,-60.889 85.498,-59.18L41.699,-15.332C35.4,-9.033 35.742,0.244 41.211,5.762C47.022,11.572 55.957,11.572 62.256,5.273L124.219,-56.69C135.791,-68.262 134.717,-83.252 125.098,-92.871C115.625,-102.344 100.439,-103.662 88.818,-92.041L25.488,-28.662C10.107,-13.281 11.67,8.203 25.195,21.729C38.77,35.254 60.254,36.816 75.635,21.484L122.754,-25.635C124.365,-27.246 124.365,-30.078 122.754,-31.592C121.191,-33.203 118.604,-33.008 116.992,-31.397Z" style="fill-rule:nonzero;"/>
        </g>
        <g id="Light-L" transform="matrix(1,0,0,1,1080.94,1556)">
            <path d="M116.65,-31.397L68.848,16.406C56.592,28.662 39.99,27.051 29.443,16.504C18.848,5.908 17.285,-10.596 29.541,-22.949L92.676,-85.986C100.879,-94.238 111.963,-93.408 118.555,-86.816C125.146,-80.273 125.928,-69.19 117.725,-60.938L56.006,0.83C52.295,4.541 47.754,3.76 44.922,1.025C42.139,-1.807 41.455,-6.348 45.117,-10.059L89.648,-54.59C91.065,-55.957 91.016,-57.813 89.795,-59.033C88.623,-60.156 86.816,-60.254 85.4,-58.838L40.772,-14.209C34.717,-8.105 35.205,0.439 40.332,5.566C45.703,10.938 54.053,11.23 60.107,5.176L122.021,-56.738C133.301,-68.018 131.445,-82.422 122.656,-91.211C113.965,-99.902 99.512,-101.855 88.184,-90.527L25.098,-27.393C9.961,-12.256 12.06,8.203 24.902,21.045C37.744,33.838 58.203,35.938 73.34,20.801L121.094,-26.953C122.461,-28.272 122.412,-30.42 121.191,-31.592C120.02,-32.813 117.969,-32.715 116.65,-31.397Z" style="fill-rule:nonzero;"/>
        </g>
        <g id="Thin-L" transform="matrix(1,0,0,1,786.036,1556)">
            <path d="M116.26,-31.397L67.334,17.529C54.834,29.932 37.94,28.076 27.197,17.334C16.504,6.592 14.6,-10.254 27.051,-22.754L90.088,-85.742C99.072,-94.775 110.498,-92.529 116.846,-86.182C123.145,-79.932 125.391,-68.506 116.406,-59.473L54.639,2.295C50.488,6.396 45.361,5.762 42.041,2.539C38.77,-0.781 38.184,-5.957 42.236,-10.107L87.94,-55.713C88.965,-56.69 88.769,-57.861 88.037,-58.545C87.354,-59.228 86.279,-59.473 85.205,-58.398L39.551,-12.744C33.789,-6.934 34.473,0.684 39.16,5.371C43.897,10.156 51.514,10.791 57.275,4.98L119.092,-56.787C129.98,-67.676 127.148,-81.25 119.482,-88.965C111.816,-96.631 98.291,-99.414 87.354,-88.477L24.609,-25.732C9.717,-10.84 12.598,8.154 24.463,20.068C36.377,31.982 55.518,34.766 70.313,19.971L118.945,-28.711C119.873,-29.59 119.775,-30.908 119.092,-31.592C118.408,-32.275 117.139,-32.324 116.26,-31.397Z" style="fill-rule:nonzero;"/>
        </g>
        <g id="Ultralight-L" transform="matrix(1,0,0,1,490.253,1556)">
            <path d="M116.016,-31.397L66.553,18.066C53.955,30.566 36.914,28.613 26.074,17.773C15.283,6.982 13.281,-10.107 25.781,-22.705L88.818,-85.644C98.144,-95.068 109.766,-92.09 115.967,-85.84C122.168,-79.736 125.098,-68.164 115.723,-58.691L53.955,3.027C49.609,7.324 44.141,6.787 40.576,3.32C37.061,-0.293 36.523,-5.762 40.82,-10.107L87.061,-56.299C87.891,-57.08 87.598,-57.861 87.158,-58.301C86.719,-58.74 85.986,-59.033 85.156,-58.154L38.965,-12.012C33.301,-6.348 34.082,0.83 38.574,5.273C43.018,9.717 50.195,10.547 55.859,4.883L117.578,-56.836C128.271,-67.529 124.951,-80.664 117.822,-87.793C110.693,-94.922 97.656,-98.193 86.914,-87.451L24.316,-24.902C9.619,-10.156 12.842,8.154 24.268,19.58C35.693,31.006 54.102,34.18 68.75,19.531L117.871,-29.59C118.555,-30.273 118.457,-31.104 118.018,-31.592C117.578,-31.982 116.748,-32.129 116.016,-31.397Z" style="fill-rule:nonzero;"/>
        </g>
        <g id="Black-M" transform="matrix(1,0,0,1,2870,1126)">
            <path d="M95.117,-34.131L58.301,2.637C49.951,11.084 38.672,10.547 31.397,3.174C24.072,-4.102 23.584,-15.283 32.031,-23.731L83.008,-74.707C87.256,-79.004 94.092,-80.713 98.731,-76.074C103.467,-71.289 101.66,-64.6 97.363,-60.303L46.387,-9.18C45.41,-8.252 44.336,-8.447 43.652,-9.082C43.115,-9.668 42.871,-10.742 43.848,-11.719L79.248,-47.119C82.129,-50.049 82.129,-54.297 79.394,-57.08C76.611,-59.766 72.266,-59.766 69.434,-56.934L33.838,-21.387C27.344,-14.844 27.686,-4.688 33.545,1.123C39.844,7.422 49.414,7.324 55.957,0.83L107.324,-50.586C118.262,-61.523 118.115,-76.025 108.252,-85.938C98.486,-95.606 83.74,-95.947 72.803,-85.107L21.387,-33.545C7.568,-19.678 8.203,0.635 21.094,13.525C34.033,26.367 54.346,27.051 68.213,13.232L105.322,-23.877C108.008,-26.514 107.959,-31.592 105.127,-34.228C102.539,-37.012 97.949,-36.914 95.117,-34.131Z" style="fill-rule:nonzero;"/>
        </g>
        <g id="Heavy-M" transform="matrix(1,0,0,1,2574.6,1126)">
            <path d="M94.092,-33.691L57.52,2.881C48.926,11.523 37.353,10.889 29.883,3.369C22.412,-4.053 21.777,-15.576 30.469,-24.268L80.957,-74.756C85.547,-79.346 92.725,-80.859 97.51,-76.025C102.393,-71.094 100.83,-64.063 96.24,-59.473L45.996,-9.082C44.678,-7.764 43.164,-8.154 42.236,-8.984C41.455,-9.863 41.113,-11.328 42.432,-12.647L77.344,-47.607C79.932,-50.147 79.932,-53.955 77.49,-56.397C75.049,-58.789 71.191,-58.74 68.701,-56.25L33.594,-21.143C27.441,-14.99 27.783,-5.42 33.252,0.049C39.209,6.006 48.242,5.908 54.443,-0.293L105.029,-50.879C115.527,-61.377 115.332,-75.293 105.908,-84.766C96.631,-93.945 82.471,-94.385 71.924,-83.936L21.045,-32.91C7.666,-19.482 8.35,0.098 20.752,12.5C33.203,24.902 52.783,25.684 66.26,12.256L103.125,-24.609C105.518,-26.953 105.469,-31.445 102.979,-33.789C100.684,-36.279 96.631,-36.133 94.092,-33.691Z" style="fill-rule:nonzero;"/>
        </g>
        <g id="Bold-M" transform="matrix(1,0,0,1,2279.38,1126)">
            <path d="M92.969,-33.203L56.641,3.125C47.754,12.06 35.889,11.279 28.223,3.564C20.508,-4.053 19.824,-15.869 28.711,-24.805L78.662,-74.756C83.594,-79.688 91.162,-80.957 96.191,-75.977C101.221,-70.898 99.902,-63.428 94.971,-58.496L45.557,-8.984C43.848,-7.275 41.895,-7.764 40.674,-8.887C39.6,-10.01 39.16,-12.012 40.82,-13.721L75.244,-48.096C77.393,-50.293 77.441,-53.516 75.391,-55.615C73.291,-57.617 70.019,-57.617 67.871,-55.469L33.301,-20.898C27.588,-15.137 27.881,-6.25 33.008,-1.123C38.525,4.395 46.924,4.297 52.686,-1.465L102.441,-51.172C112.451,-61.231 112.207,-74.463 103.271,-83.398C94.531,-92.139 81.055,-92.627 70.996,-82.617L20.703,-32.227C7.764,-19.238 8.496,-0.488 20.41,11.426C32.324,23.291 51.074,24.072 64.063,11.182L100.684,-25.44C102.734,-27.49 102.734,-31.299 100.586,-33.301C98.584,-35.449 95.117,-35.303 92.969,-33.203Z" style="fill-rule:nonzero;"/>
        </g>
        <g id="Semibold-M" transform="matrix(1,0,0,1,1983.7,1126)">
            <path d="M92.188,-32.861L56.006,3.32C46.973,12.402 34.863,11.572 27.1,3.711C19.238,-4.053 18.457,-16.113 27.539,-25.195L77.1,-74.805C82.275,-79.981 90.088,-81.055 95.215,-75.928C100.391,-70.752 99.268,-62.988 94.092,-57.813L45.264,-8.887C43.311,-6.934 40.967,-7.471 39.6,-8.789C38.33,-10.156 37.793,-12.451 39.746,-14.453L73.779,-48.486C75.684,-50.391 75.781,-53.223 73.926,-55.078C72.07,-56.885 69.238,-56.836 67.334,-54.932L33.154,-20.703C27.686,-15.234 27.93,-6.836 32.764,-1.953C38.037,3.32 46.045,3.174 51.514,-2.295L100.635,-51.416C110.352,-61.133 110.01,-73.926 101.465,-82.519C93.066,-90.869 80.078,-91.406 70.361,-81.69L20.41,-31.69C7.813,-19.092 8.643,-0.879 20.166,10.645C31.69,22.168 49.902,22.998 62.549,10.4L98.975,-26.025C100.83,-27.832 100.83,-31.201 98.926,-32.959C97.119,-34.912 94.092,-34.717 92.188,-32.861Z" style="fill-rule:nonzero;"/>
        </g>
        <g id="Medium-M" transform="matrix(0.393125,0,0,0.393125,1638.9,1007.96)">
            <path d="M355.52,77.352C381.183,77.811 406.782,104.688 398.412,128.595C395.01,138.312 388.359,146.704 381.127,154.362C381.127,154.362 220.103,317.642 220.103,317.642C220.103,317.642 219.972,318.419 216.791,319.834L145.113,348.21C137.981,350.632 130.321,343.597 132.452,336.151L157.753,261.866C158.198,260.73 158.218,260.196 160.019,258.201C160.019,258.201 321.97,94.369 321.97,94.369C324.328,91.628 325.444,90.641 327.392,88.945C334.897,82.407 344.262,77.652 354.476,77.358C354.998,77.351 354.997,77.351 355.52,77.352ZM354.881,96.614C347.803,96.817 341.41,101.439 336.761,106.707C336.761,106.707 336.303,107.253 336.303,107.253L175.271,270.168L157.403,322.63L207.816,302.673C260.938,248.809 314.764,195.628 367.182,141.078C373.007,134.911 379.82,127.988 380.767,120.134C381.93,110.493 367.259,96.45 354.881,96.614Z"/>
            <path d="M329.587,92.941C331.956,93.082 334.169,94.021 335.922,95.647L381.04,139.351C387.689,146.075 378.156,162.941 367.64,153.185L322.522,109.481C317.08,103.977 319.463,92.776 329.587,92.941Z"/>
            <path d="M167.974,255.523C170.405,255.655 172.178,256.188 174.394,258.263L220.446,303.292C227.114,310.102 217.247,326.67 206.982,317.062L160.93,272.033C155.434,266.419 158.426,255.422 167.974,255.523Z"/>
        </g>
        <g id="Regular-M" transform="matrix(1,0,0,1,1392.08,1126)">
            <path d="M90.82,-32.275L54.932,3.613C45.606,12.988 33.057,12.06 25.049,3.955C16.992,-4.053 16.064,-16.504 25.391,-25.879L74.365,-74.805C79.981,-80.42 88.232,-81.201 93.604,-75.879C98.926,-70.459 98.144,-62.256 92.578,-56.641L44.727,-8.789C42.334,-6.299 39.404,-7.031 37.744,-8.691C36.084,-10.4 35.4,-13.232 37.793,-15.723L71.24,-49.072C72.705,-50.586 72.803,-52.734 71.387,-54.15C69.971,-55.518 67.822,-55.42 66.357,-53.955L32.813,-20.41C27.832,-15.43 28.027,-7.813 32.422,-3.418C37.207,1.367 44.434,1.27 49.463,-3.76L97.51,-51.807C106.641,-60.938 106.25,-72.949 98.291,-80.908C90.527,-88.672 78.32,-89.258 69.19,-80.127L19.971,-30.859C7.91,-18.799 8.838,-1.563 19.727,9.326C30.615,20.166 47.852,21.094 59.912,9.082L96.045,-27.051C97.461,-28.467 97.461,-31.055 95.996,-32.373C94.58,-33.887 92.285,-33.691 90.82,-32.275Z" style="fill-rule:nonzero;"/>
        </g>
        <g id="Light-M" transform="matrix(1,0,0,1,1096.59,1126)">
            <path d="M90.527,-32.275L53.857,4.395C44.434,13.867 31.69,12.695 23.535,4.541C15.381,-3.564 14.258,-16.26 23.731,-25.781L72.656,-74.658C78.76,-80.811 87.256,-80.615 92.432,-75.44C97.607,-70.264 97.754,-61.768 91.65,-55.664L43.848,-7.764C41.113,-5.029 37.793,-5.664 35.742,-7.666C33.789,-9.668 33.203,-12.988 35.889,-15.723L70.068,-49.853C71.24,-51.074 71.24,-52.734 70.166,-53.809C69.092,-54.883 67.432,-54.883 66.211,-53.662L31.982,-19.434C27.197,-14.6 27.49,-7.666 31.641,-3.516C35.986,0.83 42.725,0.928 47.559,-3.857L95.557,-51.856C104.395,-60.742 103.32,-72.168 96.143,-79.346C89.063,-86.426 77.49,-87.647 68.604,-78.76L19.629,-29.736C7.764,-17.871 9.18,-1.563 19.434,8.691C29.688,18.897 45.996,20.313 57.813,8.496L94.58,-28.223C95.752,-29.395 95.703,-31.348 94.58,-32.373C93.506,-33.545 91.699,-33.398 90.527,-32.275Z" style="fill-rule:nonzero;"/>
        </g>
        <g id="Thin-M" transform="matrix(1,0,0,1,801.515,1126)">
            <path d="M90.137,-32.275L52.49,5.42C42.871,14.99 29.834,13.623 21.533,5.322C13.281,-2.93 11.865,-15.967 21.484,-25.586L70.361,-74.463C77.148,-81.299 85.938,-79.834 90.869,-74.854C95.85,-69.922 97.266,-61.182 90.479,-54.346L42.627,-6.445C39.502,-3.369 35.645,-3.906 33.154,-6.299C30.762,-8.789 30.273,-12.598 33.35,-15.723L68.506,-50.879C69.385,-51.709 69.238,-52.783 68.604,-53.418C67.969,-54.053 66.943,-54.15 66.065,-53.272L30.908,-18.115C26.367,-13.574 26.856,-7.422 30.566,-3.711C34.375,0.098 40.43,0.537 45.02,-4.004L92.92,-51.953C101.416,-60.449 99.463,-71.143 93.262,-77.344C87.109,-83.496 76.416,-85.498 67.822,-76.953L19.141,-28.223C7.568,-16.65 9.619,-1.611 19.043,7.813C28.467,17.236 43.555,19.287 55.127,7.715L92.627,-29.785C93.457,-30.566 93.359,-31.738 92.725,-32.373C92.09,-33.057 90.967,-33.057 90.137,-32.275Z" style="fill-rule:nonzero;"/>
        </g>
        <g id="Ultralight-M" transform="matrix(1,0,0,1,505.634,1126)">
            <path d="M89.99,-32.275L51.758,5.908C42.041,15.576 28.906,14.063 20.508,5.713C12.158,-2.637 10.645,-15.82 20.313,-25.537L69.19,-74.316C76.318,-81.543 85.254,-79.394 90.088,-74.561C94.971,-69.775 97.022,-60.84 89.893,-53.662L41.992,-5.811C38.672,-2.539 34.57,-2.979 31.836,-5.615C29.199,-8.301 28.76,-12.451 32.031,-15.772L67.725,-51.367C68.408,-52.051 68.213,-52.783 67.773,-53.174C67.383,-53.613 66.699,-53.809 65.967,-53.076L30.371,-17.432C25.928,-13.037 26.514,-7.324 30.029,-3.809C33.594,-0.244 39.258,0.293 43.701,-4.102L91.553,-51.953C99.902,-60.303 97.51,-70.606 91.797,-76.318C86.084,-81.982 75.83,-84.424 67.432,-76.025L18.897,-27.49C7.471,-16.016 9.863,-1.611 18.848,7.373C27.832,16.406 42.334,18.75 53.711,7.324L91.65,-30.566C92.236,-31.201 92.188,-31.982 91.797,-32.373C91.357,-32.813 90.576,-32.861 89.99,-32.275Z" style="fill-rule:nonzero;"/>
        </g>
        <g id="Black-S" transform="matrix(1,0,0,1,2883.82,696)">
            <path d="M74.463,-34.326L45.654,-5.566C39.063,1.074 30.225,0.635 24.512,-5.127C18.75,-10.84 18.359,-19.629 25,-26.27L64.893,-66.162C68.262,-69.531 73.633,-70.898 77.295,-67.236C81.006,-63.477 79.59,-58.203 76.221,-54.834L36.328,-14.844C35.547,-14.063 34.668,-14.258 34.131,-14.746C33.691,-15.234 33.496,-16.113 34.277,-16.895L61.963,-44.58C64.209,-46.826 64.209,-50.147 62.06,-52.295C59.912,-54.395 56.543,-54.395 54.346,-52.197L26.514,-24.365C21.436,-19.287 21.729,-11.377 26.27,-6.836C31.201,-1.904 38.672,-2.002 43.75,-7.08L83.936,-47.266C92.481,-55.811 92.383,-67.139 84.668,-74.902C77.051,-82.422 65.527,-82.715 56.982,-74.219L16.748,-33.887C5.957,-23.047 6.445,-7.178 16.504,2.881C26.611,12.94 42.481,13.477 53.32,2.686L82.373,-26.367C84.473,-28.418 84.424,-32.373 82.227,-34.424C80.225,-36.572 76.66,-36.475 74.463,-34.326Z" style="fill-rule:nonzero;"/>
        </g>
        <g id="Heavy-S" transform="matrix(1,0,0,1,2587.98,696)">
            <path d="M73.682,-33.984L45.117,-5.469C38.379,1.318 29.346,0.83 23.535,-5.029C17.627,-10.889 17.188,-19.873 23.975,-26.66L63.525,-66.211C67.041,-69.775 72.656,-71.045 76.465,-67.236C80.322,-63.33 79.004,-57.813 75.44,-54.297L36.133,-14.893C35.107,-13.867 33.936,-14.16 33.252,-14.795C32.666,-15.43 32.373,-16.602 33.398,-17.627L60.645,-44.873C62.647,-46.875 62.695,-49.853 60.742,-51.807C58.789,-53.711 55.762,-53.662 53.76,-51.709L26.416,-24.316C21.582,-19.482 21.826,-11.963 26.123,-7.617C30.859,-2.93 37.94,-3.076 42.773,-7.91L82.373,-47.51C90.625,-55.713 90.527,-66.65 83.106,-74.17C75.781,-81.397 64.648,-81.69 56.397,-73.486L16.504,-33.545C6.006,-22.998 6.494,-7.568 16.26,2.197C26.074,11.963 41.504,12.5 52.051,2.002L80.859,-26.807C82.764,-28.662 82.715,-32.227 80.713,-34.082C78.906,-36.035 75.684,-35.938 73.682,-33.984Z" style="fill-rule:nonzero;"/>
        </g>
        <g id="Bold-S" transform="matrix(1,0,0,1,2292.25,696)">
            <path d="M72.852,-33.643L44.58,-5.371C37.647,1.611 28.369,1.074 22.412,-4.98C16.406,-10.938 15.869,-20.166 22.852,-27.1L61.963,-66.26C65.723,-70.019 71.631,-71.24 75.586,-67.236C79.59,-63.232 78.32,-57.422 74.561,-53.662L35.889,-14.893C34.619,-13.623 33.154,-14.014 32.324,-14.844C31.543,-15.674 31.152,-17.139 32.422,-18.408L59.131,-45.166C60.889,-46.924 60.986,-49.561 59.277,-51.27C57.568,-52.93 54.932,-52.881 53.174,-51.123L26.27,-24.219C21.777,-19.678 21.924,-12.598 26.025,-8.545C30.469,-4.102 37.158,-4.248 41.699,-8.789L80.615,-47.754C88.574,-55.664 88.525,-66.162 81.348,-73.34C74.316,-80.273 63.623,-80.518 55.713,-72.656L16.26,-33.106C6.104,-22.949 6.592,-8.008 16.016,1.416C25.488,10.84 40.43,11.377 50.586,1.221L79.15,-27.295C80.811,-28.955 80.811,-32.08 79.053,-33.74C77.393,-35.449 74.609,-35.303 72.852,-33.643Z" style="fill-rule:nonzero;"/>
        </g>
        <g id="Semibold-S" transform="matrix(1,0,0,1,1996.22,696)">
            <path d="M72.266,-33.35L44.19,-5.273C37.158,1.807 27.734,1.221 21.68,-4.883C15.576,-10.938 14.99,-20.361 22.07,-27.441L60.938,-66.26C64.844,-70.166 70.898,-71.338 74.951,-67.236C79.053,-63.135 77.881,-57.129 73.975,-53.223L35.742,-14.941C34.326,-13.477 32.617,-13.965 31.641,-14.893C30.713,-15.82 30.273,-17.481 31.738,-18.945L58.106,-45.361C59.717,-46.924 59.815,-49.316 58.252,-50.879C56.69,-52.344 54.346,-52.295 52.734,-50.732L26.221,-24.17C21.875,-19.824 22.022,-13.037 25.928,-9.131C30.176,-4.883 36.621,-5.078 40.967,-9.424L79.443,-47.9C87.109,-55.566 87.109,-65.772 80.176,-72.754C73.34,-79.541 62.94,-79.736 55.273,-72.07L16.113,-32.813C6.152,-22.9 6.641,-8.301 15.869,0.928C25.098,10.107 39.648,10.645 49.609,0.684L77.979,-27.637C79.492,-29.15 79.492,-31.982 77.881,-33.447C76.416,-35.059 73.828,-34.863 72.266,-33.35Z" style="fill-rule:nonzero;"/>
        </g>
        <g id="Medium-S" transform="matrix(1,0,0,1,1700.02,696)">
            <path d="M71.826,-33.154L43.897,-5.225C36.768,1.953 27.246,1.318 21.094,-4.834C14.941,-10.986 14.307,-20.459 21.484,-27.637L60.107,-66.309C64.111,-70.313 70.313,-71.436 74.512,-67.285C78.662,-63.037 77.539,-56.885 73.535,-52.93L35.645,-14.941C34.033,-13.33 32.178,-13.867 31.152,-14.893C30.127,-15.967 29.639,-17.773 31.201,-19.385L57.373,-45.508C58.789,-46.973 58.935,-49.17 57.471,-50.586C56.055,-51.953 53.857,-51.904 52.441,-50.44L26.172,-24.17C21.973,-19.971 22.07,-13.379 25.879,-9.619C29.981,-5.518 36.182,-5.664 40.381,-9.912L78.565,-48.047C86.035,-55.566 86.035,-65.527 79.248,-72.315C72.607,-78.955 62.451,-79.15 54.932,-71.631L15.967,-32.617C6.201,-22.852 6.689,-8.545 15.723,0.537C24.805,9.521 39.111,10.059 48.877,0.293L77.1,-27.93C78.516,-29.297 78.516,-31.885 77.002,-33.252C75.635,-34.766 73.291,-34.57 71.826,-33.154Z" style="fill-rule:nonzero;"/>
        </g>
        <g id="Regular-S" transform="matrix(1,0,0,1,1403.99,696)">
            <path d="M71.289,-32.91L43.506,-5.176C36.279,2.148 26.563,1.465 20.361,-4.785C14.111,-11.035 13.428,-20.654 20.703,-27.979L59.082,-66.309C63.232,-70.459 69.58,-71.533 73.877,-67.285C78.125,-62.94 77.051,-56.641 72.949,-52.49L35.498,-14.99C33.74,-13.184 31.641,-13.818 30.469,-14.941C29.346,-16.113 28.809,-18.115 30.566,-19.922L56.348,-45.703C57.617,-47.022 57.764,-48.926 56.494,-50.195C55.225,-51.416 53.272,-51.318 52.002,-50.049L26.074,-24.121C22.119,-20.068 22.168,-13.818 25.781,-10.205C29.736,-6.299 35.645,-6.494 39.697,-10.498L77.344,-48.193C84.619,-55.469 84.619,-65.186 78.076,-71.729C71.631,-78.174 61.768,-78.369 54.492,-71.094L15.82,-32.324C6.25,-22.803 6.738,-8.838 15.576,0C24.414,8.789 38.379,9.277 47.9,-0.244L75.928,-28.272C77.197,-29.492 77.197,-31.787 75.879,-33.008C74.609,-34.375 72.559,-34.131 71.289,-32.91Z" style="fill-rule:nonzero;"/>
        </g>
        <g id="Light-S" transform="matrix(1,0,0,1,1108.36,696)">
            <path d="M71.045,-32.91L42.627,-4.492C35.254,2.881 25.342,2.051 19.043,-4.297C12.695,-10.596 11.865,-20.459 19.238,-27.881L57.568,-66.162C62.158,-70.801 68.75,-70.996 72.852,-66.894C77.002,-62.744 76.758,-56.201 72.168,-51.611L34.668,-14.111C32.666,-12.06 30.225,-12.598 28.76,-14.014C27.344,-15.479 26.856,-17.871 28.857,-19.922L55.322,-46.387C56.348,-47.461 56.397,-48.926 55.42,-49.902C54.443,-50.879 52.978,-50.83 51.904,-49.805L25.391,-23.242C21.533,-19.385 21.729,-13.672 25.098,-10.352C28.662,-6.787 34.131,-6.787 37.988,-10.596L75.635,-48.242C82.666,-55.273 82.08,-64.453 76.172,-70.41C70.313,-76.221 61.035,-76.904 53.955,-69.873L15.479,-31.348C6.152,-21.973 7.031,-8.838 15.332,-0.586C23.584,7.666 36.768,8.594 46.094,-0.732L74.658,-29.297C75.684,-30.273 75.635,-32.08 74.658,-33.008C73.682,-34.033 72.07,-33.887 71.045,-32.91Z" style="fill-rule:nonzero;"/>
        </g>
        <g id="Thin-S" transform="matrix(1,0,0,1,813.087,696)">
            <path d="M70.703,-32.91L41.406,-3.613C33.887,3.906 23.731,2.881 17.285,-3.613C10.791,-10.059 9.766,-20.215 17.285,-27.734L55.566,-66.016C60.742,-71.191 67.578,-70.313 71.533,-66.406C75.44,-62.5 76.318,-55.664 71.143,-50.44L33.643,-12.94C31.25,-10.596 28.369,-11.035 26.514,-12.842C24.707,-14.697 24.268,-17.578 26.611,-19.971L54.004,-47.266C54.736,-47.998 54.639,-48.975 54.053,-49.561C53.467,-50.147 52.588,-50.195 51.807,-49.463L24.414,-22.07C20.85,-18.457 21.191,-13.525 24.17,-10.498C27.246,-7.422 32.129,-7.129 35.742,-10.742L73.291,-48.291C80.029,-55.029 78.662,-63.574 73.633,-68.604C68.604,-73.633 60.107,-75.049 53.32,-68.262L15.088,-30.029C5.957,-20.898 7.471,-8.887 14.99,-1.318C22.559,6.201 34.619,7.666 43.701,-1.416L72.949,-30.664C73.633,-31.348 73.633,-32.422 72.998,-33.008C72.412,-33.643 71.436,-33.594 70.703,-32.91Z" style="fill-rule:nonzero;"/>
        </g>
        <g id="Ultralight-S" transform="matrix(1,0,0,1,517.109,696)">
            <path d="M70.557,-32.91L40.772,-3.125C33.203,4.443 22.9,3.271 16.357,-3.271C9.863,-9.766 8.691,-20.068 16.26,-27.637L54.541,-65.869C60.059,-71.436 66.992,-69.971 70.85,-66.113C74.658,-62.353 76.074,-55.371 70.606,-49.853L33.106,-12.354C30.566,-9.863 27.393,-10.205 25.342,-12.207C23.34,-14.258 22.949,-17.432 25.488,-19.971L53.32,-47.754C53.857,-48.34 53.76,-48.975 53.369,-49.365C52.978,-49.756 52.344,-49.902 51.758,-49.268L23.975,-21.484C20.459,-17.969 20.898,-13.379 23.682,-10.596C26.563,-7.715 31.104,-7.324 34.619,-10.84L72.119,-48.34C78.711,-54.932 76.904,-63.086 72.315,-67.676C67.725,-72.266 59.619,-74.072 52.978,-67.432L14.893,-29.346C5.908,-20.361 7.666,-8.887 14.844,-1.709C22.022,5.469 33.496,7.178 42.481,-1.758L72.07,-31.397C72.607,-31.885 72.559,-32.617 72.168,-33.008C71.777,-33.398 71.094,-33.447 70.557,-32.91Z" style="fill-rule:nonzero;"/>
        </g>
    </g>
</svg>
