<?xml version="1.0" encoding="UTF-8"?>
<!--Generator: Apple Native CoreSVG 175-->
<!DOCTYPE svg
PUBLIC "-//W3C//DTD SVG 1.1//EN"
       "http://www.w3.org/Graphics/SVG/1.1/DTD/svg11.dtd">
<svg version="1.1" xmlns="http://www.w3.org/2000/svg" xmlns:xlink="http://www.w3.org/1999/xlink" width="3300" height="2200">
 <!--glyph: "uni100263.medium", point size: 100.0, font version: "17.1d1e1", template writer version: "65.1"-->
 <g id="Notes">
  <rect height="2200" id="artboard" style="fill:white;opacity:1" width="3300" x="0" y="0"/>
  <line style="fill:none;stroke:black;opacity:1;stroke-width:0.5;" x1="263" x2="3036" y1="292" y2="292"/>
  <text style="stroke:none;fill:black;font-family:sans-serif;font-size:13;font-weight:bold;" transform="matrix(1 0 0 1 263 322)">Weight/Scale Variations</text>
  <text style="stroke:none;fill:black;font-family:sans-serif;font-size:13;text-anchor:middle;" transform="matrix(1 0 0 1 559.711 322)">Ultralight</text>
  <text style="stroke:none;fill:black;font-family:sans-serif;font-size:13;text-anchor:middle;" transform="matrix(1 0 0 1 856.422 322)">Thin</text>
  <text style="stroke:none;fill:black;font-family:sans-serif;font-size:13;text-anchor:middle;" transform="matrix(1 0 0 1 1153.13 322)">Light</text>
  <text style="stroke:none;fill:black;font-family:sans-serif;font-size:13;text-anchor:middle;" transform="matrix(1 0 0 1 1449.84 322)">Regular</text>
  <text style="stroke:none;fill:black;font-family:sans-serif;font-size:13;text-anchor:middle;" transform="matrix(1 0 0 1 1746.56 322)">Medium</text>
  <text style="stroke:none;fill:black;font-family:sans-serif;font-size:13;text-anchor:middle;" transform="matrix(1 0 0 1 2043.27 322)">Semibold</text>
  <text style="stroke:none;fill:black;font-family:sans-serif;font-size:13;text-anchor:middle;" transform="matrix(1 0 0 1 2339.98 322)">Bold</text>
  <text style="stroke:none;fill:black;font-family:sans-serif;font-size:13;text-anchor:middle;" transform="matrix(1 0 0 1 2636.69 322)">Heavy</text>
  <text style="stroke:none;fill:black;font-family:sans-serif;font-size:13;text-anchor:middle;" transform="matrix(1 0 0 1 2933.4 322)">Black</text>
  <line style="fill:none;stroke:black;opacity:1;stroke-width:0.5;" x1="263" x2="3036" y1="1903" y2="1903"/>
  <g transform="matrix(1 0 0 1 263 1933)">
   <path d="M9.24805 0.830078Q10.8691 0.830078 12.2949 0.214844Q13.7207-0.400391 14.8096-1.49414Q15.8984-2.58789 16.5186-4.01367Q17.1387-5.43945 17.1387-7.05078Q17.1387-8.66211 16.5186-10.0879Q15.8984-11.5137 14.8047-12.6074Q13.7109-13.7012 12.2852-14.3164Q10.8594-14.9316 9.23828-14.9316Q7.62695-14.9316 6.20117-14.3164Q4.77539-13.7012 3.69141-12.6074Q2.60742-11.5137 1.9873-10.0879Q1.36719-8.66211 1.36719-7.05078Q1.36719-5.43945 1.9873-4.01367Q2.60742-2.58789 3.69629-1.49414Q4.78516-0.400391 6.21094 0.214844Q7.63672 0.830078 9.24805 0.830078ZM9.24805-0.654297Q7.91992-0.654297 6.7627-1.14746Q5.60547-1.64062 4.73145-2.51953Q3.85742-3.39844 3.36426-4.56055Q2.87109-5.72266 2.87109-7.05078Q2.87109-8.37891 3.35938-9.54102Q3.84766-10.7031 4.72168-11.582Q5.5957-12.4609 6.75293-12.9541Q7.91016-13.4473 9.23828-13.4473Q10.5762-13.4473 11.7334-12.9541Q12.8906-12.4609 13.7695-11.582Q14.6484-10.7031 15.1465-9.54102Q15.6445-8.37891 15.6445-7.05078Q15.6445-5.72266 15.1514-4.56055Q14.6582-3.39844 13.7842-2.51953Q12.9102-1.64062 11.748-1.14746Q10.5859-0.654297 9.24805-0.654297ZM5.6543-7.05078Q5.6543-6.72852 5.85938-6.52832Q6.06445-6.32812 6.40625-6.32812L8.51562-6.32812L8.51562-4.20898Q8.51562-3.88672 8.71094-3.67676Q8.90625-3.4668 9.23828-3.4668Q9.56055-3.4668 9.77051-3.67676Q9.98047-3.88672 9.98047-4.20898L9.98047-6.32812L12.0898-6.32812Q12.4219-6.32812 12.627-6.52832Q12.832-6.72852 12.832-7.05078Q12.832-7.38281 12.627-7.58789Q12.4219-7.79297 12.0898-7.79297L9.98047-7.79297L9.98047-9.90234Q9.98047-10.2344 9.77051-10.4443Q9.56055-10.6543 9.23828-10.6543Q8.90625-10.6543 8.71094-10.4443Q8.51562-10.2344 8.51562-9.90234L8.51562-7.79297L6.40625-7.79297Q6.06445-7.79297 5.85938-7.58789Q5.6543-7.38281 5.6543-7.05078Z"/>
  </g>
  <g transform="matrix(1 0 0 1 281.867 1933)">
   <path d="M11.709 2.91016Q13.75 2.91016 15.5518 2.12891Q17.3535 1.34766 18.7305-0.0292969Q20.1074-1.40625 20.8887-3.20801Q21.6699-5.00977 21.6699-7.05078Q21.6699-9.0918 20.8887-10.8936Q20.1074-12.6953 18.7305-14.0723Q17.3535-15.4492 15.5469-16.2305Q13.7402-17.0117 11.6992-17.0117Q9.6582-17.0117 7.85645-16.2305Q6.05469-15.4492 4.68262-14.0723Q3.31055-12.6953 2.5293-10.8936Q1.74805-9.0918 1.74805-7.05078Q1.74805-5.00977 2.5293-3.20801Q3.31055-1.40625 4.6875-0.0292969Q6.06445 1.34766 7.86621 2.12891Q9.66797 2.91016 11.709 2.91016ZM11.709 1.25Q9.98047 1.25 8.47656 0.605469Q6.97266-0.0390625 5.83496-1.17676Q4.69727-2.31445 4.05762-3.81836Q3.41797-5.32227 3.41797-7.05078Q3.41797-8.7793 4.05762-10.2832Q4.69727-11.7871 5.83008-12.9297Q6.96289-14.0723 8.4668-14.7119Q9.9707-15.3516 11.6992-15.3516Q13.4277-15.3516 14.9316-14.7119Q16.4355-14.0723 17.5781-12.9297Q18.7207-11.7871 19.3652-10.2832Q20.0098-8.7793 20.0098-7.05078Q20.0098-5.32227 19.3701-3.81836Q18.7305-2.31445 17.5928-1.17676Q16.4551-0.0390625 14.9463 0.605469Q13.4375 1.25 11.709 1.25ZM7.17773-7.05078Q7.17773-6.69922 7.41211-6.47461Q7.64648-6.25 8.01758-6.25L10.8887-6.25L10.8887-3.36914Q10.8887-2.99805 11.1133-2.76855Q11.3379-2.53906 11.6895-2.53906Q12.0605-2.53906 12.29-2.76855Q12.5195-2.99805 12.5195-3.36914L12.5195-6.25L15.4004-6.25Q15.7715-6.25 16.001-6.47461Q16.2305-6.69922 16.2305-7.05078Q16.2305-7.42188 16.001-7.65137Q15.7715-7.88086 15.4004-7.88086L12.5195-7.88086L12.5195-10.752Q12.5195-11.1328 12.29-11.3623Q12.0605-11.5918 11.6895-11.5918Q11.3379-11.5918 11.1133-11.3574Q10.8887-11.123 10.8887-10.752L10.8887-7.88086L8.01758-7.88086Q7.63672-7.88086 7.40723-7.65137Q7.17773-7.42188 7.17773-7.05078Z"/>
  </g>
  <g transform="matrix(1 0 0 1 305.646 1933)">
   <path d="M14.9707 5.66406Q17.0605 5.66406 18.96 5.01465Q20.8594 4.36523 22.4512 3.19336Q24.043 2.02148 25.2197 0.429688Q26.3965-1.16211 27.0459-3.06641Q27.6953-4.9707 27.6953-7.05078Q27.6953-9.14062 27.0459-11.04Q26.3965-12.9395 25.2197-14.5312Q24.043-16.123 22.4512-17.2998Q20.8594-18.4766 18.9551-19.126Q17.0508-19.7754 14.9609-19.7754Q12.8711-19.7754 10.9717-19.126Q9.07227-18.4766 7.48535-17.2998Q5.89844-16.123 4.72168-14.5312Q3.54492-12.9395 2.90039-11.04Q2.25586-9.14062 2.25586-7.05078Q2.25586-4.9707 2.90527-3.06641Q3.55469-1.16211 4.72656 0.429688Q5.89844 2.02148 7.49023 3.19336Q9.08203 4.36523 10.9814 5.01465Q12.8809 5.66406 14.9707 5.66406ZM14.9707 3.84766Q13.1641 3.84766 11.5283 3.2959Q9.89258 2.74414 8.53516 1.74805Q7.17773 0.751953 6.17676-0.610352Q5.17578-1.97266 4.62891-3.6084Q4.08203-5.24414 4.08203-7.05078Q4.08203-8.86719 4.62891-10.5029Q5.17578-12.1387 6.17188-13.501Q7.16797-14.8633 8.52539-15.8594Q9.88281-16.8555 11.5186-17.4023Q13.1543-17.9492 14.9609-17.9492Q16.7773-17.9492 18.4131-17.4023Q20.0488-16.8555 21.4111-15.8594Q22.7734-14.8633 23.7695-13.501Q24.7656-12.1387 25.3174-10.5029Q25.8691-8.86719 25.8691-7.05078Q25.8789-5.24414 25.332-3.6084Q24.7852-1.97266 23.7842-0.610352Q22.7832 0.751953 21.4209 1.74805Q20.0586 2.74414 18.4229 3.2959Q16.7871 3.84766 14.9707 3.84766ZM9.19922-7.05078Q9.19922-6.66992 9.45801-6.4209Q9.7168-6.17188 10.1172-6.17188L14.0625-6.17188L14.0625-2.2168Q14.0625-1.81641 14.3115-1.55762Q14.5605-1.29883 14.9512-1.29883Q15.3516-1.29883 15.6104-1.55273Q15.8691-1.80664 15.8691-2.2168L15.8691-6.17188L19.8242-6.17188Q20.2246-6.17188 20.4785-6.4209Q20.7324-6.66992 20.7324-7.05078Q20.7324-7.46094 20.4785-7.71484Q20.2246-7.96875 19.8242-7.96875L15.8691-7.96875L15.8691-11.9141Q15.8691-12.3242 15.6104-12.583Q15.3516-12.8418 14.9512-12.8418Q14.5605-12.8418 14.3115-12.583Q14.0625-12.3242 14.0625-11.9141L14.0625-7.96875L10.1172-7.96875Q9.70703-7.96875 9.45312-7.71484Q9.19922-7.46094 9.19922-7.05078Z"/>
  </g>
  <text style="stroke:none;fill:black;font-family:sans-serif;font-size:13;font-weight:bold;" transform="matrix(1 0 0 1 263 1953)">Design Variations</text>
  <text style="stroke:none;fill:black;font-family:sans-serif;font-size:13;" transform="matrix(1 0 0 1 263 1971)">Symbols are supported in up to nine weights and three scales.</text>
  <text style="stroke:none;fill:black;font-family:sans-serif;font-size:13;" transform="matrix(1 0 0 1 263 1989)">For optimal layout with text and other symbols, vertically align</text>
  <text style="stroke:none;fill:black;font-family:sans-serif;font-size:13;" transform="matrix(1 0 0 1 263 2007)">symbols with the adjacent text.</text>
  <line style="fill:none;stroke:#00AEEF;stroke-width:0.5;opacity:1.0;" x1="776" x2="776" y1="1919" y2="1933"/>
  <g transform="matrix(1 0 0 1 776 1933)">
   <path d="M3.31055 0.15625Q3.70117 0.15625 3.91602-0.00976562Q4.13086-0.175781 4.26758-0.585938L5.52734-4.0332L11.2891-4.0332L12.5488-0.585938Q12.6855-0.175781 12.9004-0.00976562Q13.1152 0.15625 13.4961 0.15625Q13.8867 0.15625 14.1162-0.0585938Q14.3457-0.273438 14.3457-0.644531Q14.3457-0.869141 14.2383-1.17188L9.6582-13.3691Q9.48242-13.8184 9.17969-14.043Q8.87695-14.2676 8.4082-14.2676Q7.5-14.2676 7.17773-13.3789L2.59766-1.16211Q2.49023-0.859375 2.49023-0.634766Q2.49023-0.263672 2.70996-0.0537109Q2.92969 0.15625 3.31055 0.15625ZM6.00586-5.51758L8.37891-12.0898L8.42773-12.0898L10.8008-5.51758Z"/>
  </g>
  <line style="fill:none;stroke:#00AEEF;stroke-width:0.5;opacity:1.0;" x1="793.197" x2="793.197" y1="1919" y2="1933"/>
  <text style="stroke:none;fill:black;font-family:sans-serif;font-size:13;font-weight:bold;" transform="matrix(1 0 0 1 776 1953)">Margins</text>
  <text style="stroke:none;fill:black;font-family:sans-serif;font-size:13;" transform="matrix(1 0 0 1 776 1971)">Leading and trailing margins on the left and right side of each symbol</text>
  <text style="stroke:none;fill:black;font-family:sans-serif;font-size:13;" transform="matrix(1 0 0 1 776 1989)">can be adjusted by modifying the x-location of the margin guidelines.</text>
  <text style="stroke:none;fill:black;font-family:sans-serif;font-size:13;" transform="matrix(1 0 0 1 776 2007)">Modifications are automatically applied proportionally to all</text>
  <text style="stroke:none;fill:black;font-family:sans-serif;font-size:13;" transform="matrix(1 0 0 1 776 2025)">scales and weights.</text>
  <g transform="matrix(1 0 0 1 1289 1933)">
   <path d="M2.8418 1.86523L4.54102 3.57422Q5.18555 4.22852 5.90332 4.17969Q6.62109 4.13086 7.31445 3.35938L18.0078-8.42773L17.041-9.4043L6.42578 2.27539Q6.16211 2.57812 5.89355 2.61719Q5.625 2.65625 5.27344 2.30469L4.10156 1.14258Q3.75 0.791016 3.79395 0.522461Q3.83789 0.253906 4.14062-0.0195312L15.6152-10.8203L14.6387-11.7871L3.04688-0.898438Q2.30469-0.214844 2.25098 0.498047Q2.19727 1.21094 2.8418 1.86523ZM9.25781-16.3281Q8.94531-16.0254 8.90625-15.6348Q8.86719-15.2441 9.04297-14.9512Q9.21875-14.6777 9.55566-14.541Q9.89258-14.4043 10.3809-14.5215Q11.4746-14.7754 12.5977-14.7314Q13.7207-14.6875 14.7949-13.9844L14.209-12.5293Q13.9551-11.9043 14.0674-11.4404Q14.1797-10.9766 14.5801-10.5664L16.875-8.25195Q17.2363-7.88086 17.5781-7.82227Q17.9199-7.76367 18.3398-7.8418L19.4043-8.03711L20.0684-7.36328L20.0293-6.80664Q20-6.43555 20.1221-6.12305Q20.2441-5.81055 20.6055-5.44922L21.3672-4.70703Q21.7285-4.3457 22.1533-4.33105Q22.5781-4.31641 22.9297-4.66797L25.8398-7.58789Q26.1914-7.93945 26.1816-8.35449Q26.1719-8.76953 25.8105-9.13086L25.0391-9.89258Q24.6875-10.2539 24.3799-10.3857Q24.0723-10.5176 23.7109-10.4883L23.1348-10.4395L22.4902-11.0742L22.7344-12.1973Q22.832-12.6172 22.6953-12.9834Q22.5586-13.3496 22.1191-13.7891L19.9219-15.9766Q18.6719-17.2168 17.2607-17.8369Q15.8496-18.457 14.4189-18.4814Q12.9883-18.5059 11.665-17.959Q10.3418-17.4121 9.25781-16.3281ZM10.752-15.957Q11.6602-16.6211 12.7002-16.9043Q13.7402-17.1875 14.8047-17.085Q15.8691-16.9824 16.8701-16.5137Q17.8711-16.0449 18.7012-15.2051L21.1328-12.793Q21.3086-12.6172 21.3525-12.4512Q21.3965-12.2852 21.3379-12.0312L21.0156-10.5469L22.5195-9.0625L23.5059-9.12109Q23.6914-9.13086 23.7891-9.09668Q23.8867-9.0625 24.0332-8.91602L24.6094-8.33984L22.168-5.89844L21.5918-6.47461Q21.4453-6.62109 21.4062-6.71875Q21.3672-6.81641 21.377-7.01172L21.4453-7.98828L19.9512-9.47266L18.4277-9.21875Q18.1836-9.16992 18.042-9.2041Q17.9004-9.23828 17.7148-9.41406L15.7129-11.416Q15.5176-11.5918 15.4932-11.7529Q15.4688-11.9141 15.5859-12.1875L16.4648-14.2773Q15.293-15.3711 13.8281-15.791Q12.3633-16.2109 10.8398-15.7617Q10.7227-15.7324 10.6885-15.8057Q10.6543-15.8789 10.752-15.957Z"/>
  </g>
  <text style="stroke:none;fill:black;font-family:sans-serif;font-size:13;font-weight:bold;" transform="matrix(1 0 0 1 1289 1953)">Exporting</text>
  <text style="stroke:none;fill:black;font-family:sans-serif;font-size:13;" transform="matrix(1 0 0 1 1289 1971)">Symbols should be outlined when exporting to ensure the</text>
  <text style="stroke:none;fill:black;font-family:sans-serif;font-size:13;" transform="matrix(1 0 0 1 1289 1989)">design is preserved when submitting to Xcode.</text>
  <text id="template-version" style="stroke:none;fill:black;font-family:sans-serif;font-size:13;text-anchor:end;" transform="matrix(1 0 0 1 3036 1933)">Template v.3.0</text>
  <text style="stroke:none;fill:black;font-family:sans-serif;font-size:13;text-anchor:end;" transform="matrix(1 0 0 1 3036 1951)">Requires Xcode 13 or greater</text>
  <text id="descriptive-name" style="stroke:none;fill:black;font-family:sans-serif;font-size:13;text-anchor:end;" transform="matrix(1 0 0 1 3036 1969)">Generated from link</text>
  <text style="stroke:none;fill:black;font-family:sans-serif;font-size:13;text-anchor:end;" transform="matrix(1 0 0 1 3036 1987)">Typeset at 100 points</text>
  <text style="stroke:none;fill:black;font-family:sans-serif;font-size:13;" transform="matrix(1 0 0 1 263 726)">Small</text>
  <text style="stroke:none;fill:black;font-family:sans-serif;font-size:13;" transform="matrix(1 0 0 1 263 1156)">Medium</text>
  <text style="stroke:none;fill:black;font-family:sans-serif;font-size:13;" transform="matrix(1 0 0 1 263 1586)">Large</text>
 </g>
 <g id="Guides">
  <g id="H-reference" style="fill:#27AAE1;stroke:none;" transform="matrix(1 0 0 1 339 696)">
   <path d="M0.993347 0L3.6377 0L29.3282-67.1326L30.0301-67.1326L30.0301-70.459L28.1227-70.459ZM11.6882-24.4797L46.9818-24.4797L46.2311-26.7288L12.4382-26.7288ZM55.1193 0L57.7637 0L30.6381-70.459L29.4327-70.459L29.4327-67.1326Z"/>
  </g>
  <line id="Baseline-S" style="fill:none;stroke:#27AAE1;opacity:1;stroke-width:0.5;" x1="263" x2="3036" y1="696" y2="696"/>
  <line id="Capline-S" style="fill:none;stroke:#27AAE1;opacity:1;stroke-width:0.5;" x1="263" x2="3036" y1="625.541" y2="625.541"/>
  <g id="H-reference" style="fill:#27AAE1;stroke:none;" transform="matrix(1 0 0 1 339 1126)">
   <path d="M0.993347 0L3.6377 0L29.3282-67.1326L30.0301-67.1326L30.0301-70.459L28.1227-70.459ZM11.6882-24.4797L46.9818-24.4797L46.2311-26.7288L12.4382-26.7288ZM55.1193 0L57.7637 0L30.6381-70.459L29.4327-70.459L29.4327-67.1326Z"/>
  </g>
  <line id="Baseline-M" style="fill:none;stroke:#27AAE1;opacity:1;stroke-width:0.5;" x1="263" x2="3036" y1="1126" y2="1126"/>
  <line id="Capline-M" style="fill:none;stroke:#27AAE1;opacity:1;stroke-width:0.5;" x1="263" x2="3036" y1="1055.54" y2="1055.54"/>
  <g id="H-reference" style="fill:#27AAE1;stroke:none;" transform="matrix(1 0 0 1 339 1556)">
   <path d="M0.993347 0L3.6377 0L29.3282-67.1326L30.0301-67.1326L30.0301-70.459L28.1227-70.459ZM11.6882-24.4797L46.9818-24.4797L46.2311-26.7288L12.4382-26.7288ZM55.1193 0L57.7637 0L30.6381-70.459L29.4327-70.459L29.4327-67.1326Z"/>
  </g>
  <line id="Baseline-L" style="fill:none;stroke:#27AAE1;opacity:1;stroke-width:0.5;" x1="263" x2="3036" y1="1556" y2="1556"/>
  <line id="Capline-L" style="fill:none;stroke:#27AAE1;opacity:1;stroke-width:0.5;" x1="263" x2="3036" y1="1485.54" y2="1485.54"/>
  <line id="left-margin-Regular-M" style="fill:none;stroke:#00AEEF;stroke-width:0.5;opacity:1.0;" x1="1386.86" x2="1386.86" y1="1030.79" y2="1150.12"/>
  <line id="right-margin-Regular-M" style="fill:none;stroke:#00AEEF;stroke-width:0.5;opacity:1.0;" x1="1512.83" x2="1512.83" y1="1030.79" y2="1150.12"/>
 </g>
 <g id="Symbols">
  <g id="Black-L" transform="matrix(1 0 0 1 2847.89 1556)">
   <path d="M95.2471-64.1991L81.5312-50.5596Q85.1862-49.9569 88.702-48.3867Q92.2178-46.8165 94.3979-44.6155Q99.2116-39.8019 100.819-34.1016Q102.426-28.4014 100.856-22.7115Q99.286-17.0216 94.5492-12.2264L72.4455 9.81883Q67.6295 14.5753 61.9397 16.1741Q56.2498 17.7729 50.5501 16.1473Q44.8504 14.5216 40.0952 9.76762Q35.2816 4.93195 33.645-0.767716Q32.0083-6.46738 33.5779-12.1865Q35.1475-17.9055 39.9636-22.6423L45.4032-28.0808Q43.2507-33.0352 42.5036-39.1719Q41.7564-45.3086 43.6223-50.9366L27.0471-34.5354Q18.6218-26.2478 15.8481-16.1095Q13.0744-5.97123 15.9053 4.16824Q18.7362 14.3077 27.1263 22.6769Q35.4967 31.0474 45.6356 33.8589Q55.7745 36.6704 65.8835 33.8869Q75.9926 31.1034 84.3386 22.7574L107.467-0.333362Q115.813-8.6794 118.597-18.8073Q121.381-28.9351 118.569-39.0558Q115.757-49.1764 107.388-57.5457Q105.346-59.587 102.063-61.4271Q98.7801-63.2671 95.2471-64.1991ZM75.7793-7.03534L89.4744-20.6541Q85.8402-21.2567 82.325-22.8269Q78.8098-24.3971 76.6297-26.5981Q71.816-31.4117 70.1794-37.112Q68.5428-42.8122 70.1124-48.5313Q71.682-54.2504 76.4772-58.9872L98.5821-81.0324Q103.319-85.8473 109.019-87.4169Q114.719-88.9865 120.419-87.3901Q126.119-85.7937 130.931-80.9812Q135.746-76.1468 137.353-70.4465Q138.96-64.7462 137.38-59.0564Q135.8-53.3665 131.063-48.5713L125.624-43.1328Q127.776-38.1784 128.523-32.0417Q129.271-25.905 127.404-20.277L143.981-36.6782Q152.385-44.9658 155.139-55.1041Q157.894-65.2424 155.082-75.3818Q152.271-85.5213 143.901-93.8906Q135.472-102.34 125.362-105.112Q115.252-107.884 105.143-105.1Q95.0339-102.317 86.689-93.971L63.5607-70.8803Q55.2135-62.5342 52.43-52.4356Q49.6465-42.3369 52.458-32.187Q55.2695-22.0372 63.6399-13.6679Q65.68-11.6266 68.9534-9.78655Q72.2267-7.94649 75.7793-7.03534Z"/>
  </g>
  <g id="Heavy-L" transform="matrix(1 0 0 1 2552.28 1556)">
   <path d="M91.7965-63.5792L79.4539-51.2711Q83.7818-50.7243 87.5175-49.0859Q91.2532-47.4476 93.6815-44.9891Q98.6684-40.0023 100.333-34.0607Q101.997-28.1192 100.359-22.1927Q98.7207-16.2662 93.7975-11.2983L72.061 10.3934Q67.063 15.3413 61.1366 16.9991Q55.2101 18.6569 49.2713 16.988Q43.3326 15.3191 38.3904 10.3826Q33.4036 5.3599 31.7168-0.578833Q30.03-6.51756 31.6655-12.4664Q33.301-18.4152 38.299-23.3383L45.534-30.5677Q43.5993-35.0141 42.9548-40.4465Q42.3102-45.879 43.8447-50.8678L26.7382-33.8896Q18.5308-25.8016 15.8208-15.9201Q13.1108-6.03857 15.8598 3.84859Q18.6088 13.7357 26.813 21.9097Q34.9926 30.0893 44.8769 32.8283Q54.7613 35.5672 64.6205 32.845Q74.4796 30.1227 82.6122 21.9901L105.364-0.747168Q113.497-8.87977 116.222-18.7462Q118.947-28.6126 116.205-38.4925Q113.463-48.3724 105.289-56.5464Q102.986-58.8498 99.4847-60.7488Q95.9836-62.6479 91.7965-63.5792ZM77.027-7.73796L89.3394-20.0158Q85.0417-20.5627 81.3088-22.201Q77.5759-23.8393 75.1475-26.2979Q70.1607-31.2847 68.4739-37.2263Q66.7871-43.1678 68.4226-49.1166Q70.0581-55.0653 75.0259-59.9886L96.7681-81.6804Q101.691-86.6729 107.633-88.3084Q113.574-89.9439 119.513-88.2973Q125.452-86.6507 130.433-81.6695Q135.425-76.6525 137.087-70.7109Q138.749-64.7693 137.098-58.8429Q135.448-52.9164 130.525-47.9486L123.295-40.7193Q125.224-36.2729 125.872-30.8404Q126.519-25.408 124.979-20.4192L142.091-37.3974Q150.268-45.4853 152.968-55.3669Q155.668-65.2484 152.929-75.1355Q150.19-85.0226 142.016-93.1967Q133.792-101.451 123.927-104.153Q114.062-106.854 104.203-104.132Q94.3439-101.41 86.2168-93.2771L63.4651-70.5398Q55.327-62.4072 52.6047-52.5631Q49.8824-42.719 52.6214-32.8167Q55.3604-22.9145 63.5399-14.7405Q65.8377-12.4372 69.3265-10.5381Q72.8152-8.63906 77.027-7.73796Z"/>
  </g>
  <g id="Bold-L" transform="matrix(1 0 0 1 2256.99 1556)">
   <path d="M87.3154-62.8107L76.7233-52.2144Q81.9111-51.7888 85.9716-50.0622Q90.0322-48.3356 92.8052-45.5247Q98.0073-40.3228 99.741-34.0779Q101.475-27.8329 99.7481-21.6069Q98.0215-15.3809 92.8602-10.1904L71.5399 11.1005Q66.3115 16.2865 60.0856 18.021Q53.8597 19.7556 47.6214 18.0329Q41.383 16.3102 36.2103 11.1508Q31.0084 5.89749 29.2601-0.340783Q27.5118-6.57905 29.2317-12.8197Q30.9516-19.0603 36.18-24.2213L45.7177-33.7459Q44.0669-37.5249 43.5492-42.0852Q43.0314-46.6455 44.2032-50.8578L26.3392-33.0681Q18.4155-25.2409 15.7862-15.6894Q13.1569-6.13801 15.8022 3.42677Q18.4475 12.9915 26.4063 20.9123Q34.3403 28.8463 43.8985 31.4894Q53.4566 34.1324 62.9934 31.4908Q72.5302 28.8491 80.3866 20.9927L102.714-1.3439Q110.571-9.20029 113.219-18.7328Q115.867-28.2653 113.218-37.8343Q110.568-47.4033 102.647-55.3242Q99.9839-57.9876 96.1653-59.9634Q92.3467-61.9392 87.3154-62.8107ZM78.6609-8.59891L89.2151-19.1574Q84.0654-19.583 80.0114-21.3095Q75.9574-23.036 73.1844-25.8471Q67.9825-31.049 66.2342-37.2939Q64.4859-43.5388 66.2059-49.7793Q67.9258-56.0198 73.1161-61.1811L94.4497-82.4722Q99.611-87.6875 105.856-89.4074Q112.101-91.1273 118.339-89.4192Q124.577-87.7112 129.766-82.5224Q134.981-77.2824 136.708-71.0374Q138.436-64.7925 136.697-58.5666Q134.958-52.3407 129.796-47.1502L120.272-37.6259Q121.91-33.8468 122.434-29.2865Q122.958-24.7262 121.773-20.514L139.651-38.3037Q147.536-46.1307 150.163-55.6822Q152.79-65.2338 150.147-74.7984Q147.504-84.3631 139.583-92.284Q131.62-100.285 122.07-102.895Q112.52-105.504 102.983-102.862Q93.4462-100.221 85.603-92.3645L63.2753-70.0279Q55.4058-62.1715 52.764-52.6536Q50.1222-43.1357 52.7654-33.552Q55.4085-23.9682 63.3424-16.0475Q65.9926-13.3841 69.7987-11.4084Q73.6048-9.43256 78.6609-8.59891Z"/>
  </g>
  <g id="Semibold-L" transform="matrix(1 0 0 1 1961.26 1556)">
   <path d="M84.2262-62.281L74.8409-52.8647Q80.6214-52.5227 84.9059-50.7352Q89.1904-48.9478 92.201-45.894Q97.5515-40.5438 99.3329-34.0897Q101.114-27.6356 99.3269-21.2031Q97.5394-14.7706 92.214-9.4267L71.1806 11.5879Q65.7934 16.9381 59.3611 18.7256Q52.9288 20.513 46.4839 18.7532Q40.0389 16.9935 34.7073 11.6805Q29.3571 6.2681 27.5664-0.176672Q25.7757-6.62144 27.5539-13.0632Q29.332-19.505 34.7192-24.83L45.8443-35.9368Q44.3893-39.2559 43.959-43.2149Q43.5287-47.174 44.4504-50.8509L26.0641-32.5017Q18.3361-24.8544 15.7624-15.5305Q13.1887-6.20656 15.7625 3.13597Q18.3363 12.4785 26.1259 20.2246Q33.8907 27.9894 43.2239 30.5664Q52.5571 33.1433 61.8717 30.5572Q71.1863 27.971 78.8523 20.3051L100.888-1.75529Q108.554-9.42125 111.149-18.7235Q113.745-28.0258 111.158-37.3805Q108.572-46.7352 100.826-54.4817Q97.9143-57.3933 93.8769-59.4219Q89.8395-61.4506 84.2262-62.281ZM79.7873-9.19245L89.1294-18.5655Q83.3924-18.9075 79.117-20.6948Q74.8417-22.4821 71.8311-25.5362Q66.4809-30.8864 64.6902-37.3405Q62.8995-43.7946 64.6777-50.2362Q66.4558-56.6778 71.7994-62.0032L92.8515-83.0181Q98.1769-88.3869 104.631-90.165Q111.085-91.9432 117.53-90.1927Q123.975-88.4422 129.306-83.1104Q134.675-77.7166 136.447-71.2625Q138.219-64.8085 136.42-58.3761Q134.62-51.9438 129.295-46.5999L118.188-35.4934Q119.624-32.1743 120.064-28.2153Q120.503-24.2562 119.563-20.5793L137.968-38.9285Q145.652-46.5755 148.23-55.8996Q150.807-65.2237 148.229-74.566Q145.652-83.9084 137.906-91.6548Q130.123-99.4814 120.79-102.027Q111.457-104.574 102.142-101.987Q92.8274-99.4009 85.1798-91.7353L63.1444-69.6749Q55.4601-62.009 52.8738-52.716Q50.2875-43.4229 52.8646-34.0588Q55.4417-24.6947 63.2062-16.9485Q66.0994-14.0369 70.1242-12.0083Q74.149-9.97959 79.7873-9.19245Z"/>
  </g>
  <g id="Medium-L" transform="matrix(1 0 0 1 1665.29 1556)">
   <path d="M81.8838-61.8793L73.4135-53.3577Q79.6435-53.0791 84.0978-51.2455Q88.5522-49.4119 91.7429-46.174Q97.2059-40.7113 99.0235-34.0986Q100.841-27.486 99.0075-20.8969Q97.1739-14.3079 91.7241-8.8476L70.9082 11.9574Q65.4006 17.4322 58.8118 19.2597Q52.2229 21.0873 45.6214 19.2994Q39.0198 17.5115 33.5677 12.082Q28.1051 6.54911 26.2822-0.0522372Q24.4594-6.65358 26.2817-13.2479Q28.1039-19.8422 33.6115-25.2916L45.9403-37.5981Q44.6337-40.5684 44.2697-44.0715Q43.9057-47.5747 44.6378-50.8456L25.8556-32.0723Q18.2758-24.5613 15.7443-15.4099Q13.2128-6.25853 15.7324 2.91548Q18.252 12.0895 25.9133 19.7032Q33.5497 27.3396 42.7124 29.8665Q51.8751 32.3933 61.0212 29.8493Q70.1673 27.3052 77.6889 19.7837L99.5027-2.06722Q107.024-9.58879 109.58-18.7165Q112.135-27.8443 109.597-37.0365Q107.059-46.2287 99.4449-53.8428Q96.3451-56.9426 92.1418-59.0114Q87.9384-61.0801 81.8838-61.8793ZM80.6414-9.64249L89.0644-18.1168Q82.8821-18.3954 78.4389-20.2288Q73.9956-22.0622 70.8049-25.3006Q65.3423-30.7632 63.5194-37.3759Q61.6966-43.9886 63.5189-50.5827Q65.3412-57.1768 70.8011-62.6265L91.6397-83.432Q97.0894-88.9173 103.702-90.7395Q110.315-92.5618 116.916-90.7792Q123.517-88.9966 128.958-83.5562Q134.443-78.0459 136.249-71.4332Q138.056-64.8206 136.21-58.2317Q134.363-51.6429 128.914-46.1826L116.607-33.8764Q117.892-30.9061 118.267-27.403Q118.642-23.8999 117.887-20.6289L136.693-39.4022Q144.224-46.9129 146.763-56.0644Q149.302-65.216 146.775-74.3898Q144.248-83.5636 136.634-91.1778Q128.988-98.8719 119.819-101.37Q110.65-103.868 101.504-101.324Q92.3582-98.7794 84.8589-91.2582L63.0451-69.4073Q55.5013-61.8857 52.9571-52.7632Q50.4128-43.6408 52.9399-34.4431Q55.4669-25.2455 63.1029-17.6317Q66.1804-14.5319 70.3711-12.4632Q74.5617-10.3944 80.6414-9.64249Z"/>
  </g>
  <g id="Regular-L" transform="matrix(1 0 0 1 1369.55 1556)">
   <path d="M78.8286-61.3554L71.5517-54.0009Q78.3679-53.8049 83.0438-51.9112Q87.7197-50.0174 91.1454-46.5392Q96.7552-40.9298 98.6199-34.1103Q100.485-27.2908 98.5909-20.4976Q96.6971-13.7043 91.085-8.09225L70.5528 12.4395Q64.8882 18.0767 58.0952 19.9565Q51.3022 21.8363 44.4964 20.0118Q37.6906 18.1873 32.0813 12.6058Q26.4719 6.91564 24.6072 0.11007Q22.7425-6.69551 24.6223-13.4887Q26.5021-20.282 32.1667-25.8936L46.0656-39.765Q44.9525-42.2803 44.675-45.1888Q44.3974-48.0973 44.8822-50.8388L25.5835-31.5122Q18.1973-24.179 15.7207-15.2527Q13.2442-6.32633 15.6931 2.62788Q18.142 11.5821 25.6361 19.0232Q33.105 26.4921 42.0453 28.9536Q50.9856 31.4151 59.9119 28.9259Q68.8382 26.4368 76.1715 19.1036L97.6961-2.47408Q105.029-9.80733 107.532-18.7074Q110.035-27.6074 107.56-36.5877Q105.085-45.5679 97.6436-53.0095Q94.2983-56.3548 89.8785-58.4758Q85.4588-60.5969 78.8286-61.3554ZM81.7554-10.2295L88.9796-17.5314Q82.2165-17.7274 77.5543-19.6209Q72.8921-21.5145 69.4664-24.9932Q63.8571-30.6025 61.9924-37.422Q60.1276-44.2415 62.0075-51.0345Q63.8873-57.8275 69.4989-63.4396L90.059-83.9718Q95.6711-89.609 102.491-91.4888Q109.31-93.3687 116.116-91.5441Q122.921-89.7196 128.503-84.1377Q134.14-78.4754 135.991-71.6559Q137.842-64.8364 135.936-58.0433Q134.029-51.2503 128.418-45.6383L114.546-31.7673Q115.632-29.252 115.923-26.3435Q116.214-23.435 115.702-20.6935L135.029-40.0201Q142.362-47.3529 144.851-56.2794Q147.34-65.206 144.879-74.16Q142.417-83.1139 134.976-90.5555Q127.507-98.077 118.553-100.512Q109.599-102.947 100.673-100.458Q91.7462-97.9687 84.4403-90.6359L62.9157-69.0582Q55.555-61.725 53.0657-52.8249Q50.5763-43.9249 53.038-34.9444Q55.4997-25.9639 62.9682-18.5228Q66.2861-15.1776 70.6931-13.0565Q75.1-10.9354 81.7554-10.2295Z"/>
  </g>
  <g id="Light-L" transform="matrix(1 0 0 1 1074.21 1556)">
   <path d="M74.4006-60.8208L68.6508-55.0507Q76.2304-55.2745 81.4692-53.2948Q86.708-51.3151 90.6108-47.3789Q96.3736-41.617 98.2765-34.5589Q100.179-27.5008 98.1997-20.4594Q96.22-13.418 90.3979-7.59587L69.9038 12.8974Q64.0484 18.7065 57.0074 20.6626Q49.9663 22.6187 42.9314 20.7561Q35.8965 18.8934 30.1346 13.1785Q24.3726 7.33538 22.4697 0.30086Q20.5668-6.73366 22.523-13.7751Q24.4791-20.8165 30.3345-26.6378L46.3327-42.5897Q45.506-44.3989 45.3144-46.7062Q45.1227-49.0134 45.6646-51.3159L25.2019-30.8061Q18.1017-23.74 15.692-15.1191Q13.2823-6.4982 15.6453 2.16982Q18.0083 10.8378 25.2352 18.0307Q32.4753 25.2707 41.1197 27.6272Q49.7642 29.9837 58.3851 27.5805Q67.006 25.1773 74.0721 18.1112L95.5775-3.42835Q102.644-10.4945 105.07-19.0987Q107.497-27.703 105.117-36.3873Q102.737-45.0716 95.5442-52.2652Q91.7218-56.0876 86.7772-58.2851Q81.8325-60.4825 74.4006-60.8208ZM83.4539-10.764L89.1704-16.5009Q81.6249-16.2771 76.4092-18.2564Q71.1936-20.2357 67.2908-24.1726Q61.5288-29.9346 59.6259-36.9926Q57.723-44.0507 59.6792-51.0918Q61.6353-58.1328 67.4566-63.9549L87.9978-84.449Q93.8199-90.258 100.878-92.2142Q107.936-94.1703 114.971-92.3076Q122.005-90.4449 127.721-84.7293Q133.529-78.9333 135.409-71.8752Q137.288-64.8171 135.315-57.7761Q133.342-50.735 127.521-44.9129L111.569-28.9619Q112.349-27.1527 112.564-24.8454Q112.779-22.5381 112.19-20.2356L132.7-40.7454Q139.766-47.8108 142.169-56.4321Q144.573-65.0534 142.216-73.721Q139.859-82.3886 132.666-89.5823Q125.426-96.8556 116.759-99.1954Q108.091-101.535 99.4702-99.1316Q90.8493-96.7281 83.8295-89.6627L62.3241-68.1232Q55.2116-61.0571 52.808-52.4528Q50.4045-43.8486 52.7613-35.1639Q55.1182-26.4792 62.3574-19.2863Q66.1335-15.4639 71.0843-13.2665Q76.0351-11.0691 83.4539-10.764Z"/>
  </g>
  <g id="Thin-L" transform="matrix(1 0 0 1 779.299 1556)">
   <path d="M68.5443-60.1139L64.814-56.4392Q73.4034-57.2181 79.3867-55.1248Q85.37-53.0314 89.9039-48.4896Q95.8689-42.5258 97.8223-35.1522Q99.7756-27.7786 97.6823-20.4089Q95.5889-13.0393 89.489-6.93937L69.0455 13.503Q62.9377 19.5394 55.5686 21.5965Q48.1996 23.6535 40.8616 21.7404Q33.5237 19.8272 27.5599 13.936Q21.5961 7.89052 19.6427 0.553195Q17.6893-6.78413 19.7464-14.1538Q21.8035-21.5235 27.9112-27.6222L46.686-46.3255Q46.238-47.2009 46.16-48.713Q46.082-50.225 46.6994-51.947L24.6973-29.8723Q17.9753-23.1594 15.6541-14.9425Q13.3328-6.72552 15.5821 1.564Q17.8314 9.85352 24.7051 16.7182Q31.6423 23.6554 39.8956 25.8729Q48.1488 28.0905 56.3658 25.801Q64.5827 23.5115 71.2956 16.7986L92.7756-4.69045Q99.4884-11.4033 101.814-19.6163Q104.14-27.8294 101.886-36.1222Q99.6324-44.4151 92.7677-51.2809Q88.3142-55.7344 82.6753-58.0327Q77.0364-60.3311 68.5443-60.1139ZM85.7003-11.471L89.4228-15.1378Q80.8424-14.3589 74.8948-16.4517Q68.9472-18.5444 64.4133-23.0874Q58.4495-29.0512 56.4961-36.4248Q54.5428-43.7984 56.5998-51.1675Q58.6569-58.5365 64.7556-64.6364L85.2717-85.08Q91.3716-91.1164 98.7452-93.1735Q106.119-95.2305 113.456-93.3174Q120.793-91.4042 126.686-85.5118Q132.721-79.5389 134.639-72.1653Q136.556-64.7917 134.495-57.4226Q132.433-50.0535 126.335-43.9536L107.631-25.2515Q108.008-24.3761 108.122-22.864Q108.235-21.352 107.545-19.63L129.621-41.7047Q136.333-48.4164 138.623-56.6339Q140.913-64.8515 138.695-73.1404Q136.477-81.4293 129.612-88.2952Q122.675-95.2402 114.386-97.4539Q106.097-99.6675 97.8801-97.3774Q89.6631-95.0873 83.0216-88.3756L61.5416-66.8866Q54.7574-60.1737 52.4673-51.9607Q50.1771-43.7476 52.3953-35.4542Q54.6135-27.1607 61.5495-20.2961Q65.9316-15.8426 71.6017-13.5443Q77.2717-11.246 85.7003-11.471Z"/>
  </g>
  <g id="Ultralight-L" transform="matrix(1 0 0 1 483.513 1556)">
   <path d="M65.5447-59.7518L62.8488-57.1504Q71.9554-58.2136 78.3201-56.062Q84.6847-53.9105 89.5418-49.0585Q95.6104-42.9913 97.5896-35.4561Q99.5688-27.9209 97.4173-20.3831Q95.2657-12.8453 89.0235-6.60312L68.6058 13.8132Q62.3688 19.966 54.8317 22.0748Q47.2946 24.1835 39.8015 22.2445Q32.3084 20.3055 26.2412 14.3239Q20.1739 8.17486 18.1947 0.68244Q16.2155-6.80998 18.3243-14.3478Q20.4331-21.8856 26.67-28.1263L46.8669-48.239Q46.6129-48.636 46.5931-49.7408Q46.5734-50.8456 47.2294-52.2702L24.4388-29.394Q17.9106-22.8621 15.6346-14.852Q13.3586-6.84195 15.5497 1.25371Q17.7408 9.34936 24.4336 16.0459Q31.2157 22.828 39.2686 24.9744Q47.3214 27.1208 55.3315 24.8895Q63.3415 22.6582 69.8735 16.1263L91.3404-5.33689Q97.8723-11.8688 100.146-19.8815Q102.421-27.8941 100.231-35.9865Q98.0421-44.0788 91.3456-50.7767Q86.5689-55.5534 80.5744-57.9035Q74.5799-60.2535 65.5447-59.7518ZM86.8509-11.8331L89.552-14.4397Q80.4416-13.3764 74.1191-15.5273Q67.7966-17.6781 62.9395-22.5315Q56.8723-28.5987 54.8931-36.1339Q52.9138-43.6691 55.0226-51.2062Q57.1314-58.7433 63.3721-64.9855L83.8755-85.4032Q90.1176-91.556 97.6528-93.6648Q105.188-95.7736 112.68-93.8346Q120.173-91.8956 126.156-85.9125Q132.307-79.8491 134.244-72.3139Q136.182-64.7786 134.075-57.2415Q131.968-49.7044 125.727-43.4623L105.614-23.351Q105.784-22.954 105.846-21.8492Q105.908-20.7444 105.166-19.3198L128.044-42.1961Q134.574-48.7266 136.806-56.7373Q139.038-64.7481 136.891-72.843Q134.744-80.938 128.048-87.6359Q121.266-94.4129 113.171-96.5619Q105.076-98.7109 97.0656-96.4789Q89.0556-94.2468 82.6078-87.7163L61.1409-66.2531Q54.5248-59.7212 52.2927-51.7086Q50.0607-43.6959 52.2079-35.6029Q54.355-27.5098 61.1357-20.8133Q65.8282-16.0366 71.8667-13.6866Q77.9051-11.3365 86.8509-11.8331Z"/>
  </g>
  <g id="Black-M" transform="matrix(1 0 0 1 2866.39 1126)">
   <path d="M76.1576-58.1338L64.5579-46.637Q66.9147-46.179 69.5259-45.0094Q72.137-43.8398 73.6773-42.294Q77.2785-38.6928 78.48-34.4516Q79.6814-30.2105 78.5118-25.972Q77.3422-21.7336 73.8042-18.1384L56.3691-0.76047Q52.7685 2.78334 48.5301 3.98162Q44.2916 5.1799 40.0503 3.9525Q35.809 2.72511 32.2649-0.819268Q28.6637-4.42566 27.4337-8.66699Q26.2037-12.9083 27.3734-17.1753Q28.5432-21.4423 32.1438-24.9803L35.0996-27.9365Q33.2835-32.1157 32.6281-37.3939Q31.9728-42.6721 33.7109-47.5222L21.1682-35.1511Q14.4924-28.595 12.2978-20.5611Q10.1032-12.5273 12.3552-4.49376Q14.6071 3.53978 21.2308 10.158Q27.8487 16.7759 35.8824 19.0022Q43.9161 21.2285 51.9214 19.031Q59.9267 16.8336 66.5399 10.2203L84.7795-7.96765Q91.3927-14.5809 93.5901-22.612Q95.7874-30.6431 93.5612-38.6508Q91.3351-46.6586 84.7169-53.2768Q83.296-54.6977 80.8686-56.0829Q78.4412-57.4681 76.1576-58.1338ZM57.8673-12.8549L69.4615-24.3462Q67.1101-24.8042 64.4989-25.9738Q61.8876-27.1433 60.3472-28.6892Q56.7461-32.2903 55.5161-36.5315Q54.2861-40.7727 55.4558-45.0397Q56.6255-49.3067 60.2207-52.8447L77.6554-70.2227Q81.1935-73.8236 85.4347-74.9933Q89.6758-76.1631 93.9172-74.9642Q98.1585-73.7654 101.76-70.1639Q105.361-66.5572 106.562-62.3161Q107.764-58.0749 106.592-53.8364Q105.419-49.598 101.881-46.0028L98.925-43.0467Q100.741-38.8674 101.397-33.5892Q102.052-28.3111 100.314-23.461L112.856-35.832Q119.527-42.3882 121.696-50.4221Q123.865-58.4559 121.638-66.4894Q119.412-74.523 112.794-81.1412Q106.119-87.8217 98.1138-90.0167Q90.1088-92.2117 82.1035-90.0142Q74.0982-87.8167 67.4846-81.2035L49.2451-63.0155Q42.6321-56.4023 40.4346-48.3997Q38.2372-40.3972 40.4635-32.3609Q42.6898-24.3246 49.3077-17.7064Q50.7289-16.2855 53.1534-14.9003Q55.5779-13.5151 57.8673-12.8549Z"/>
  </g>
  <g id="Heavy-M" transform="matrix(1 0 0 1 2570.63 1126)">
   <path d="M73.1928-57.5771L62.7948-47.2358Q65.739-46.7936 68.5132-45.5653Q71.2873-44.3371 73.0263-42.5817Q76.7827-38.8253 78.0365-34.3703Q79.2902-29.9152 78.0619-25.4683Q76.8336-21.0215 73.1327-17.2769L56.0531-0.240984Q52.2922 3.47407 47.8453 4.723Q43.3985 5.97193 38.9446 4.70573Q34.4906 3.43954 30.7779-0.270929Q27.0215-4.04603 25.746-8.49994Q24.4704-12.9539 25.6975-17.4225Q26.9247-21.8912 30.6856-25.5921L35.2028-30.107Q33.5733-33.8548 33.0103-38.5Q32.4472-43.1452 33.8561-47.4109L20.9015-34.5849Q14.4122-28.1993 12.2737-20.3883Q10.1353-12.5773 12.3151-4.76398Q14.4949 3.04931 20.9615 9.49951Q27.414 15.952 35.2262 18.1171Q43.0383 20.2821 50.8275 18.1366Q58.6167 15.9911 65.046 9.56182L82.9191-8.28414Q89.3484-14.7134 91.495-22.5162Q93.6417-30.319 91.4755-38.1187Q89.3093-45.9183 82.8591-52.3686Q81.226-54.0016 78.634-55.4375Q76.0419-56.8733 73.1928-57.5771ZM58.9302-13.4924L69.3119-23.8173Q66.3841-24.2595 63.6111-25.4878Q60.8381-26.716 59.0991-28.4714Q55.3427-32.2278 54.0671-36.6829Q52.7916-41.1379 54.0187-45.6066Q55.2458-50.0752 58.9903-53.7762L76.0723-70.8121Q79.7732-74.5708 84.2282-75.7979Q88.6833-77.0251 93.1372-75.7807Q97.5911-74.5363 101.345-70.7822Q105.104-67.0094 106.356-62.5543Q107.609-58.0992 106.374-53.6524Q105.138-49.2055 101.438-45.461L96.9226-40.9461Q98.5498-37.1983 99.114-32.5531Q99.6781-27.9079 98.267-23.6422L111.224-36.4682Q117.697-42.8538 119.82-50.6648Q121.944-58.4759 119.779-66.2891Q117.614-74.1024 111.164-80.5526Q104.668-87.0651 96.8763-89.2002Q89.0848-91.3353 81.2956-89.1897Q73.5064-87.0442 67.0794-80.6149L49.2063-62.769Q42.7747-56.3397 40.6292-48.5587Q38.4837-40.7777 40.6487-32.9562Q42.8138-25.1348 49.2663-18.6846Q50.8971-17.0515 53.4821-15.6157Q56.067-14.1798 58.9302-13.4924Z"/>
  </g>
  <g id="Bold-M" transform="matrix(1 0 0 1 2274.98 1126)">
   <path d="M69.8763-56.9544L60.8226-47.9056Q64.4238-47.4811 67.3803-46.1872Q70.3368-44.8933 72.298-42.9035Q76.2281-38.9735 77.5403-34.2792Q78.8525-29.5849 77.5586-24.9049Q76.2647-20.2249 72.3816-16.3132L55.6996 0.340135Q51.7593 4.24675 47.0794 5.55234Q42.3994 6.85793 37.7077 5.54833Q33.0159 4.23873 29.1145 0.342467Q25.1845-3.62137 23.858-8.31308Q22.5315-13.0048 23.8228-17.6991Q25.1141-22.3934 29.0544-26.2764L35.3182-32.5351Q33.8974-35.8003 33.4377-39.7373Q32.978-43.6744 34.0186-47.2865L20.6031-33.9515Q14.3225-27.7567 12.2468-20.1949Q10.1711-12.6332 12.2702-5.06627Q14.3693 2.50064 20.6603 8.76292Q26.9277 15.0304 34.4921 17.1269Q42.0564 19.2235 49.6038 17.1361Q57.1513 15.0486 63.3747 8.82522L80.838-8.63818Q87.0614-14.8616 89.1515-22.4091Q91.2415-29.9565 89.1423-37.5234Q87.0432-45.0903 80.7809-51.3526Q78.9105-53.223 76.1343-54.7155Q73.358-56.208 69.8763-56.9544ZM60.1193-14.2056L69.1445-23.2258Q65.5719-23.6503 62.618-24.9441Q59.664-26.238 57.7028-28.2279Q53.7728-32.1579 52.4463-36.8522Q51.1199-41.5465 52.4112-46.2407Q53.7025-50.9349 57.6141-54.8181L74.3012-71.4715Q78.1844-75.4067 82.8787-76.698Q87.573-77.9893 92.2647-76.694Q96.9564-75.3987 100.881-71.4738Q104.816-67.5151 106.126-62.8208Q107.436-58.1265 106.13-53.4465Q104.824-48.7666 100.941-44.8549L94.6827-38.5963Q96.0984-35.3311 96.5606-31.394Q97.0228-27.457 95.9771-23.8449L109.398-37.1798Q115.65-43.3746 117.723-50.9364Q119.796-58.4982 117.699-66.0651Q115.603-73.6319 109.341-79.8943Q103.045-86.2189 95.492-88.2869Q87.9394-90.3549 80.3919-88.2674Q72.8444-86.1799 66.6261-79.9566L49.1628-62.4932Q42.9343-56.2698 40.8468-48.7366Q38.7594-41.2034 40.856-33.6222Q42.9526-26.041 49.22-19.7788Q51.0852-17.9084 53.8497-16.4159Q56.6141-14.9234 60.1193-14.2056Z"/>
  </g>
  <g id="Semibold-M" transform="matrix(1 0 0 1 1979 1126)">
   <path d="M67.5899-56.525L59.4629-48.3674Q63.5172-47.9551 66.5993-46.6159Q69.6815-45.2768 71.796-43.1254Q75.8458-39.0757 77.1983-34.2165Q78.5508-29.3572 77.2116-24.5165Q75.8725-19.6757 71.8638-15.6488L55.4559 0.740755Q51.392 4.77944 46.5513 6.12408Q41.7106 7.46873 36.8549 6.12921Q31.9992 4.78969 27.9677 0.765339Q23.918-3.3286 22.5564-8.18426Q21.1948-13.0399 22.5304-17.8897Q23.866-22.7396 27.9299-26.7482L35.3977-34.209Q34.1208-37.1414 33.7324-40.5903Q33.3439-44.0392 34.1306-47.2007L20.3975-33.5149Q14.2607-27.4515 12.2283-20.0616Q10.1959-12.6717 12.2393-5.27466Q14.2828 2.1224 20.4526 8.25511Q26.5925 14.395 33.986 16.4443Q41.3794 18.4937 48.7603 16.4463Q56.1411 14.3989 62.2226 8.31742L79.4033-8.88225Q85.4848-14.9638 87.5358-22.3352Q89.5868-29.7066 87.5338-37.113Q85.4809-44.5194 79.3482-50.6522Q77.3142-52.6862 74.411-54.2178Q71.5078-55.7493 67.5899-56.525ZM60.9391-14.6973L69.0291-22.8179Q65.012-23.2302 61.9333-24.5693Q58.8547-25.9084 56.7402-28.06Q52.6905-32.1096 51.329-36.9689Q49.9674-41.8281 51.3029-46.6779Q52.6385-51.5276 56.6653-55.5364L73.0803-71.9261Q77.089-75.9829 81.9483-77.3185Q86.8075-78.6541 91.6632-77.3236Q96.5188-75.9932 100.561-71.9505Q104.618-67.8638 105.967-63.0045Q107.316-58.1453 105.962-53.3046Q104.608-48.4639 100.599-44.437L93.1385-36.9763Q94.4083-34.0439 94.8003-30.595Q95.1923-27.1461 94.3985-23.9846L108.139-37.6704Q114.238-43.7337 116.277-51.1236Q118.315-58.5136 116.266-65.9106Q114.216-73.3076 108.084-79.4404Q101.926-85.6355 94.5376-87.6572Q87.1497-89.679 79.7689-87.6316Q72.3881-85.5841 66.3136-79.5027L49.1329-62.3031Q43.0443-56.2215 40.9969-48.8592Q38.9494-41.4969 40.9989-34.0813Q43.0483-26.6658 49.188-20.5331Q51.215-18.4991 54.1031-16.9675Q56.9913-15.436 60.9391-14.6973Z"/>
  </g>
  <g id="Medium-M" transform="matrix(1 0 0 1 1682.85 1126)">
   <path d="M65.8563-56.1995L58.432-48.7175Q62.8297-48.3145 66.0072-46.941Q69.1847-45.5676 71.4153-43.2936Q75.5559-39.1532 76.9389-34.1689Q78.322-29.1846 76.9486-24.222Q75.5751-19.2593 71.4711-15.1451L55.2711 1.04452Q51.1135 5.18334 46.1509 6.5576Q41.1884 7.93187 36.2084 6.56966Q31.2283 5.20746 27.0982 1.08598Q22.9578-3.10662 21.5695-8.08658Q20.1813-13.0665 21.5504-18.0343Q22.9196-23.0021 27.0772-27.1059L35.458-35.4782Q34.2903-38.1584 33.9558-41.2371Q33.6213-44.3159 34.2155-47.1356L20.2415-33.1838Q14.2138-27.2201 12.2142-19.9605Q10.2146-12.7009 12.2159-5.43267Q14.2172 1.83559 20.2951 7.87008Q26.3383 13.9132 33.6022 15.9268Q40.8662 17.9403 48.1206 15.9233Q55.3751 13.9063 61.349 7.93238L78.3155-9.06732Q84.2894-15.0412 86.3107-22.2792Q88.3321-29.5171 86.3142-36.8018Q84.2963-44.0866 78.2618-50.1212Q76.1038-52.2792 73.1043-53.8404Q70.1049-55.4016 65.8563-56.1995ZM61.5607-15.0701L68.9417-22.5087Q64.5874-22.9118 61.4142-24.2851Q58.241-25.6585 56.0104-27.9326Q51.8699-32.0731 50.4817-37.0574Q49.0935-42.0417 50.4626-47.0093Q51.8317-51.977 55.9459-56.081L72.1545-72.2708Q76.2585-76.4198 81.2428-77.789Q86.2271-79.1581 91.2071-77.801Q96.187-76.444 100.319-72.3121Q104.468-68.1281 105.847-63.1438Q107.226-58.1595 105.835-53.197Q104.444-48.2345 100.34-44.1202L91.9676-35.748Q93.1269-33.0679 93.4656-29.9891Q93.8043-26.9104 93.2015-24.0906L107.184-38.0424Q113.168-44.0059 115.18-51.2656Q117.192-58.5253 115.179-65.7935Q113.165-73.0617 107.131-79.0963Q101.077-85.1931 93.814-87.1798Q86.551-89.1666 79.2965-87.1495Q72.042-85.1324 66.0766-79.1586L49.1102-62.1589Q43.1277-56.185 41.1106-48.9522Q39.0936-41.7194 41.1072-34.4295Q43.1208-27.1395 49.1638-21.105Q51.3133-18.947 54.2953-17.3858Q57.2773-15.8247 61.5607-15.0701Z"/>
  </g>
  <g id="Regular-M" transform="matrix(1 0 0 1 1386.86 1126)">
   <path d="M63.595-55.7749L57.0873-49.1742Q61.933-48.7832 65.2348-47.365Q68.5366-45.9468 70.9187-43.513Q75.1777-39.2542 76.6007-34.1068Q78.0236-28.9594 76.6054-23.8378Q75.1872-18.7162 70.959-14.488L55.0301 1.44074Q50.7502 5.71017 45.6287 7.12306Q40.5072 8.53596 35.365 7.14416Q30.2228 5.75236 25.964 1.5042Q21.7052-2.81707 20.2823-7.95917Q18.8593-13.1013 20.2722-18.2229Q21.6851-23.3444 25.965-27.5725L35.5367-37.1337Q34.5112-39.4848 34.2472-42.0807Q33.9832-44.6767 34.3263-47.0508L20.0381-32.7519Q14.1526-26.9184 12.1959-19.8287Q10.2391-12.7391 12.1853-5.63878Q14.1315 1.46151 20.0897 7.36785Q26.0067 13.2848 33.1017 15.2517Q40.1967 17.2185 47.2863 15.2411Q54.3759 13.2637 60.2095 7.43016L76.8965-9.30871Q82.7301-15.1423 84.7128-22.2061Q86.6956-29.2699 84.7234-36.3959Q82.7512-43.522 76.8449-49.4285Q74.525-51.7483 71.4-53.3481Q68.2749-54.9479 63.595-55.7749ZM62.3714-15.5563L68.8275-22.1054Q64.0337-22.4964 60.7371-23.9145Q57.4405-25.3326 55.0584-27.7666Q50.7996-32.0254 49.3766-37.1728Q47.9537-42.3202 49.3666-47.4417Q50.7794-52.5632 55.0075-56.7914L70.947-72.7203Q75.1753-76.9898 80.3227-78.4026Q85.4701-79.8155 90.6122-78.4237Q95.7543-77.0319 100.003-72.7836Q104.272-68.473 105.69-63.3255Q107.107-58.1781 105.668-53.0566Q104.23-47.9351 100.002-43.7069L90.4404-34.1458Q91.4554-31.7948 91.7246-29.1988Q91.9939-26.6029 91.6402-24.2288L105.939-38.5276Q111.773-44.3611 113.75-51.4508Q115.728-58.5405 113.761-65.6407Q111.794-72.7409 105.887-78.6474Q99.9704-84.6161 92.8702-86.5571Q85.77-88.4981 78.6803-86.5206Q71.5907-84.5431 65.7676-78.7097L49.0806-61.9709Q43.2365-56.1373 41.259-49.0735Q39.2815-42.0097 41.2485-34.8835Q43.2154-27.7574 49.1322-21.8511Q51.4416-19.5313 54.546-17.9314Q57.6503-16.3316 62.3714-15.5563Z"/>
  </g>
  <g id="Light-M" transform="matrix(1 0 0 1 1091.37 1126)">
   <path d="M59.6252-55.2957L54.4864-50.1155Q60.0166-50.1008 63.8231-48.6055Q67.6296-47.1103 70.4395-44.2659Q74.8356-39.8703 76.2928-34.509Q77.7499-29.1477 76.2547-23.8036Q74.7594-18.4595 70.3429-14.043L54.4482 1.85127Q49.9973 6.27479 44.6534 7.7561Q39.3095 9.23742 33.9619 7.81141Q28.6143 6.3854 24.2187 2.01765Q19.8231-2.44076 18.3659-7.78812Q16.9087-13.1355 18.3901-18.4796Q19.8714-23.8237 24.3223-28.2397L35.7762-39.6662Q35.0074-41.3842 34.8205-43.4411Q34.6335-45.498 35.0278-47.4786L19.696-32.1189Q14.067-26.5248 12.1701-19.709Q10.2733-12.8932 12.1425-6.04945Q14.0117 0.794254 19.7304 6.47809Q25.4421 12.1898 32.2719 14.0625Q39.1016 15.9352 45.9174 14.0349Q52.7333 12.1345 58.3274 6.54039L74.9971-10.1643Q80.5912-15.7584 82.5055-22.557Q84.4198-29.3556 82.5332-36.2163Q80.6466-43.0769 74.9627-48.7612Q72.2151-51.5089 68.6194-53.1771Q65.0238-54.8453 59.6252-55.2957ZM63.8942-16.0356L68.9986-21.1814Q63.5033-21.1961 59.7105-22.6911Q55.9177-24.1861 53.1078-27.0309Q48.7121-31.4265 47.255-36.7878Q45.7978-42.1492 47.2791-47.493Q48.7604-52.8369 53.1765-57.2534L69.0991-73.1481Q73.5156-77.5716 78.8769-79.0529Q84.2382-80.5342 89.5856-79.1082Q94.9329-77.6822 99.3012-73.314Q103.724-68.8835 105.168-63.5222Q106.611-58.1609 105.112-52.817Q103.614-47.4732 99.1975-43.0566L87.7711-31.6306Q88.5124-29.9126 88.7131-27.8557Q88.9138-25.7988 88.4916-23.8183L103.852-39.1779Q109.445-44.7716 111.346-51.5876Q113.247-58.4037 111.374-65.2471Q109.501-72.0906 103.817-77.7749Q98.1052-83.5211 91.2617-85.3765Q84.4182-87.232 77.6024-85.3314Q70.7866-83.4309 65.2199-77.8372L48.5501-61.1326Q42.9286-55.5385 41.028-48.7399Q39.1275-41.9412 41.0004-35.0803Q42.8733-28.2194 48.5846-22.5356Q51.3048-19.788 54.8967-18.1197Q58.4886-16.4515 63.8942-16.0356Z"/>
  </g>
  <g id="Thin-M" transform="matrix(1 0 0 1 796.28 1126)">
   <path d="M54.3747-54.6618L51.0465-51.3603Q57.482-51.8433 61.956-50.2462Q66.43-48.649 69.8057-45.2617Q74.3832-40.6851 75.8856-35.0409Q77.388-29.3967 75.7908-23.7583Q74.1937-18.1199 69.5281-13.4544L53.6786 2.39422Q49.0015 7.02154 43.3635 8.59335Q37.7255 10.1652 32.1063 8.6939Q26.487 7.22265 21.9104 2.69672Q17.3338-1.94305 15.8314-7.56189Q14.3289-13.1807 15.9008-18.8191Q17.4726-24.4575 22.1497-29.1222L36.0929-43.0156Q35.6637-43.8963 35.5786-45.2403Q35.4936-46.5843 35.9555-48.0443L19.2435-31.2816Q13.9537-26.0043 12.1361-19.5506Q10.3185-13.097 12.0858-6.5926Q13.8531-0.08824 19.2551 5.3013Q24.6954 10.7415 31.1744 12.4897Q37.6534 14.2379 44.107 12.4394Q50.5607 10.641 55.8381 5.36361L72.485-11.2958Q77.7624-16.5732 79.5862-23.021Q81.41-29.4689 79.6365-35.9786Q77.863-42.4884 72.4734-47.8788Q69.16-51.1921 64.9419-52.9509Q60.7239-54.7096 54.3747-54.6618ZM65.9083-16.6694L69.2248-19.9593Q62.8018-19.4763 58.3527-21.0731Q53.9037-22.6698 50.528-26.0579Q45.9513-30.6345 44.4489-36.2787Q42.9465-41.9229 44.5183-47.5609Q46.0901-53.1989 50.7549-57.8644L66.655-73.7139Q71.3206-78.3412 76.9648-79.913Q82.609-81.4848 88.2278-80.0135Q93.8466-78.5423 98.3734-74.0155Q103-69.4264 104.477-63.7823Q105.955-58.1381 104.377-52.5001Q102.799-46.8621 98.1341-42.1966L84.2407-28.3041Q84.6201-27.4233 84.7301-26.0793Q84.8401-24.7353 84.3275-23.2753L101.091-40.038Q106.368-45.3145 108.166-51.7686Q109.965-58.2227 108.217-64.7266Q106.468-71.2306 101.079-76.6209Q95.6383-82.0728 89.1344-83.8152Q82.6304-85.5575 76.1768-83.7587Q69.7231-81.9598 64.4956-76.6833L47.8486-60.0238Q42.5214-54.7465 40.7225-48.2986Q38.9237-41.8508 40.6723-35.3406Q42.4208-28.8304 47.8602-23.4409Q51.1238-20.1275 55.3606-18.3688Q59.5973-16.6101 65.9083-16.6694Z"/>
  </g>
  <g id="Ultralight-M" transform="matrix(1 0 0 1 500.398 1126)">
   <path d="M51.6854-54.3372L49.2846-51.9979Q56.1839-52.7359 60.9997-51.0865Q65.8156-49.4372 69.481-45.7718Q74.1514-41.1024 75.677-35.3134Q77.2026-29.5243 75.5532-23.7352Q73.9039-17.946 69.1107-13.1529L53.2845 2.67232Q48.4914 7.40403 42.7028 9.02219Q36.9142 10.6403 31.1558 9.14591Q25.3974 7.65148 20.7281 3.04454Q16.0588-1.68812 14.5332-7.44601Q13.0076-13.2039 14.6257-18.993Q16.2439-24.7821 21.0369-29.5742L36.2552-44.7311Q35.9998-45.183 35.967-46.1619Q35.9341-47.1407 36.4307-48.3341L19.0118-30.8528Q13.8956-25.7377 12.1187-19.4695Q10.3417-13.2013 12.0568-6.87079Q13.7719-0.540249 19.0117 4.69856Q24.3129 9.99975 30.6122 11.6841Q36.9116 13.3685 43.1797 11.6223Q49.4479 9.87602 54.563 4.76086L71.1983-11.8754Q76.3135-16.9905 78.0909-23.2587Q79.8684-29.5269 78.1528-35.8569Q76.4372-42.1869 71.1984-47.4267Q67.5952-51.0299 63.0583-52.835Q58.5215-54.64 51.6854-54.3372ZM66.9398-16.9941L69.3407-19.3334Q62.4425-18.5955 57.6573-20.2443Q52.8721-21.8931 49.2066-25.5596Q44.5373-30.2289 43.0117-36.018Q41.4861-41.807 43.1043-47.5956Q44.7224-53.3843 49.5145-58.1774L65.4032-74.0037Q70.1963-78.7354 75.9854-80.3535Q81.7745-81.9717 87.5324-80.4772Q93.2903-78.9828 97.8982-74.3748Q102.629-69.7045 104.124-63.9155Q105.619-58.1264 104-52.3378Q102.381-46.5492 97.5894-41.7561L82.4325-26.6002Q82.6265-26.1483 82.69-25.1695Q82.7536-24.1906 82.1946-22.9972L99.6769-40.4785Q104.791-45.5926 106.538-51.8613Q108.285-58.13 106.6-64.46Q104.915-70.79 99.676-76.0299Q94.3748-81.331 88.0448-83.0154Q81.7147-84.6999 75.4466-82.9531Q69.1784-81.2063 64.1246-76.0922L47.4893-59.456Q42.3128-54.3408 40.566-48.0726Q38.8193-41.8044 40.5042-35.4739Q42.1891-29.1434 47.4892-23.9046Q51.0311-20.3014 55.5982-18.4964Q60.1652-16.6913 66.9398-16.9941Z"/>
  </g>
  <g id="Black-S" transform="matrix(1 0 0 1 2880.67 696)">
   <path d="M60.3516-53.3203L50.9766-44.043Q52.6855-43.7012 54.7119-42.7979Q56.7383-41.8945 57.9102-40.7227Q60.6934-37.9395 61.6211-34.668Q62.5488-31.3965 61.6455-28.125Q60.7422-24.8535 58.0078-22.0703L44.2383-8.34961Q41.4551-5.61523 38.1836-4.6875Q34.9121-3.75977 31.6406-4.71191Q28.3691-5.66406 25.6348-8.39844Q22.8516-11.1816 21.8994-14.4531Q20.9473-17.7246 21.8506-21.0205Q22.7539-24.3164 25.5371-27.0508L27.4902-29.0039Q26.0254-32.373 25.4883-36.6699Q24.9512-40.9668 26.416-44.9219L16.6504-35.3027Q11.377-30.127 9.64355-23.7793Q7.91016-17.4316 9.69238-11.084Q11.4746-4.73633 16.6992 0.488281Q21.9238 5.71289 28.2715 7.4707Q34.6191 9.22852 40.9424 7.49512Q47.2656 5.76172 52.4902 0.537109L66.8945-13.8184Q72.1191-19.043 73.8525-25.3906Q75.5859-31.7383 73.8281-38.0615Q72.0703-44.3848 66.8457-49.6094Q65.7715-50.6836 63.8916-51.7578Q62.0117-52.832 60.3516-53.3203ZM45.1172-17.5293L54.4922-26.8066Q52.7832-27.1484 50.7568-28.0518Q48.7305-28.9551 47.5586-30.127Q44.7754-32.9102 43.8232-36.1816Q42.8711-39.4531 43.7744-42.749Q44.6777-46.0449 47.4609-48.7793L61.2305-62.5Q63.9648-65.2832 67.2363-66.1865Q70.5078-67.0898 73.7793-66.1621Q77.0508-65.2344 79.834-62.4512Q82.6172-59.668 83.5449-56.3965Q84.4727-53.125 83.5693-49.8535Q82.666-46.582 79.9316-43.7988L77.9785-41.8457Q79.4434-38.4766 79.9805-34.1797Q80.5176-29.8828 79.0527-25.9277L88.8184-35.5469Q94.0918-40.7227 95.8008-47.0703Q97.5098-53.418 95.752-59.7656Q93.9941-66.1133 88.7695-71.3379Q83.4961-76.6113 77.1729-78.3447Q70.8496-80.0781 64.5264-78.3447Q58.2031-76.6113 52.9785-71.3867L38.5742-57.0312Q33.3496-51.8066 31.6162-45.4834Q29.8828-39.1602 31.6406-32.8125Q33.3984-26.4648 38.623-21.2402Q39.6973-20.166 41.5771-19.0918Q43.457-18.0176 45.1172-17.5293Z"/>
  </g>
  <g id="Heavy-S" transform="matrix(1 0 0 1 2584.61 696)">
   <path d="M58.3233-52.9054L49.8011-44.4348Q51.9249-44.0584 54.0262-43.1148Q56.1275-42.1711 57.4146-40.8725Q60.3131-37.974 61.2811-34.547Q62.2492-31.1199 61.3055-27.6986Q60.3619-24.2773 57.5123-21.3904L44.0424-7.95778Q41.1439-5.09663 37.7226-4.13433Q34.3013-3.17202 30.8742-4.15298Q27.4472-5.13394 24.586-7.99508Q21.6876-10.9051 20.7009-14.3321Q19.7141-17.7592 20.6578-21.1991Q21.6015-24.6391 24.4999-27.4887L27.5479-30.5367Q26.2098-33.6177 25.7418-37.4421Q25.2739-41.2664 26.4506-44.7721L16.466-34.8994Q11.3193-29.8388 9.62627-23.6468Q7.93321-17.4547 9.66357-11.2626Q11.3939-5.07054 16.5148 0.0388271Q21.6242 5.14819 27.8163 6.86567Q34.0083 8.58315 40.1818 6.88432Q46.3552 5.1855 51.453 0.0876552L65.5462-13.9797Q70.644-19.0775 72.3428-25.2639Q74.0417-31.4502 72.3242-37.6294Q70.6067-43.8085 65.4973-48.9179Q64.2964-50.1189 62.3358-51.2277Q60.3752-52.3365 58.3233-52.9054ZM45.8317-18.0133L54.3424-26.4724Q52.23-26.8488 50.1288-27.7925Q48.0275-28.7361 46.7404-30.0348Q43.8419-32.9332 42.8552-36.3603Q41.8685-39.7873 42.8121-43.2273Q43.7558-46.6672 46.6427-49.5169L60.1126-62.9495Q62.9622-65.8479 66.3893-66.7916Q69.8163-67.7352 73.2434-66.7729Q76.6705-65.8106 79.5689-62.9122Q82.4674-60.0022 83.4354-56.5751Q84.4035-53.148 83.4541-49.7267Q82.5047-46.3054 79.6551-43.4185L76.6071-40.3706Q77.9452-37.2895 78.4131-33.4652Q78.8811-29.6408 77.7044-26.1352L87.689-36.0079Q92.8241-41.0684 94.5043-47.2605Q96.1845-53.4525 94.467-59.6446Q92.7495-65.8367 87.6401-70.9461Q82.4935-76.1043 76.32-77.7973Q70.1466-79.4904 63.9732-77.7916Q57.7998-76.0927 52.7019-70.9949L38.6088-56.9275Q33.511-51.8297 31.8121-45.662Q30.1133-39.4944 31.8308-33.2965Q33.5483-27.0987 38.6576-21.9893Q39.8586-20.7883 41.8134-19.6795Q43.7682-18.5708 45.8317-18.0133Z"/>
  </g>
  <g id="Bold-S" transform="matrix(1 0 0 1 2288.64 696)">
   <path d="M56.0547-52.4414L48.4863-44.873Q51.0742-44.458 53.2593-43.4692Q55.4443-42.4805 56.8604-41.04Q59.8877-38.0127 60.9009-34.4116Q61.9141-30.8105 60.9253-27.2217Q59.9365-23.6328 56.958-20.6299L43.8232-7.51953Q40.7959-4.5166 37.207-3.51562Q33.6182-2.51465 30.0171-3.52783Q26.416-4.54102 23.4131-7.54395Q20.3857-10.5957 19.3604-14.1968Q18.335-17.7979 19.3237-21.3989Q20.3125-25 23.3398-27.9785L27.6123-32.251Q26.416-35.0098 26.0254-38.3057Q25.6348-41.6016 26.4893-44.6045L16.2598-34.4482Q11.2549-29.5166 9.60693-23.4985Q7.95898-17.4805 9.63135-11.4624Q11.3037-5.44434 16.3086-0.463867Q21.2891 4.5166 27.3071 6.18896Q33.3252 7.86133 39.3311 6.20117Q45.3369 4.54102 50.293-0.415039L64.0381-14.1602Q68.9941-19.1162 70.6543-25.1221Q72.3145-31.1279 70.6421-37.146Q68.9697-43.1641 63.9893-48.1445Q62.6465-49.4873 60.5957-50.6348Q58.5449-51.7822 56.0547-52.4414ZM46.6309-18.5547L54.1748-26.0986Q51.6113-26.5137 49.4263-27.5024Q47.2412-28.4912 45.8252-29.9316Q42.7979-32.959 41.7725-36.5601Q40.7471-40.1611 41.7358-43.7622Q42.7246-47.3633 45.7275-50.3418L58.8623-63.4521Q61.8408-66.4795 65.4419-67.4683Q69.043-68.457 72.644-67.4561Q76.2451-66.4551 79.2725-63.4277Q82.2998-60.376 83.313-56.7749Q84.3262-53.1738 83.3252-49.585Q82.3242-45.9961 79.3457-42.9932L75.0732-38.7207Q76.2695-35.9619 76.6602-32.666Q77.0508-29.3701 76.1963-26.3672L86.4258-36.5234Q91.4062-41.4551 93.0542-47.4731Q94.7021-53.4912 93.0298-59.5093Q91.3574-65.5273 86.377-70.5078Q81.3721-75.5371 75.3662-77.1851Q69.3604-78.833 63.3545-77.1729Q57.3486-75.5127 52.3926-70.5566L38.6475-56.8115Q33.6914-51.8555 32.0312-45.8618Q30.3711-39.8682 32.0435-33.8379Q33.7158-27.8076 38.6963-22.8271Q40.0391-21.4844 42.0776-20.3369Q44.1162-19.1895 46.6309-18.5547Z"/>
  </g>
  <g id="Semibold-S" transform="matrix(1 0 0 1 1992.43 696)">
   <path d="M54.4906-52.1215L47.5799-45.1752Q50.4877-44.7335 52.7305-43.7136Q54.9733-42.6938 56.4782-41.1556Q59.5944-38.0394 60.6387-34.3183Q61.683-30.5973 60.6631-26.8929Q59.6433-23.1885 56.5759-20.1056L43.6722-7.21738Q40.556-4.1167 36.8516-3.08906Q33.1472-2.06143 29.4261-3.09683Q25.7051-4.13223 22.6044-7.23291Q19.4882-10.3824 18.4361-14.1035Q17.3841-17.8245 18.404-21.5367Q19.4238-25.2488 22.54-28.3162L27.6567-33.4329Q26.5582-35.9695 26.2209-38.9011Q25.8836-41.8326 26.5159-44.489L16.1176-34.1372Q11.2104-29.2944 9.5936-23.3963Q7.97676-17.4982 9.60913-11.6001Q11.2415-5.70205 16.1664-0.810449Q21.058 4.08115 26.9561 5.72241Q32.8542 7.36367 38.7445 5.73018Q44.6349 4.09668 49.4932-0.761621L62.9983-14.2846Q67.8566-19.1429 69.4901-25.0243Q71.1236-30.9058 69.4824-36.8127Q67.8411-42.7197 62.9495-47.6113Q61.509-49.0519 59.396-50.226Q57.283-51.4001 54.4906-52.1215ZM47.1818-18.9279L54.0593-25.8409Q51.1848-26.2826 48.9419-27.3025Q46.6991-28.3224 45.1942-29.8605Q42.078-32.9768 41.026-36.6978Q39.9739-40.4188 40.9938-44.131Q42.0137-47.8432 45.0966-50.9105L58.0003-63.7987Q61.0677-66.9149 64.7887-67.9348Q68.5098-68.9547 72.2308-67.9271Q75.9519-66.8994 79.0681-63.7832Q82.1843-60.6337 83.2286-56.9126Q84.2729-53.1916 83.2363-49.4872Q82.1998-45.7828 79.1324-42.6999L74.0157-37.5832Q75.1143-35.0466 75.4516-32.115Q75.7889-29.1835 75.1565-26.5271L85.5549-36.8789Q90.4287-41.7217 92.0544-47.6198Q93.6802-53.5179 92.0389-59.416Q90.3977-65.3141 85.5061-70.2057Q80.5989-75.1461 74.7086-76.7629Q68.8183-78.3798 62.9279-76.7463Q57.0376-75.1128 52.1793-70.2545L38.6741-56.7315Q33.8158-51.8732 32.1823-45.9996Q30.5488-40.1259 32.1901-34.2111Q33.8313-28.2964 38.7229-23.4048Q40.1635-21.9643 42.2598-20.7901Q44.3562-19.616 47.1818-18.9279Z"/>
  </g>
  <g id="Medium-S" transform="matrix(1 0 0 1 1696.1 696)">
   <path d="M53.3047-51.8789L46.8926-45.4043Q50.043-44.9424 52.3296-43.8989Q54.6162-42.8555 56.1885-41.2432Q59.3721-38.0596 60.4399-34.2476Q61.5078-30.4355 60.4644-26.6436Q59.4209-22.8516 56.2861-19.708L43.5576-6.98828Q40.374-3.81348 36.582-2.76562Q32.79-1.71777 28.978-2.77002Q25.166-3.82227 21.9912-6.99707Q18.8076-10.2207 17.7354-14.0327Q16.6631-17.8447 17.7065-21.6411Q18.75-25.4375 21.9336-28.5723L27.6904-34.3291Q26.666-36.6973 26.3691-39.3525Q26.0723-42.0078 26.5361-44.4014L16.0098-33.9014Q11.1768-29.126 9.5835-23.3188Q7.99023-17.5117 9.59229-11.7046Q11.1943-5.89746 16.0586-1.07324Q20.8828 3.75098 26.6899 5.36865Q32.4971 6.98633 38.2998 5.37305Q44.1025 3.75977 48.8867-1.02441L62.21-14.3789Q66.9941-19.1631 68.6074-24.9502Q70.2207-30.7373 68.603-36.5601Q66.9854-42.3828 62.1611-47.207Q60.6465-48.7217 58.4863-49.916Q56.3262-51.1104 53.3047-51.8789ZM47.5996-19.2109L53.9717-25.6455Q50.8613-26.1074 48.5747-27.1509Q46.2881-28.1943 44.7158-29.8066Q41.5322-32.9902 40.46-36.8022Q39.3877-40.6143 40.4312-44.4106Q41.4746-48.207 44.6182-51.3418L57.3467-64.0615Q60.4814-67.2451 64.2935-68.2886Q68.1055-69.332 71.9175-68.2842Q75.7295-67.2363 78.9131-64.0527Q82.0967-60.8291 83.1646-57.0171Q84.2324-53.2051 83.1689-49.4131Q82.1055-45.6211 78.9707-42.4775L73.2139-36.7207Q74.2383-34.3525 74.5352-31.6973Q74.832-29.042 74.3682-26.6484L84.8945-37.1484Q89.6875-41.9238 91.2964-47.731Q92.9053-53.5381 91.2876-59.3452Q89.6699-65.1523 84.8457-69.9766Q80.0127-74.8496 74.21-76.4429Q68.4072-78.0361 62.6045-76.4229Q56.8018-74.8096 52.0176-70.0254L38.6943-56.6709Q33.9102-51.8867 32.2969-46.104Q30.6836-40.3213 32.3013-34.4941Q33.9189-28.667 38.7432-23.8428Q40.2578-22.3281 42.3979-21.1338Q44.5381-19.9395 47.5996-19.2109Z"/>
  </g>
  <g id="Regular-S" transform="matrix(1 0 0 1 1399.89 696)">
   <path d="M51.7578-51.5625L45.9961-45.7031Q49.4629-45.2148 51.8066-44.1406Q54.1504-43.0664 55.8105-41.3574Q59.082-38.0859 60.1807-34.1553Q61.2793-30.2246 60.2051-26.3184Q59.1309-22.4121 55.9082-19.1895L43.4082-6.68945Q40.1367-3.41797 36.2305-2.34375Q32.3242-1.26953 28.3936-2.34375Q24.4629-3.41797 21.1914-6.68945Q17.9199-10.0098 16.8213-13.9404Q15.7227-17.8711 16.7969-21.7773Q17.8711-25.6836 21.1426-28.9062L27.7344-35.498Q26.8066-37.6465 26.5625-39.9414Q26.3184-42.2363 26.5625-44.2871L15.8691-33.5938Q11.1328-28.9062 9.57031-23.2178Q8.00781-17.5293 9.57031-11.8408Q11.1328-6.15234 15.918-1.41602Q20.6543 3.32031 26.3428 4.90723Q32.0312 6.49414 37.7197 4.90723Q43.4082 3.32031 48.0957-1.36719L61.1816-14.502Q65.8691-19.1895 67.4561-24.8535Q69.043-30.5176 67.4561-36.2305Q65.8691-41.9434 61.1328-46.6797Q59.5215-48.291 57.2998-49.5117Q55.0781-50.7324 51.7578-51.5625ZM48.1445-19.5801L53.8574-25.3906Q50.4395-25.8789 48.0957-26.9531Q45.752-28.0273 44.0918-29.7363Q40.8203-33.0078 39.7217-36.9385Q38.623-40.8691 39.6973-44.7754Q40.7715-48.6816 43.9941-51.9043L56.4941-64.4043Q59.7168-67.6758 63.6475-68.75Q67.5781-69.8242 71.5088-68.75Q75.4395-67.6758 78.7109-64.4043Q81.9824-61.084 83.0811-57.1533Q84.1797-53.2227 83.0811-49.3164Q81.9824-45.4102 78.7598-42.1875L72.168-35.5957Q73.0957-33.4473 73.3398-31.1523Q73.584-28.8574 73.3398-26.8066L84.0332-37.5Q88.7207-42.1875 90.3076-47.876Q91.8945-53.5645 90.3076-59.2529Q88.7207-64.9414 83.9844-69.6777Q79.248-74.4629 73.5596-76.0254Q67.8711-77.5879 62.1826-76.001Q56.4941-74.4141 51.8066-69.7266L38.7207-56.5918Q34.0332-51.9043 32.4463-46.2402Q30.8594-40.5762 32.4463-34.8633Q34.0332-29.1504 38.7695-24.4141Q40.3809-22.8027 42.5781-21.582Q44.7754-20.3613 48.1445-19.5801Z"/>
  </g>
  <g id="Light-S" transform="matrix(1 0 0 1 1104.26 696)">
   <path d="M48.246-51.1386L43.6953-46.5357Q47.7676-46.3804 50.5578-45.238Q53.348-44.0956 55.3866-42.0235Q58.7794-38.6309 59.9083-34.5111Q61.0372-30.3912 59.8948-26.2881Q58.7524-22.185 55.3632-18.7958L42.8935-6.32629Q39.4707-2.9185 35.3677-1.78375Q31.2648-0.649007 27.1524-1.75349Q23.04-2.85797 19.6475-6.23525Q16.2549-9.67687 15.126-13.7891Q13.9971-17.9014 15.1319-22.0044Q16.2666-26.1075 19.6894-29.4965L27.9462-37.7383Q27.2456-39.3267 27.0696-41.1448Q26.8936-42.9629 27.183-44.6655L15.5665-33.0338Q11.057-28.5581 9.54755-23.1119Q8.03808-17.6656 9.53242-12.2041Q11.0268-6.7426 15.6001-2.20311Q20.1548 2.35163 25.6087 3.85526Q31.0626 5.35889 36.5088 3.84013Q41.9551 2.32137 46.4307-2.15429L59.5014-15.2588Q63.9771-19.7344 65.5034-25.1639Q67.0298-30.5934 65.5186-36.0715Q64.0073-41.5497 59.4678-46.0894Q57.4781-48.0792 54.8401-49.3604Q52.2021-50.6416 48.246-51.1386ZM49.4916-20.004L54.0087-24.5733Q49.9702-24.7286 47.1876-25.8709Q44.4049-27.0131 42.3663-29.0855Q38.9737-32.4781 37.8448-36.598Q36.716-40.7178 37.8507-44.8208Q38.9854-48.9237 42.3744-52.313L54.8594-64.7827Q58.2486-68.1905 62.3685-69.3253Q66.4884-70.46 70.6006-69.3555Q74.7129-68.251 78.0904-64.8735Q81.498-61.4471 82.6193-57.3273Q83.7407-53.2074 82.5891-49.1044Q81.4374-45.0015 78.0485-41.6122L69.8067-33.3707Q70.4923-31.7823 70.6758-29.9642Q70.8593-28.1461 70.5546-26.4435L82.1866-38.0753Q86.662-42.5507 88.1809-47.997Q89.6998-53.4434 88.1961-58.9048Q86.6923-64.3661 82.1528-68.9059Q77.5981-73.4942 72.1367-74.9811Q66.6753-76.4679 61.2291-74.949Q55.7828-73.4301 51.3222-68.9547L38.2515-55.8502Q33.7608-51.3746 32.2419-45.9451Q30.7231-40.5156 32.2268-35.0374Q33.7306-29.5591 38.2851-25.0196Q40.2598-23.0298 42.8884-21.7486Q45.517-20.4674 49.4916-20.004Z"/>
  </g>
  <g id="Thin-S" transform="matrix(1 0 0 1 808.985 696)">
   <path d="M43.6013-50.5779L40.6524-47.637Q45.5255-47.9219 48.9062-46.6893Q52.2868-45.4568 54.8259-42.9044Q58.3791-39.3517 59.5481-34.9816Q60.717-30.6115 59.4845-26.2481Q58.252-21.8846 54.6424-18.2751L42.2127-5.84599Q38.5898-2.25791 34.2266-1.04311Q29.8635 0.171686 25.5108-0.972822Q21.1581-2.11733 17.6055-5.63453Q14.0529-9.23659 12.8839-13.589Q11.715-17.9414 12.9298-22.3048Q14.1446-26.6682 17.7675-30.2772L28.2264-40.7012Q27.8261-41.549 27.7403-42.7364Q27.6544-43.9239 28.0037-45.166L15.1663-32.2931Q10.9568-28.0976 9.51745-22.9718Q8.0781-17.8459 9.4823-12.6846Q10.8865-7.52327 15.1796-3.24412Q19.4942 1.07048 24.6378 2.46395Q29.7814 3.85742 34.9073 2.42881Q40.0332 1.00019 44.2286-3.19529L57.2791-16.2598Q61.4746-20.4552 62.9209-25.5744Q64.3673-30.6936 62.9561-35.8613Q61.5449-41.029 57.2657-45.3088Q54.7755-47.799 51.5869-49.1603Q48.3983-50.5216 43.6013-50.5779ZM51.2733-20.5647L54.2089-23.4922Q49.3497-23.2073 45.9864-24.4396Q42.6232-25.6718 40.0841-28.2248Q36.5315-31.7775 35.3626-36.1476Q34.1937-40.5177 35.4085-44.8808Q36.6233-49.244 40.2322-52.8535L52.6974-65.2832Q56.3069-68.8713 60.677-70.0861Q65.0471-71.3009 69.3995-70.1564Q73.7519-69.0119 77.2697-65.4941Q80.8572-61.9275 82.0087-57.5573Q83.1602-53.1872 81.9384-48.8241Q80.7166-44.461 77.1077-40.8514L66.6837-30.428Q67.0491-29.5802 67.1524-28.3928Q67.2556-27.2053 66.8709-25.9632L79.7444-38.8361Q83.9393-43.031 85.3682-48.1571Q86.7971-53.2833 85.4033-58.4443Q84.0096-63.6053 79.7304-67.8851Q75.4158-72.2131 70.2548-73.5998Q65.0938-74.9866 59.9679-73.5577Q54.8421-72.1288 50.6814-67.9339L37.6309-54.8694Q33.4006-50.6739 31.9717-45.5548Q30.5428-40.4356 31.9365-35.2676Q33.3303-30.0996 37.6443-25.8204Q40.0997-23.3302 43.2987-21.9689Q46.4978-20.6076 51.2733-20.5647Z"/>
  </g>
  <g id="Ultralight-S" transform="matrix(1 0 0 1 513.007 696)">
   <path d="M41.2224-50.2907L39.0938-48.201Q44.3771-48.7114 48.0602-47.4327Q51.7433-46.154 54.5387-43.3556Q58.1741-39.7209 59.3636-35.2226Q60.553-30.7243 59.2743-26.2276Q57.9956-21.7308 54.2732-18.0084L41.864-5.59998Q38.1386-1.91956 33.6422-0.663757Q29.1458 0.592041 24.67-0.572968Q20.1942-1.73798 16.5596-5.32684Q12.925-9.01108 11.7355-13.4865Q10.5461-17.9619 11.8019-22.4586Q13.0577-26.9554 16.7831-30.677L28.3699-42.2188Q28.1235-42.6872 28.0838-43.5516Q28.0441-44.416 28.4241-45.4224L14.9612-31.9138Q10.9055-27.8618 9.50203-22.9Q8.0986-17.9382 9.45663-12.9307Q10.8147-7.92313 14.9643-3.77731Q19.1559 0.414276 24.1405 1.75133Q29.1252 3.08838 34.087 1.70593Q39.0488 0.323486 43.1007-3.72849L56.1409-16.7725Q60.1929-20.8244 61.5982-25.7847Q63.0035-30.7449 61.6436-35.7536Q60.2837-40.7623 56.1378-44.9089Q53.3913-47.6555 49.9207-49.0578Q46.45-50.4601 41.2224-50.2907ZM52.1858-20.8519L54.3114-22.9385Q49.0318-22.4281 45.3712-23.7064Q41.7107-24.9847 38.9153-27.784Q35.2806-31.4186 34.0912-35.9169Q32.9018-40.4152 34.1576-44.9116Q35.4134-49.408 39.135-53.1303L51.59-65.5396Q55.3123-69.22 59.8106-70.4758Q64.3089-71.7316 68.7843-70.5666Q73.2597-69.4016 76.8494-65.8119Q80.529-62.1735 81.6959-57.6752Q82.8629-53.1769 81.6051-48.6805Q80.3474-44.1841 76.6258-40.4617L65.0841-28.9207Q65.2855-28.4523 65.3477-27.5879Q65.4099-26.7235 64.9841-25.7172L78.4935-39.2258Q82.5447-43.277 83.9275-48.2391Q85.3104-53.2013 83.9729-58.2085Q82.6355-63.2156 78.4897-67.3622Q74.2981-71.5569 69.2909-72.8924Q64.2838-74.2279 59.322-72.8451Q54.3602-71.4622 50.3532-67.411L37.3131-54.3671Q33.2161-50.3151 31.8333-45.3548Q30.4504-40.3946 31.7879-35.3855Q33.1253-30.3764 37.3161-26.2306Q40.0177-23.484 43.5089-22.0818Q47.0001-20.6795 52.1858-20.8519Z"/>
  </g>
 </g>
</svg>
