<?xml version="1.0" encoding="UTF-8" standalone="no"?><!DOCTYPE svg PUBLIC "-//W3C//DTD SVG 1.1//EN" "http://www.w3.org/Graphics/SVG/1.1/DTD/svg11.dtd"><svg width="100%" height="100%" viewBox="0 0 13750 9167" version="1.1" xmlns="http://www.w3.org/2000/svg" xmlns:xlink="http://www.w3.org/1999/xlink" xml:space="preserve" xmlns:serif="http://www.serif.com/" style="fill-rule:evenodd;clip-rule:evenodd;"><g id="Notes"><rect id="artboard" x="0" y="0" width="13750" height="9166.67" style="fill:#fff;"/><path d="M1095.83,1216.67l11554.2,-0" style="fill:none;fill-rule:nonzero;stroke:#000;stroke-width:2.08px;"/><text x="1095.83px" y="1341.67px" style="font-family:'LucidaGrande-Bold', 'Lucida Grande', sans-serif;font-weight:600;font-size:54.167px;">Weight/Scale Variations</text><text x="2209.88px" y="1341.67px" style="font-family:'LucidaGrande', 'Lucida Grande', sans-serif;font-weight:500;font-size:54.167px;">Ultralight</text><text x="3509.86px" y="1341.67px" style="font-family:'LucidaGrande', 'Lucida Grande', sans-serif;font-weight:500;font-size:54.167px;">Thin</text><text x="4738.61px" y="1341.67px" style="font-family:'LucidaGrande', 'Lucida Grande', sans-serif;font-weight:500;font-size:54.167px;">Light</text><text x="5941.22px" y="1341.67px" style="font-family:'LucidaGrande', 'Lucida Grande', sans-serif;font-weight:500;font-size:54.167px;">Regular</text><text x="7171.95px" y="1341.67px" style="font-family:'LucidaGrande', 'Lucida Grande', sans-serif;font-weight:500;font-size:54.167px;">Medium</text><text x="8392.28px" y="1341.67px" style="font-family:'LucidaGrande', 'Lucida Grande', sans-serif;font-weight:500;font-size:54.167px;">Semibold</text><text x="9692.83px" y="1341.67px" style="font-family:'LucidaGrande', 'Lucida Grande', sans-serif;font-weight:500;font-size:54.167px;">Bold</text><text x="10908.1px" y="1341.67px" style="font-family:'LucidaGrande', 'Lucida Grande', sans-serif;font-weight:500;font-size:54.167px;">Heavy</text><text x="12154.4px" y="1341.67px" style="font-family:'LucidaGrande', 'Lucida Grande', sans-serif;font-weight:500;font-size:54.167px;">Black</text><path d="M1095.83,7929.17l11554.2,-0" style="fill:none;fill-rule:nonzero;stroke:#000;stroke-width:2.08px;"/><g><path d="M1134.37,8057.62c4.503,0 8.735,-0.854 12.695,-2.563c3.961,-1.709 7.453,-4.083 10.478,-7.121c3.024,-3.038 5.398,-6.537 7.121,-10.498c1.722,-3.96 2.584,-8.179 2.584,-12.655c-0,-4.476 -0.862,-8.694 -2.584,-12.654c-1.723,-3.961 -4.103,-7.46 -7.141,-10.498c-3.039,-3.039 -6.538,-5.412 -10.498,-7.121c-3.961,-1.709 -8.193,-2.563 -12.696,-2.563c-4.476,-0 -8.694,0.854 -12.654,2.563c-3.961,1.709 -7.447,4.082 -10.458,7.121c-3.011,3.038 -5.378,6.537 -7.1,10.498c-1.723,3.96 -2.584,8.178 -2.584,12.654c-0,4.476 0.861,8.695 2.584,12.655c1.722,3.961 4.096,7.46 7.121,10.498c3.024,3.038 6.517,5.412 10.477,7.121c3.961,1.709 8.179,2.563 12.655,2.563Zm-0,-6.185c-3.689,0 -7.141,-0.685 -10.356,-2.054c-3.214,-1.37 -6.035,-3.276 -8.463,-5.717c-2.428,-2.442 -4.327,-5.277 -5.697,-8.505c-1.37,-3.228 -2.055,-6.686 -2.055,-10.376c0,-3.689 0.678,-7.147 2.035,-10.376c1.356,-3.228 3.248,-6.062 5.676,-8.504c2.428,-2.441 5.249,-4.347 8.464,-5.717c3.214,-1.37 6.666,-2.055 10.355,-2.055c3.717,0 7.182,0.685 10.396,2.055c3.215,1.37 6.043,3.276 8.484,5.717c2.442,2.442 4.354,5.276 5.738,8.504c1.383,3.229 2.075,6.687 2.075,10.376c-0,3.69 -0.685,7.148 -2.055,10.376c-1.37,3.228 -3.269,6.063 -5.697,8.505c-2.427,2.441 -5.255,4.347 -8.484,5.717c-3.228,1.369 -6.7,2.054 -10.416,2.054Zm-14.974,-26.652c-0,0.896 0.285,1.621 0.854,2.177c0.57,0.556 1.33,0.835 2.279,0.835l8.789,-0l0,8.829c0,0.895 0.271,1.635 0.814,2.218c0.542,0.583 1.275,0.875 2.197,0.875c0.895,-0 1.635,-0.292 2.218,-0.875c0.583,-0.583 0.875,-1.323 0.875,-2.218l-0,-8.829l8.788,-0c0.923,-0 1.669,-0.279 2.239,-0.835c0.569,-0.556 0.854,-1.281 0.854,-2.177c-0,-0.922 -0.285,-1.668 -0.854,-2.238c-0.57,-0.569 -1.316,-0.854 -2.239,-0.854l-8.788,-0l-0,-8.789c-0,-0.922 -0.292,-1.675 -0.875,-2.258c-0.583,-0.584 -1.323,-0.875 -2.218,-0.875c-0.922,-0 -1.655,0.291 -2.197,0.875c-0.543,0.583 -0.814,1.336 -0.814,2.258l0,8.789l-8.789,-0c-0.949,-0 -1.709,0.285 -2.279,0.854c-0.569,0.57 -0.854,1.316 -0.854,2.238Z" style="fill-rule:nonzero;"/></g><g><path d="M1223.23,8066.29c5.67,0 11.007,-1.085 16.012,-3.255c5.005,-2.17 9.42,-5.168 13.245,-8.992c3.824,-3.825 6.822,-8.24 8.992,-13.245c2.17,-5.005 3.255,-10.342 3.255,-16.012c0,-5.669 -1.085,-11.006 -3.255,-16.011c-2.17,-5.005 -5.168,-9.42 -8.992,-13.245c-3.825,-3.825 -8.247,-6.822 -13.265,-8.992c-5.019,-2.17 -10.363,-3.255 -16.032,-3.255c-5.67,-0 -11.007,1.085 -16.012,3.255c-5.005,2.17 -9.413,5.167 -13.224,8.992c-3.812,3.825 -6.802,8.24 -8.972,13.245c-2.171,5.005 -3.256,10.342 -3.256,16.011c0,5.67 1.085,11.007 3.256,16.012c2.17,5.005 5.167,9.42 8.992,13.245c3.825,3.824 8.24,6.822 13.245,8.992c5.005,2.17 10.342,3.255 16.011,3.255Zm0,-6.917c-4.801,0 -9.291,-0.895 -13.468,-2.686c-4.178,-1.79 -7.847,-4.265 -11.007,-7.426c-3.16,-3.16 -5.629,-6.829 -7.405,-11.006c-1.777,-4.178 -2.666,-8.667 -2.666,-13.469c0,-4.801 0.889,-9.29 2.666,-13.468c1.776,-4.177 4.238,-7.853 7.385,-11.027c3.147,-3.174 6.809,-5.649 10.986,-7.426c4.178,-1.777 8.667,-2.665 13.469,-2.665c4.801,-0 9.29,0.888 13.468,2.665c4.177,1.777 7.853,4.252 11.027,7.426c3.174,3.174 5.656,6.85 7.446,11.027c1.791,4.178 2.686,8.667 2.686,13.468c0,4.802 -0.888,9.291 -2.665,13.469c-1.777,4.177 -4.246,7.846 -7.406,11.007c-3.16,3.16 -6.836,5.635 -11.027,7.425c-4.191,1.791 -8.687,2.686 -13.489,2.686Zm-18.88,-34.587c0,0.977 0.326,1.777 0.977,2.401c0.651,0.624 1.492,0.936 2.522,0.936l11.963,0l0,12.004c0,1.03 0.312,1.865 0.936,2.502c0.624,0.638 1.424,0.956 2.401,0.956c1.031,0 1.865,-0.318 2.502,-0.956c0.638,-0.637 0.956,-1.472 0.956,-2.502l0,-12.004l12.004,0c1.031,0 1.865,-0.312 2.503,-0.936c0.637,-0.624 0.956,-1.424 0.956,-2.401c-0,-1.03 -0.319,-1.865 -0.956,-2.502c-0.638,-0.638 -1.472,-0.956 -2.503,-0.956l-12.004,-0l0,-11.963c0,-1.058 -0.318,-1.906 -0.956,-2.543c-0.637,-0.638 -1.471,-0.956 -2.502,-0.956c-0.977,-0 -1.777,0.325 -2.401,0.976c-0.624,0.651 -0.936,1.492 -0.936,2.523l0,11.963l-11.963,-0c-1.058,-0 -1.905,0.318 -2.543,0.956c-0.637,0.637 -0.956,1.472 -0.956,2.502Z" style="fill-rule:nonzero;"/></g><g><path d="M1335.9,8077.77c5.805,-0 11.346,-0.902 16.622,-2.706c5.276,-1.804 10.125,-4.333 14.547,-7.589c4.421,-3.255 8.266,-7.093 11.535,-11.515c3.269,-4.422 5.805,-9.277 7.609,-14.567c1.804,-5.29 2.706,-10.824 2.706,-16.602c0,-5.805 -0.902,-11.345 -2.706,-16.621c-1.804,-5.277 -4.34,-10.126 -7.609,-14.547c-3.269,-4.422 -7.114,-8.267 -11.535,-11.536c-4.422,-3.269 -9.278,-5.805 -14.567,-7.609c-5.29,-1.804 -10.838,-2.706 -16.643,-2.706c-5.805,0 -11.345,0.902 -16.622,2.706c-5.276,1.804 -10.118,4.34 -14.526,7.609c-4.408,3.269 -8.247,7.114 -11.515,11.536c-3.269,4.421 -5.799,9.27 -7.589,14.547c-1.79,5.276 -2.686,10.816 -2.686,16.621c0,5.778 0.902,11.312 2.706,16.602c1.804,5.29 4.334,10.145 7.589,14.567c3.255,4.422 7.094,8.26 11.515,11.515c4.422,3.256 9.271,5.785 14.547,7.589c5.276,1.804 10.817,2.706 16.622,2.706Zm-0,-7.568c-5.018,-0 -9.8,-0.767 -14.343,-2.299c-4.544,-1.533 -8.701,-3.683 -12.472,-6.45c-3.77,-2.767 -7.046,-6.042 -9.826,-9.826c-2.781,-3.785 -4.931,-7.949 -6.45,-12.492c-1.519,-4.544 -2.279,-9.325 -2.279,-14.344c0,-5.045 0.76,-9.84 2.279,-14.383c1.519,-4.544 3.662,-8.708 6.429,-12.492c2.767,-3.785 6.036,-7.06 9.806,-9.827c3.771,-2.767 7.928,-4.91 12.472,-6.429c4.544,-1.519 9.325,-2.279 14.343,-2.279c5.046,0 9.84,0.76 14.384,2.279c4.544,1.519 8.708,3.662 12.492,6.429c3.784,2.767 7.06,6.042 9.827,9.827c2.767,3.784 4.916,7.948 6.449,12.492c1.533,4.543 2.299,9.338 2.299,14.383c0.027,5.019 -0.719,9.8 -2.238,14.344c-1.519,4.543 -3.669,8.707 -6.449,12.492c-2.781,3.784 -6.063,7.059 -9.847,9.826c-3.784,2.767 -7.948,4.917 -12.492,6.45c-4.544,1.532 -9.339,2.299 -14.384,2.299Zm-24.048,-45.411c0,1.058 0.36,1.933 1.078,2.625c0.719,0.692 1.635,1.038 2.747,1.038l16.439,-0l-0,16.479c-0,1.112 0.346,2.028 1.037,2.747c0.692,0.718 1.58,1.078 2.666,1.078c1.112,-0 2.027,-0.353 2.746,-1.058c0.719,-0.705 1.078,-1.628 1.078,-2.767l0,-16.48l16.48,0c1.112,0 2.021,-0.345 2.726,-1.037c0.705,-0.692 1.058,-1.567 1.058,-2.625c-0,-1.139 -0.353,-2.061 -1.058,-2.766c-0.705,-0.706 -1.614,-1.058 -2.726,-1.058l-16.48,-0l0,-16.439c0,-1.14 -0.359,-2.069 -1.078,-2.788c-0.719,-0.718 -1.634,-1.078 -2.746,-1.078c-1.086,0 -1.974,0.36 -2.666,1.078c-0.691,0.719 -1.037,1.648 -1.037,2.788l-0,16.439l-16.439,-0c-1.139,-0 -2.062,0.352 -2.767,1.057c-0.705,0.706 -1.058,1.628 -1.058,2.767Z" style="fill-rule:nonzero;"/></g><text x="1095.83px" y="8137.5px" style="font-family:'LucidaGrande-Bold', 'Lucida Grande', sans-serif;font-weight:600;font-size:54.167px;">Design Variations</text><text x="1095.83px" y="8212.5px" style="font-family:'LucidaGrande', 'Lucida Grande', sans-serif;font-weight:500;font-size:54.167px;">Symbols are supported in up to nine weights and three scales.</text><text x="1095.83px" y="8287.5px" style="font-family:'LucidaGrande', 'Lucida Grande', sans-serif;font-weight:500;font-size:54.167px;">For optimal layout with text and other symbols, vertically align</text><text x="1095.83px" y="8362.5px" style="font-family:'LucidaGrande', 'Lucida Grande', sans-serif;font-weight:500;font-size:54.167px;">symbols with the adjacent text.</text><path d="M3233.33,7995.83l0,58.334" style="fill:none;fill-rule:nonzero;stroke:#00aeef;stroke-width:2.08px;"/><g><path d="M3247.13,8054.82c1.085,-0 1.926,-0.231 2.523,-0.692c0.597,-0.461 1.085,-1.261 1.465,-2.401l5.249,-14.363l24.007,-0l5.249,14.363c0.38,1.14 0.868,1.94 1.465,2.401c0.597,0.461 1.424,0.692 2.482,0.692c1.085,-0 1.946,-0.299 2.584,-0.895c0.637,-0.597 0.956,-1.411 0.956,-2.442c0,-0.624 -0.149,-1.356 -0.447,-2.197l-19.084,-50.822c-0.488,-1.248 -1.153,-2.184 -1.994,-2.808c-0.841,-0.624 -1.912,-0.936 -3.214,-0.936c-2.523,0 -4.232,1.235 -5.127,3.703l-19.084,50.904c-0.298,0.84 -0.448,1.573 -0.448,2.197c0,1.031 0.305,1.838 0.916,2.421c0.61,0.583 1.444,0.875 2.502,0.875Zm11.231,-23.641l9.887,-27.385l0.204,0l9.888,27.385l-19.979,-0Z" style="fill-rule:nonzero;"/></g><path d="M3304.99,7995.83l-0.001,58.334" style="fill:none;fill-rule:nonzero;stroke:#00aeef;stroke-width:2.08px;"/><text x="3233.33px" y="8137.5px" style="font-family:'LucidaGrande-Bold', 'Lucida Grande', sans-serif;font-weight:600;font-size:54.167px;">Margins</text><text x="3233.33px" y="8212.5px" style="font-family:'LucidaGrande', 'Lucida Grande', sans-serif;font-weight:500;font-size:54.167px;">Leading and trailing margins on the left and right side of each symbol</text><text x="3233.33px" y="8287.5px" style="font-family:'LucidaGrande', 'Lucida Grande', sans-serif;font-weight:500;font-size:54.167px;">can be adjusted by modifying the x-location of the margin guidelines.</text><text x="3233.33px" y="8362.5px" style="font-family:'LucidaGrande', 'Lucida Grande', sans-serif;font-weight:500;font-size:54.167px;">Modiﬁcations are automatically applied proportionally to all</text><text x="3233.33px" y="8437.5px" style="font-family:'LucidaGrande', 'Lucida Grande', sans-serif;font-weight:500;font-size:54.167px;">scales and weights.</text><g><path d="M5382.67,8061.94l7.08,7.121c1.791,1.818 3.683,2.659 5.677,2.523c1.993,-0.136 3.953,-1.275 5.879,-3.418l44.556,-49.113l-4.028,-4.069l-44.231,48.665c-0.732,0.841 -1.471,1.316 -2.217,1.425c-0.746,0.108 -1.607,-0.326 -2.584,-1.302l-4.883,-4.843c-0.976,-0.976 -1.404,-1.837 -1.282,-2.583c0.123,-0.746 0.604,-1.499 1.445,-2.259l47.811,-45.003l-4.069,-4.028l-48.299,45.369c-2.062,1.899 -3.167,3.839 -3.317,5.819c-0.149,1.98 0.672,3.879 2.462,5.696Zm26.734,-75.805c-0.869,0.841 -1.357,1.804 -1.465,2.889c-0.109,1.085 0.081,2.034 0.569,2.848c0.489,0.76 1.201,1.329 2.137,1.709c0.935,0.38 2.082,0.407 3.438,0.081c3.038,-0.705 6.117,-0.996 9.237,-0.874c3.119,0.122 6.171,1.159 9.155,3.112l-2.441,6.063c-0.706,1.736 -0.902,3.249 -0.59,4.537c0.311,1.289 1.024,2.503 2.136,3.642l9.562,9.644c1.003,1.03 1.98,1.627 2.929,1.79c0.95,0.163 2.008,0.136 3.174,-0.082l4.436,-0.813l2.767,2.807l-0.163,2.32c-0.082,1.03 0.047,1.98 0.386,2.848c0.339,0.868 1.011,1.804 2.015,2.808l3.173,3.092c1.004,1.004 2.096,1.526 3.276,1.567c1.18,0.04 2.258,-0.428 3.235,-1.404l12.125,-12.167c0.977,-0.976 1.452,-2.041 1.424,-3.194c-0.027,-1.153 -0.542,-2.231 -1.546,-3.235l-3.214,-3.173c-0.977,-1.004 -1.892,-1.689 -2.747,-2.055c-0.854,-0.366 -1.783,-0.509 -2.787,-0.428l-2.401,0.204l-2.685,-2.645l1.017,-4.679c0.271,-1.167 0.217,-2.259 -0.163,-3.276c-0.38,-1.017 -1.18,-2.136 -2.401,-3.357l-9.155,-9.114c-3.472,-3.445 -7.168,-6.029 -11.088,-7.752c-3.92,-1.722 -7.867,-2.617 -11.841,-2.685c-3.974,-0.068 -7.799,0.657 -11.474,2.177c-3.676,1.519 -7.019,3.784 -10.03,6.795Zm6.225,1.546c2.523,-1.845 5.229,-3.16 8.118,-3.947c2.889,-0.787 5.812,-1.038 8.769,-0.753c2.956,0.285 5.825,1.079 8.605,2.381c2.781,1.302 5.324,3.119 7.63,5.452l10.132,10.051c0.488,0.488 0.793,0.963 0.915,1.424c0.122,0.461 0.102,1.044 -0.061,1.75l-1.343,6.184l6.267,6.185l4.11,-0.244c0.515,-0.027 0.908,0.007 1.18,0.102c0.271,0.095 0.61,0.346 1.017,0.753l2.401,2.4l-10.173,10.173l-2.401,-2.401c-0.407,-0.407 -0.665,-0.746 -0.773,-1.017c-0.108,-0.271 -0.149,-0.678 -0.122,-1.221l0.285,-4.069l-6.226,-6.185l-6.348,1.058c-0.678,0.136 -1.213,0.156 -1.607,0.061c-0.393,-0.095 -0.847,-0.386 -1.363,-0.875l-8.341,-8.341c-0.543,-0.488 -0.848,-0.956 -0.916,-1.404c-0.067,-0.448 0.061,-1.051 0.387,-1.811l3.662,-8.707c-3.255,-3.038 -6.917,-5.141 -10.987,-6.307c-4.068,-1.167 -8.219,-1.126 -12.451,0.122c-0.325,0.081 -0.535,0.02 -0.63,-0.183c-0.095,-0.204 -0.007,-0.414 0.264,-0.631Z" style="fill-rule:nonzero;"/></g><text x="5370.83px" y="8137.5px" style="font-family:'LucidaGrande-Bold', 'Lucida Grande', sans-serif;font-weight:600;font-size:54.167px;">Exporting</text><text x="5370.83px" y="8212.5px" style="font-family:'LucidaGrande', 'Lucida Grande', sans-serif;font-weight:500;font-size:54.167px;">Symbols should be outlined when exporting to ensure the</text><text x="5370.83px" y="8287.5px" style="font-family:'LucidaGrande', 'Lucida Grande', sans-serif;font-weight:500;font-size:54.167px;">design is preserved when submitting to Xcode.</text><text id="template-version" x="12256.9px" y="8054.17px" style="font-family:'LucidaGrande', 'Lucida Grande', sans-serif;font-weight:500;font-size:54.167px;">Template v.3.0</text><text x="11881.9px" y="8129.17px" style="font-family:'LucidaGrande', 'Lucida Grande', sans-serif;font-weight:500;font-size:54.167px;">Requires Xcode 13 or greater</text><text id="descriptive-name" x="12123.5px" y="8204.17px" style="font-family:'LucidaGrande', 'Lucida Grande', sans-serif;font-weight:500;font-size:54.167px;">Generated from link</text><text x="12076.3px" y="8279.17px" style="font-family:'LucidaGrande', 'Lucida Grande', sans-serif;font-weight:500;font-size:54.167px;">Typeset at 100 points</text><text x="1095.83px" y="3025px" style="font-family:'LucidaGrande', 'Lucida Grande', sans-serif;font-weight:500;font-size:54.167px;">Small</text><text x="1095.83px" y="4816.67px" style="font-family:'LucidaGrande', 'Lucida Grande', sans-serif;font-weight:500;font-size:54.167px;">Medium</text><text x="1095.83px" y="6608.33px" style="font-family:'LucidaGrande', 'Lucida Grande', sans-serif;font-weight:500;font-size:54.167px;">Large</text></g><g id="Guides"><g id="H-reference"><path d="M1416.64,2900l11.018,0l107.044,-279.719l2.924,-0l0,-13.86l-7.947,-0l-113.039,293.579Zm44.562,-101.999l147.056,0l-3.127,-9.371l-140.804,0l-3.125,9.371Zm180.963,101.999l11.018,0l-113.023,-293.579l-5.023,-0l0,13.86l107.028,279.719Z" style="fill:#27aae1;fill-rule:nonzero;"/></g><path id="Baseline-S" d="M1095.83,2900l11554.2,0" style="fill:none;fill-rule:nonzero;stroke:#27aae1;stroke-width:2.08px;"/><path id="Capline-S" d="M1095.83,2606.42l11554.2,-0" style="fill:none;fill-rule:nonzero;stroke:#27aae1;stroke-width:2.08px;"/><g id="H-reference1" serif:id="H-reference"><path d="M1416.64,4691.67l11.018,-0l107.044,-279.72l2.924,0.001l0,-13.86l-7.947,-0.001l-113.039,293.58Zm44.562,-101.999l147.056,-0l-3.127,-9.371l-140.804,-0l-3.125,9.371Zm180.963,101.999l11.018,-0l-113.023,-293.579l-5.023,-0.001l0,13.86l107.028,279.72Z" style="fill:#27aae1;fill-rule:nonzero;"/></g><path id="Baseline-M" d="M1095.83,4691.67l11554.2,-0" style="fill:none;fill-rule:nonzero;stroke:#27aae1;stroke-width:2.08px;"/><path id="Capline-M" d="M1095.83,4398.08l11554.2,0" style="fill:none;fill-rule:nonzero;stroke:#27aae1;stroke-width:2.08px;"/><g id="H-reference2" serif:id="H-reference"><path d="M1416.64,6483.33l11.018,0l107.044,-279.719l2.924,0l0,-13.86l-7.947,0l-113.039,293.579Zm44.562,-101.998l147.056,-0l-3.127,-9.372l-140.804,0l-3.125,9.372Zm180.963,101.998l11.018,0l-113.023,-293.579l-5.023,0l0,13.86l107.028,279.719Z" style="fill:#27aae1;fill-rule:nonzero;"/></g><path id="Baseline-L" d="M1095.83,6483.33l11554.2,0" style="fill:none;fill-rule:nonzero;stroke:#27aae1;stroke-width:2.08px;"/><path id="Capline-L" d="M1095.83,6189.75l11554.2,0" style="fill:none;fill-rule:nonzero;stroke:#27aae1;stroke-width:2.08px;"/><path id="left-margin-Regular-M" d="M5778.58,4294.96l0,497.209" style="fill:none;fill-rule:nonzero;stroke:#00aeef;stroke-width:2.08px;"/><path id="right-margin-Regular-M" d="M6303.46,4294.96l0,497.209" style="fill:none;fill-rule:nonzero;stroke:#00aeef;stroke-width:2.08px;"/></g><g id="Symbols"><g id="Black-L"><path d="M12263.1,6215.84l-57.149,56.831c10.152,1.675 20.112,4.692 29.878,9.054c9.766,4.362 17.677,9.6 23.733,15.713c13.371,13.372 22.289,27.974 26.754,43.808c4.464,15.834 4.516,31.654 0.155,47.459c-4.361,15.805 -13.121,30.368 -26.279,43.688l-92.098,91.855c-13.378,13.213 -27.97,22.039 -43.775,26.48c-15.805,4.442 -31.624,4.404 -47.456,-0.111c-15.833,-4.516 -30.353,-13.377 -43.562,-26.582c-13.371,-13.433 -22.33,-28.065 -26.876,-43.897c-4.547,-15.833 -4.64,-31.692 -0.28,-47.579c4.36,-15.886 13.229,-30.408 26.607,-43.566l22.665,-22.66c-5.979,-13.762 -10.006,-29.167 -12.081,-46.213c-2.076,-17.046 -0.522,-33.386 4.661,-49.019l-69.063,68.338c-23.404,23.021 -38.958,48.612 -46.663,76.774c-7.705,28.162 -7.625,56.326 0.238,84.491c7.864,28.165 23.449,53.872 46.755,77.119c23.251,23.252 48.958,38.782 77.122,46.592c28.163,7.81 56.285,7.849 84.366,0.117c28.081,-7.732 53.713,-23.19 76.896,-46.373l96.369,-96.212c23.183,-23.183 38.641,-48.841 46.374,-76.974c7.734,-28.133 7.695,-56.256 -0.116,-84.369c-7.811,-28.113 -23.34,-53.793 -46.588,-77.041c-5.672,-5.671 -13.068,-11.062 -22.187,-16.173c-9.119,-5.111 -18.586,-8.961 -28.4,-11.55Zm-81.116,238.182l57.063,-56.744c-10.095,-1.674 -20.024,-4.692 -29.789,-9.054c-9.764,-4.361 -17.674,-9.599 -23.73,-15.713c-13.372,-13.371 -22.33,-27.974 -26.877,-43.808c-4.546,-15.834 -4.639,-31.694 -0.279,-47.58c4.36,-15.887 13.2,-30.409 26.52,-43.567l92.104,-91.855c13.158,-13.374 27.654,-22.242 43.487,-26.602c15.834,-4.36 31.667,-4.323 47.5,0.112c15.834,4.434 30.434,13.336 43.8,26.704c13.375,13.429 22.295,28.06 26.759,43.894c4.463,15.834 4.501,31.654 0.112,47.459c-4.389,15.805 -13.162,30.368 -26.321,43.688l-22.662,22.66c5.977,13.763 10.004,29.167 12.079,46.213c2.078,17.047 0.523,33.387 -4.663,49.02l69.071,-68.338c23.345,-23.022 38.842,-48.613 46.492,-76.775c7.653,-28.162 7.573,-56.326 -0.238,-84.491c-7.808,-28.165 -23.337,-53.871 -46.587,-77.12c-23.414,-23.47 -49.163,-39.055 -77.246,-46.755c-28.083,-7.7 -56.165,-7.684 -84.246,0.05c-28.081,7.73 -53.711,23.187 -76.891,46.37l-96.368,96.212c-23.187,23.183 -38.646,48.801 -46.378,76.853c-7.732,28.052 -7.693,56.175 0.116,84.369c7.81,28.194 23.34,53.915 46.592,77.163c5.667,5.67 13.046,11.061 22.139,16.172c9.093,5.111 18.573,8.932 28.441,11.463Z" style="fill-rule:nonzero;"/></g><g id="Heavy-L"><path d="M11017,6218.42l-51.427,51.284c12.022,1.519 23.221,4.554 33.598,9.105c10.377,4.551 18.938,10.241 25.684,17.07c13.852,13.852 23.09,29.03 27.714,45.535c4.622,16.504 4.659,32.987 0.109,49.45c-4.551,16.462 -13.665,31.593 -27.34,45.393l-90.569,90.382c-13.883,13.744 -29.056,22.919 -45.518,27.524c-16.463,4.605 -32.942,4.59 -49.439,-0.046c-16.496,-4.636 -31.609,-13.81 -45.337,-27.523c-13.852,-13.952 -23.121,-29.176 -27.807,-45.672c-4.685,-16.497 -4.756,-33.007 -0.213,-49.532c4.543,-16.524 13.756,-31.624 27.639,-45.3l30.146,-30.122c-5.374,-12.351 -8.956,-26.072 -10.747,-41.162c-1.79,-15.09 -0.554,-29.564 3.708,-43.422l-71.277,70.743c-22.798,22.466 -37.961,47.424 -45.489,74.873c-7.528,27.448 -7.474,54.905 0.163,82.369c7.636,27.464 22.848,52.549 45.638,75.255c22.721,22.721 47.81,37.886 75.266,45.494c27.457,7.608 54.878,7.631 82.265,0.07c27.386,-7.562 52.375,-22.639 74.966,-45.229l94.799,-94.739c22.591,-22.59 37.672,-47.589 45.241,-74.996c7.57,-27.406 7.546,-54.832 -0.071,-82.276c-7.616,-27.444 -22.777,-52.519 -45.483,-75.225c-6.397,-6.398 -14.459,-12.235 -24.184,-17.51c-9.726,-5.275 -20.404,-9.206 -32.035,-11.793Zm-61.539,232.672l51.301,-51.158c-11.938,-1.519 -23.091,-4.554 -33.46,-9.105c-10.37,-4.551 -18.927,-10.241 -25.672,-17.07c-13.853,-13.852 -23.122,-29.031 -27.807,-45.535c-4.686,-16.504 -4.757,-33.019 -0.214,-49.543c4.543,-16.524 13.714,-31.624 27.514,-45.3l90.592,-90.383c13.675,-13.868 28.765,-23.073 45.271,-27.616c16.503,-4.543 33.003,-4.528 49.5,0.046c16.497,4.574 31.664,13.779 45.5,27.616c13.866,13.936 23.108,29.156 27.725,45.661c4.616,16.504 4.632,32.987 0.046,49.45c-4.584,16.462 -13.713,31.593 -27.388,45.393l-30.125,30.122c5.358,12.351 8.938,26.071 10.738,41.162c1.797,15.09 0.557,29.564 -3.721,43.421l71.3,-70.742c22.714,-22.467 37.821,-47.424 45.321,-74.873c7.5,-27.449 7.445,-54.905 -0.163,-82.369c-7.608,-27.464 -22.765,-52.549 -45.471,-75.255c-22.844,-22.929 -47.968,-38.146 -75.371,-45.651c-27.402,-7.503 -54.797,-7.474 -82.183,0.087c-27.386,7.561 -52.367,22.637 -74.942,45.229l-94.799,94.739c-22.606,22.59 -37.69,47.558 -45.252,74.902c-7.562,27.345 -7.538,54.771 0.07,82.277c7.608,27.506 22.773,52.612 45.494,75.318c6.382,6.398 14.419,12.234 24.11,17.51c9.691,5.275 20.386,9.164 32.086,11.667Z" style="fill-rule:nonzero;"/></g><g id="Bold-L"><path d="M9767.94,6221.62l-44.134,44.151c14.411,1.183 27.256,4.172 38.535,8.968c11.279,4.796 20.771,11.098 28.473,18.906c14.451,14.45 24.084,30.348 28.899,47.695c4.817,17.347 4.827,34.668 0.03,51.963c-4.796,17.294 -14.363,33.15 -28.7,47.568l-88.834,88.712c-14.523,14.406 -30.432,24.018 -47.726,28.836c-17.294,4.818 -34.606,4.835 -51.934,0.049c-17.329,-4.785 -33.178,-14.343 -47.547,-28.675c-14.449,-14.593 -24.103,-30.553 -28.959,-47.882c-4.856,-17.328 -4.896,-34.66 -0.118,-51.995c4.777,-17.335 14.428,-33.171 28.951,-47.507l39.74,-39.686c-4.585,-10.497 -7.597,-22.079 -9.035,-34.747c-1.438,-12.667 -0.53,-24.851 2.725,-36.552l-74.433,74.124c-22.011,21.742 -36.668,45.879 -43.971,72.411c-7.304,26.531 -7.282,53.082 0.067,79.651c7.348,26.568 22.075,50.854 44.183,72.856c22.039,22.039 46.334,36.729 72.884,44.071c26.551,7.342 53.071,7.344 79.563,0.006c26.491,-7.338 50.648,-21.919 72.471,-43.742l93.031,-93.069c21.825,-21.824 36.415,-45.975 43.771,-72.454c7.355,-26.479 7.354,-53.009 -0.004,-79.59c-7.361,-26.58 -22.043,-50.872 -44.046,-72.874c-7.398,-7.399 -16.4,-13.842 -27.007,-19.33c-10.607,-5.489 -22.899,-9.443 -36.875,-11.864Zm-36.06,225.883l43.976,-43.994c-14.305,-1.182 -27.088,-4.171 -38.349,-8.967c-11.261,-4.796 -20.743,-11.098 -28.446,-18.907c-14.45,-14.45 -24.103,-30.348 -28.959,-47.695c-4.857,-17.347 -4.896,-34.688 -0.118,-52.022c4.777,-17.335 14.375,-33.171 28.792,-47.508l88.89,-88.713c14.337,-14.487 30.179,-24.119 47.527,-28.897c17.347,-4.777 34.684,-4.793 52.012,-0.049c17.328,4.745 33.199,14.324 47.613,28.737c14.486,14.556 24.127,30.507 28.925,47.854c4.8,17.347 4.784,34.668 -0.046,51.962c-4.831,17.294 -14.415,33.15 -28.754,47.568l-39.684,39.685c4.55,10.497 7.553,22.08 9.009,34.747c1.455,12.668 0.537,24.852 -2.754,36.552l74.491,-74.123c21.903,-21.742 36.503,-45.879 43.8,-72.411c7.297,-26.532 7.275,-53.082 -0.066,-79.651c-7.342,-26.568 -22.014,-50.854 -44.017,-72.856c-22.12,-22.225 -46.443,-36.963 -72.971,-44.213c-26.528,-7.247 -53.037,-7.201 -79.529,0.138c-26.491,7.336 -50.63,21.916 -72.417,43.739l-93.032,93.069c-21.86,21.824 -36.459,45.955 -43.797,72.393c-7.338,26.439 -7.336,52.969 0.006,79.59c7.342,26.622 22.032,50.934 44.071,72.936c7.361,7.398 16.328,13.841 26.901,19.329c10.572,5.489 22.881,9.391 36.926,11.707Z" style="fill-rule:nonzero;"/></g><g id="Semibold-L"><path d="M8522.86,6223.83l-39.105,39.235c16.057,0.95 30.036,3.907 41.937,8.873c11.902,4.965 22.034,11.689 30.396,20.171c14.863,14.862 24.768,31.257 29.717,49.185c4.947,17.928 4.939,35.826 -0.025,53.694c-4.966,17.868 -14.845,34.224 -29.637,49.068l-87.64,87.561c-14.964,14.862 -31.38,24.775 -49.247,29.741c-17.868,4.965 -35.753,5.003 -53.655,0.115c-17.903,-4.888 -34.26,-14.712 -49.07,-29.47c-14.861,-15.034 -24.779,-31.503 -29.753,-49.405c-4.975,-17.902 -4.992,-35.8 -0.052,-53.694c4.939,-17.894 14.891,-34.236 29.855,-49.028l46.355,-46.278c-4.042,-9.22 -6.661,-19.329 -7.856,-30.326c-1.195,-10.997 -0.513,-21.603 2.048,-31.816l-76.61,76.455c-21.467,21.242 -35.775,44.813 -42.924,70.713c-7.149,25.9 -7.149,51.825 0.001,77.777c7.149,25.951 21.543,49.686 43.181,71.203c21.568,21.568 45.316,35.932 71.241,43.09c25.926,7.158 51.826,7.146 77.699,-0.038c25.874,-7.184 49.458,-21.423 70.753,-42.717l91.815,-91.918c21.295,-21.295 35.546,-44.862 42.754,-70.701c7.212,-25.84 7.224,-51.752 0.038,-77.738c-7.183,-25.985 -21.533,-49.737 -43.05,-71.255c-8.088,-8.088 -17.74,-14.949 -28.955,-20.584c-11.215,-5.635 -24.618,-9.606 -40.211,-11.913Zm-18.495,221.202l38.925,-39.054c-15.936,-0.95 -29.842,-3.907 -41.718,-8.872c-11.876,-4.965 -21.995,-11.689 -30.358,-20.172c-14.862,-14.862 -24.78,-31.257 -29.754,-49.185c-4.974,-17.928 -4.991,-35.839 -0.052,-53.732c4.939,-17.894 14.83,-34.237 29.674,-49.029l87.717,-87.562c14.793,-14.914 31.153,-24.84 49.081,-29.779c17.928,-4.94 35.843,-4.978 53.746,-0.116c17.903,4.863 34.258,14.699 49.067,29.51c14.914,14.983 24.832,31.438 29.754,49.366c4.922,17.928 4.885,35.826 -0.113,53.694c-5,17.867 -14.896,34.223 -29.687,49.067l-46.279,46.277c3.989,9.22 6.594,19.328 7.816,30.326c1.22,10.997 0.524,21.603 -2.087,31.816l76.687,-76.455c21.345,-21.241 35.598,-44.812 42.759,-70.713c7.158,-25.9 7.157,-51.825 -0.005,-77.776c-7.158,-25.951 -21.495,-49.686 -43.012,-71.204c-21.619,-21.74 -45.392,-36.146 -71.317,-43.217c-25.925,-7.075 -51.825,-7.02 -77.7,0.166c-25.874,7.184 -49.432,21.423 -70.676,42.716l-91.814,91.918c-21.345,21.294 -35.61,44.848 -42.794,70.662c-7.184,25.814 -7.197,51.727 -0.038,77.739c7.158,26.011 21.522,49.775 43.09,71.293c8.036,8.087 17.645,14.949 28.825,20.584c11.18,5.635 24.601,9.546 40.263,11.732Z" style="fill-rule:nonzero;"/></g><g id="Medium-L"><path d="M7279.89,6225.5l-35.293,35.507c17.305,0.773 32.145,3.707 44.518,8.8c12.373,5.094 22.991,12.138 31.854,21.132c15.175,15.174 25.287,31.945 30.336,50.314c5.049,18.368 5.027,36.704 -0.066,55.007c-5.094,18.303 -15.21,35.038 -30.348,50.205l-86.733,86.688c-15.299,15.208 -32.099,25.35 -50.402,30.426c-18.302,5.077 -36.622,5.132 -54.96,0.166c-18.337,-4.967 -35.079,-14.991 -50.223,-30.073c-15.174,-15.369 -25.293,-32.222 -30.357,-50.559c-5.063,-18.337 -5.064,-36.665 -0.002,-54.982c5.062,-18.318 15.242,-35.045 30.541,-50.182l51.37,-51.277c-3.629,-8.251 -5.949,-17.242 -6.961,-26.973c-1.011,-9.731 -0.499,-19.139 1.534,-28.225l-78.259,78.222c-21.055,20.864 -35.098,44.006 -42.13,69.426c-7.032,25.421 -7.049,50.873 -0.05,76.356c6.999,25.484 21.139,48.8 42.42,69.949c21.213,21.212 44.545,35.328 69.997,42.347c25.452,7.019 50.881,6.995 76.286,-0.072c25.406,-7.067 48.556,-21.047 69.449,-41.94l90.891,-91.045c20.892,-20.893 34.889,-44.017 41.989,-69.372c7.097,-25.355 7.121,-50.8 0.071,-76.333c-7.05,-25.534 -21.151,-48.876 -42.301,-70.027c-8.61,-8.61 -18.754,-15.789 -30.429,-21.535c-11.677,-5.747 -25.924,-9.73 -42.742,-11.95Zm-5.177,217.653l35.096,-35.309c-17.173,-0.774 -31.931,-3.708 -44.273,-8.8c-12.342,-5.093 -22.945,-12.137 -31.808,-21.133c-15.174,-15.174 -25.293,-31.945 -30.356,-50.314c-5.064,-18.368 -5.065,-36.711 -0.003,-55.028c5.062,-18.317 15.177,-35.044 30.343,-50.182l86.827,-86.69c15.138,-15.237 31.892,-25.386 50.26,-30.448c18.369,-5.062 36.722,-5.117 55.058,-0.165c18.336,4.951 35.061,14.983 50.175,30.096c15.236,15.306 25.363,32.143 30.38,50.512c5.019,18.368 4.965,36.704 -0.163,55.006c-5.131,18.302 -15.264,35.037 -30.4,50.205l-51.279,51.276c3.569,8.251 5.875,17.241 6.917,26.972c1.041,9.731 0.513,19.139 -1.584,28.226l78.358,-78.222c20.92,-20.864 34.906,-44.005 41.959,-69.426c7.053,-25.421 7.069,-50.873 0.05,-76.356c-7.02,-25.483 -21.104,-48.8 -42.254,-69.95c-21.239,-21.373 -44.593,-35.528 -70.063,-42.468c-25.469,-6.939 -50.907,-6.875 -76.312,0.192c-25.405,7.068 -48.524,21.049 -69.355,41.941l-90.891,91.045c-20.955,20.894 -34.966,44.01 -42.033,69.351c-7.068,25.34 -7.091,50.784 -0.072,76.333c7.02,25.549 21.135,48.898 42.346,70.048c8.549,8.61 18.643,15.789 30.284,21.535c11.641,5.747 25.905,9.665 42.793,11.753Z" style="fill-rule:nonzero;"/></g><g id="Regular-L"><path d="M6034.91,6227.69l-30.321,30.644c18.934,0.544 34.896,3.446 47.884,8.707c12.989,5.26 24.241,12.721 33.757,22.383c15.583,15.582 25.964,32.844 31.144,51.787c5.18,18.943 5.14,37.85 -0.121,56.72c-5.261,18.87 -15.686,36.1 -31.275,51.689l-85.551,85.549c-15.735,15.658 -33.037,26.099 -51.906,31.32c-18.87,5.222 -37.757,5.299 -56.662,0.231c-18.905,-5.068 -36.148,-15.354 -51.73,-30.858c-15.581,-15.806 -25.962,-33.162 -31.142,-52.066c-5.179,-18.904 -5.158,-37.792 0.063,-56.662c5.222,-18.87 15.7,-36.099 31.435,-51.687l57.912,-57.797c-3.092,-6.987 -5.023,-14.52 -5.794,-22.599c-0.771,-8.079 -0.483,-15.927 0.863,-23.542l-80.411,80.528c-20.517,20.369 -34.215,42.952 -41.095,67.747c-6.879,24.796 -6.917,49.63 -0.115,74.503c6.803,24.873 20.612,47.644 41.429,68.314c20.747,20.747 43.538,34.539 68.372,41.376c24.834,6.838 49.649,6.799 74.444,-0.115c24.796,-6.914 47.378,-20.556 67.749,-40.926l89.685,-89.907c20.37,-20.37 34.031,-42.917 40.983,-67.639c6.953,-24.722 6.992,-49.556 0.117,-74.501c-6.875,-24.945 -20.648,-47.753 -41.318,-68.425c-9.293,-9.292 -20.078,-16.884 -32.355,-22.776c-12.277,-5.892 -27.624,-9.891 -46.041,-11.998Zm12.195,213.024l30.101,-30.424c-18.787,-0.545 -34.655,-3.447 -47.606,-8.706c-12.95,-5.26 -24.184,-12.722 -33.699,-22.385c-15.582,-15.581 -25.962,-32.844 -31.142,-51.787c-5.18,-18.943 -5.159,-37.849 0.063,-56.718c5.222,-18.87 15.626,-36.099 31.214,-51.688l85.667,-85.551c15.589,-15.659 32.856,-26.099 51.8,-31.321c18.942,-5.222 37.865,-5.299 56.771,-0.23c18.903,5.068 36.107,15.354 51.612,30.86c15.659,15.728 26.059,33.064 31.2,52.007c5.142,18.943 5.066,37.85 -0.229,56.719c-5.297,18.87 -15.739,36.099 -31.325,51.688l-57.8,57.796c3.017,6.987 4.929,14.52 5.738,22.599c0.808,8.079 0.501,15.926 -0.921,23.541l80.529,-80.527c20.37,-20.369 34.011,-42.951 40.925,-67.747c6.914,-24.796 6.953,-49.63 0.117,-74.503c-6.839,-24.872 -20.593,-47.643 -41.263,-68.314c-20.747,-20.893 -43.557,-34.722 -68.429,-41.486c-24.872,-6.764 -49.705,-6.689 -74.5,0.225c-24.797,6.915 -47.342,20.557 -67.636,40.926l-89.686,89.907c-20.446,20.37 -34.127,42.916 -41.042,67.639c-6.915,24.722 -6.953,49.556 -0.115,74.502c6.838,24.945 20.63,47.753 41.376,68.423c9.216,9.292 19.945,16.884 32.187,22.776c12.241,5.892 27.606,9.819 46.093,11.779Z" style="fill-rule:nonzero;"/></g><g id="Light-L"><path d="M4785.88,6229.91l-23.958,24.042c21.054,-0.621 38.858,1.818 53.41,7.317c14.552,5.499 27.249,13.715 38.09,24.649c16.008,16.006 26.655,33.811 31.94,53.417c5.285,19.606 5.178,39.188 -0.32,58.748c-5.499,19.559 -16.335,37.425 -32.507,53.598l-85.392,85.388c-16.265,16.137 -34.177,26.922 -53.735,32.355c-19.559,5.434 -39.109,5.564 -58.65,0.39c-19.542,-5.174 -37.315,-15.699 -53.32,-31.573c-16.006,-16.231 -26.651,-34.117 -31.937,-53.657c-5.286,-19.54 -5.212,-39.09 0.222,-58.65c5.433,-19.559 16.283,-37.424 32.548,-53.595l66.659,-66.466c-2.296,-5.025 -3.711,-10.743 -4.243,-17.152c-0.532,-6.409 -0.046,-12.811 1.459,-19.207l-85.261,85.458c-19.723,19.628 -32.931,41.415 -39.625,65.362c-6.693,23.947 -6.758,47.959 -0.194,72.037c6.564,24.078 19.883,46.107 39.958,66.087c20.111,20.111 42.173,33.44 66.185,39.986c24.013,6.546 47.992,6.481 71.939,-0.195c23.947,-6.675 45.735,-19.827 65.363,-39.455l89.606,-89.748c19.629,-19.629 32.813,-41.393 39.552,-65.294c6.741,-23.9 6.807,-47.912 0.196,-72.035c-6.612,-24.123 -19.907,-46.176 -39.887,-66.158c-10.618,-10.618 -22.794,-18.979 -36.529,-25.083c-13.736,-6.104 -30.925,-9.626 -51.569,-10.566Zm37.722,208.57l23.818,-23.903c-20.959,0.621 -38.683,-1.817 -53.171,-7.315c-14.488,-5.498 -27.153,-13.715 -37.994,-24.651c-16.005,-16.005 -26.651,-33.811 -31.937,-53.417c-5.286,-19.605 -5.212,-39.188 0.222,-58.746c5.434,-19.559 16.236,-37.424 32.406,-53.596l85.589,-85.393c16.172,-16.136 34.061,-26.921 53.667,-32.355c19.606,-5.433 39.179,-5.563 58.721,-0.389c19.539,5.174 37.247,15.7 53.125,31.577c16.133,16.1 26.811,33.952 32.033,53.558c5.22,19.606 5.089,39.188 -0.391,58.747c-5.481,19.558 -16.306,37.424 -32.475,53.596l-66.467,66.463c2.167,5.025 3.548,10.743 4.146,17.152c0.597,6.409 0.077,12.811 -1.559,19.207l85.459,-85.457c19.627,-19.626 32.779,-41.413 39.454,-65.361c6.678,-23.948 6.743,-47.961 0.196,-72.038c-6.548,-24.076 -19.811,-46.106 -39.792,-66.088c-20.111,-20.204 -42.204,-33.555 -66.279,-40.055c-24.078,-6.499 -48.09,-6.41 -72.037,0.266c-23.947,6.676 -45.67,19.828 -65.169,39.454l-89.606,89.748c-19.757,19.628 -32.974,41.392 -39.651,65.293c-6.676,23.901 -6.741,47.913 -0.194,72.037c6.547,24.124 19.875,46.176 39.984,66.157c10.489,10.618 22.609,18.978 36.362,25.082c13.752,6.104 30.932,9.58 51.54,10.427Z" style="fill-rule:nonzero;"/></g><g id="Thin-L"><path d="M3532.68,6232.86l-15.543,15.311c23.86,-2.164 44.1,-0.338 60.72,5.477c16.62,5.815 31.228,15.03 43.822,27.646c16.569,16.566 27.567,35.091 32.993,55.573c5.426,20.482 5.231,40.959 -0.583,61.43c-5.815,20.471 -17.195,39.179 -34.139,56.123l-85.181,85.177c-16.966,16.768 -35.684,28.009 -56.154,33.723c-20.469,5.714 -40.896,5.914 -61.279,0.599c-20.383,-5.314 -38.858,-16.154 -55.424,-32.518c-16.566,-16.793 -27.562,-35.38 -32.988,-55.762c-5.426,-20.381 -5.282,-40.808 0.432,-61.279c5.714,-20.471 17.054,-39.177 34.02,-56.118l78.228,-77.931c-1.244,-2.431 -1.975,-5.747 -2.191,-9.947c-0.217,-4.2 0.532,-8.692 2.247,-13.475l-91.675,91.977c-18.673,18.647 -31.233,39.383 -37.68,62.208c-6.448,22.825 -6.548,45.751 -0.3,68.777c6.248,23.026 18.918,44.074 38.012,63.143c19.27,19.27 40.368,31.984 63.294,38.144c22.925,6.16 45.801,6.06 68.626,-0.299c22.824,-6.36 43.56,-18.864 62.207,-37.51l89.5,-89.538c18.647,-18.647 31.2,-39.377 37.66,-62.191c6.461,-22.814 6.561,-45.739 0.3,-68.775c-6.26,-23.036 -18.924,-44.089 -37.993,-63.161c-12.371,-12.371 -26.388,-21.748 -42.051,-28.133c-15.664,-6.384 -35.29,-9.275 -58.88,-8.671Zm71.484,202.679l15.51,-15.279c-23.834,2.164 -44.012,0.339 -60.533,-5.474c-16.521,-5.813 -31.079,-15.03 -43.673,-27.649c-16.566,-16.566 -27.562,-35.09 -32.988,-55.573c-5.426,-20.482 -5.282,-40.958 0.432,-61.428c5.714,-20.469 17.041,-39.176 33.982,-56.12l85.484,-85.182c16.944,-16.767 35.657,-28.008 56.14,-33.723c20.482,-5.713 40.914,-5.913 61.295,-0.599c20.38,5.314 38.755,16.155 55.125,32.523c16.763,16.592 27.809,35.128 33.137,55.611c5.325,20.482 5.125,40.958 -0.6,61.428c-5.728,20.469 -17.061,39.176 -34,56.12l-77.933,77.926c1.047,2.431 1.729,5.747 2.046,9.948c0.313,4.2 -0.488,8.691 -2.405,13.475l91.984,-91.978c18.644,-18.644 31.147,-39.379 37.508,-62.205c6.361,-22.827 6.461,-45.753 0.3,-68.777c-6.161,-23.025 -18.776,-44.073 -37.846,-63.145c-19.269,-19.292 -40.416,-32.012 -63.441,-38.162c-23.025,-6.148 -45.95,-6.042 -68.775,0.319c-22.825,6.362 -43.462,18.864 -61.91,37.508l-89.5,89.537c-18.845,18.647 -31.449,39.378 -37.81,62.191c-6.362,22.815 -6.462,45.74 -0.3,68.778c6.162,23.037 18.876,44.09 38.142,63.158c12.173,12.371 26.134,21.749 41.885,28.133c15.75,6.384 35.331,9.264 58.744,8.639Z" style="fill-rule:nonzero;"/></g><g id="Ultralight-L"><path d="M2287.74,6234.37l-11.233,10.839c25.297,-2.954 46.785,-1.442 64.464,4.535c17.68,5.976 33.265,15.703 46.757,29.181c16.858,16.853 28.035,35.745 33.533,56.677c5.498,20.931 5.258,41.865 -0.718,62.804c-5.977,20.938 -17.635,40.077 -34.974,57.416l-85.074,85.068c-17.325,17.091 -36.456,28.566 -57.392,34.424c-20.936,5.857 -41.812,6.093 -62.626,0.707c-20.814,-5.386 -39.648,-16.387 -56.501,-33.003c-16.854,-17.08 -28.029,-36.027 -33.527,-56.839c-5.498,-20.812 -5.318,-41.688 0.54,-62.626c5.858,-20.939 17.449,-40.075 34.774,-57.411l84.153,-83.802c-0.705,-1.103 -1.086,-3.189 -1.141,-6.258c-0.054,-3.069 0.829,-6.582 2.652,-10.539l-94.961,95.317c-18.134,18.144 -30.362,38.342 -36.684,60.592c-6.323,22.25 -6.44,44.619 -0.354,67.107c6.086,22.488 18.425,43.033 37.016,61.634c18.839,18.839 39.444,31.24 61.813,37.202c22.369,5.963 44.678,5.845 66.928,-0.353c22.25,-6.198 42.448,-18.37 60.592,-36.514l89.446,-89.43c18.144,-18.144 30.374,-38.345 36.69,-60.602c6.319,-22.257 6.437,-44.626 0.354,-67.104c-6.081,-22.479 -18.421,-43.021 -37.023,-61.626c-13.268,-13.269 -28.228,-23.167 -44.88,-29.695c-16.651,-6.528 -37.526,-9.095 -62.624,-7.702Zm88.776,199.662l11.255,-10.861c-25.307,2.954 -46.741,1.443 -64.304,-4.532c-17.562,-5.974 -33.09,-15.702 -46.582,-29.184c-16.853,-16.853 -28.028,-35.745 -33.526,-56.677c-5.498,-20.931 -5.318,-41.864 0.539,-62.801c5.858,-20.936 17.455,-40.074 34.79,-57.414l85.431,-85.073c17.339,-17.091 36.474,-28.566 57.405,-34.424c20.931,-5.857 41.802,-6.093 62.614,-0.707c20.813,5.386 39.53,16.389 56.15,33.009c17.086,16.842 28.319,35.729 33.7,56.66c5.383,20.932 5.148,41.866 -0.705,62.802c-5.852,20.936 -17.447,40.074 -34.783,57.413l-83.804,83.798c0.472,1.102 0.794,3.188 0.966,6.257c0.173,3.069 -0.772,6.582 -2.833,10.539l95.325,-95.318c18.139,-18.14 30.309,-38.336 36.509,-60.588c6.2,-22.252 6.318,-44.621 0.354,-67.107c-5.964,-22.486 -18.246,-43.032 -36.846,-61.637c-18.839,-18.825 -39.502,-31.222 -61.988,-37.192c-22.486,-5.969 -44.854,-5.854 -67.105,0.346c-22.25,6.2 -42.331,18.37 -60.241,36.511l-89.446,89.43c-18.378,18.144 -30.667,38.345 -36.867,60.602c-6.2,22.257 -6.318,44.626 -0.354,67.107c5.965,22.481 18.364,43.022 37.2,61.623c13.034,13.269 27.938,23.167 44.712,29.695c16.773,6.528 37.585,9.102 62.434,7.723Z" style="fill-rule:nonzero;"/></g><g id="Black-M"><path d="M12260.6,4449.44l-48.332,47.903c6.547,1.272 13.447,3.533 20.7,6.782c7.253,3.248 13.019,7.02 17.297,11.314c10.004,10.003 16.674,20.895 20.012,32.676c3.337,11.781 3.381,23.558 0.132,35.332c-3.249,11.773 -9.787,22.653 -19.615,32.64l-72.646,72.408c-10.002,9.844 -20.889,16.43 -32.663,19.759c-11.773,3.328 -23.551,3.288 -35.332,-0.122c-11.781,-3.409 -22.595,-10.036 -32.439,-19.882c-10.004,-10.018 -16.714,-20.917 -20.13,-32.699c-3.417,-11.781 -3.501,-23.598 -0.251,-35.451c3.249,-11.853 9.875,-22.693 19.876,-32.521l12.316,-12.317c-5.045,-11.609 -8.477,-24.745 -10.298,-39.406c-1.82,-14.662 -0.316,-28.729 4.512,-42.202l-52.261,51.547c-18.544,18.211 -30.864,38.475 -36.96,60.791c-6.097,22.317 -6.017,44.632 0.239,66.948c6.255,22.315 18.582,42.665 36.981,61.049c18.383,18.383 38.733,30.666 61.049,36.85c22.316,6.185 44.592,6.225 66.829,0.12c22.237,-6.103 42.54,-18.34 60.91,-36.711l75.999,-75.783c18.37,-18.37 30.607,-38.709 36.71,-61.018c6.104,-22.309 6.064,-44.585 -0.12,-66.828c-6.184,-22.244 -18.467,-42.558 -36.851,-60.942c-3.947,-3.947 -9.292,-7.844 -16.035,-11.692c-6.743,-3.848 -13.286,-6.696 -19.629,-8.546Zm-76.21,188.663l48.31,-47.881c-6.532,-1.272 -13.425,-3.533 -20.678,-6.782c-7.254,-3.248 -13.02,-7.02 -17.299,-11.314c-10.003,-10.003 -16.713,-20.895 -20.129,-32.676c-3.417,-11.781 -3.501,-23.598 -0.251,-35.451c3.249,-11.853 9.867,-22.693 19.853,-32.521l72.645,-72.408c9.828,-10.002 20.632,-16.628 32.414,-19.877c11.78,-3.25 23.562,-3.209 35.343,0.121c11.782,3.33 22.675,9.997 32.679,20.001c10.002,10.019 16.672,20.918 20.008,32.699c3.339,11.781 3.381,23.559 0.125,35.332c-3.258,11.774 -9.801,22.654 -19.629,32.64l-12.317,12.317c5.045,11.61 8.478,24.745 10.3,39.407c1.82,14.661 0.315,28.728 -4.512,42.2l52.258,-51.545c18.531,-18.212 30.808,-38.476 36.833,-60.792c6.025,-22.317 5.945,-44.632 -0.241,-66.947c-6.184,-22.316 -18.467,-42.666 -36.85,-61.05c-18.542,-18.557 -38.931,-30.884 -61.168,-36.981c-22.236,-6.097 -44.472,-6.094 -66.709,0.011c-22.237,6.104 -42.541,18.341 -60.912,36.711l-75.998,75.783c-18.37,18.37 -30.607,38.67 -36.711,60.899c-6.104,22.229 -6.064,44.506 0.121,66.829c6.184,22.323 18.467,42.676 36.85,61.06c3.948,3.947 9.289,7.844 16.024,11.692c6.735,3.848 13.282,6.689 19.641,8.523Z" style="fill-rule:nonzero;"/></g><g id="Heavy-M"><path d="M11015.9,4451.76l-43.325,43.089c8.179,1.228 16.121,3.548 23.827,6.96c7.706,3.412 13.974,7.556 18.805,12.432c10.434,10.434 17.393,21.839 20.875,34.214c3.483,12.375 3.518,24.739 0.106,37.092c-3.412,12.352 -10.258,23.729 -20.538,34.131l-71.165,70.983c-10.447,10.319 -21.847,17.214 -34.199,20.683c-12.352,3.469 -24.715,3.445 -37.086,-0.072c-12.373,-3.517 -23.715,-10.429 -34.028,-20.736c-10.435,-10.487 -17.424,-21.916 -20.967,-34.288c-3.543,-12.372 -3.61,-24.764 -0.202,-37.177c3.409,-12.413 10.337,-23.76 20.784,-34.04l18.822,-18.812c-4.527,-10.411 -7.572,-22.068 -9.136,-34.971c-1.564,-12.903 -0.389,-25.28 3.524,-37.129l-53.977,53.442c-18.026,17.738 -30.009,37.455 -35.949,59.152c-5.94,21.698 -5.883,43.398 0.172,65.102c6.055,21.703 18.064,41.514 36.027,59.431c17.924,17.924 37.736,29.892 59.436,35.907c21.7,6.013 43.369,6.041 65.006,0.081c21.636,-5.96 41.384,-17.869 59.243,-35.728l74.472,-74.359c17.859,-17.859 29.77,-37.625 35.733,-59.3c5.963,-21.674 5.935,-43.344 -0.082,-65.01c-6.017,-21.666 -17.984,-41.457 -35.901,-59.375c-4.537,-4.536 -10.405,-8.798 -17.605,-12.787c-7.2,-3.988 -14.757,-6.96 -22.672,-8.915Zm-59.427,183.686l43.257,-43.02c-8.133,-1.228 -16.051,-3.549 -23.753,-6.96c-7.703,-3.412 -13.97,-7.556 -18.8,-12.432c-10.435,-10.435 -17.424,-21.839 -20.967,-34.215c-3.543,-12.375 -3.61,-24.769 -0.202,-37.182c3.409,-12.413 10.314,-23.759 20.715,-34.04l71.175,-70.983c10.281,-10.441 21.608,-17.365 33.983,-20.774c12.375,-3.409 24.749,-3.385 37.121,0.072c12.372,3.456 23.772,10.399 34.199,20.827c10.442,10.48 17.402,21.907 20.879,34.283c3.481,12.375 3.506,24.739 0.075,37.091c-3.433,12.353 -10.289,23.729 -20.566,34.131l-18.814,18.812c4.52,10.41 7.563,22.067 9.13,34.971c1.567,12.903 0.391,25.279 -3.529,37.129l53.988,-53.442c17.98,-17.738 29.919,-37.455 35.816,-59.153c5.9,-21.697 5.843,-43.398 -0.17,-65.101c-6.014,-21.704 -17.98,-41.514 -35.896,-59.431c-18.045,-18.09 -37.889,-30.101 -59.532,-36.032c-21.643,-5.931 -43.283,-5.916 -64.92,0.044c-21.637,5.96 -41.381,17.869 -59.234,35.728l-74.471,74.358c-17.866,17.859 -29.779,37.596 -35.738,59.21c-5.96,21.614 -5.933,43.284 0.081,65.01c6.014,21.726 17.983,41.548 35.907,59.465c4.53,4.537 10.385,8.799 17.565,12.787c7.181,3.989 14.748,6.938 22.701,8.847Z" style="fill-rule:nonzero;"/></g><g id="Bold-M"><path d="M9770.24,4454.36l-37.724,37.703c10.003,1.179 19.111,3.566 27.324,7.16c8.212,3.594 15.042,8.155 20.49,13.682c10.917,10.917 18.198,22.895 21.843,35.935c3.645,13.039 3.67,26.059 0.076,39.059c-3.594,13 -10.784,24.933 -21.571,35.799l-69.508,69.389c-10.945,10.852 -22.918,18.091 -35.917,21.717c-13.001,3.627 -26.017,3.621 -39.049,-0.016c-13.033,-3.638 -24.968,-10.868 -35.805,-21.691c-10.917,-11.011 -18.218,-23.033 -21.902,-36.065c-3.685,-13.033 -3.734,-26.069 -0.147,-39.109c3.587,-13.039 10.853,-24.952 21.798,-35.738l26.1,-26.078c-3.947,-9.07 -6.559,-19.073 -7.836,-30.009c-1.277,-10.937 -0.47,-21.422 2.421,-31.455l-55.898,55.562c-17.447,17.208 -29.053,36.314 -34.818,57.319c-5.766,21.005 -5.734,42.017 0.097,63.036c5.831,21.019 17.484,40.227 34.959,57.622c17.409,17.409 36.62,29.026 57.632,34.85c21.012,5.824 42.001,5.836 62.966,0.038c20.965,-5.799 40.091,-17.341 57.379,-34.629l72.763,-72.764c17.288,-17.287 28.834,-36.413 34.64,-57.379c5.805,-20.965 5.793,-41.957 -0.038,-62.976c-5.831,-21.019 -17.444,-40.226 -34.84,-57.622c-5.195,-5.195 -11.649,-9.866 -19.36,-14.012c-7.712,-4.145 -16.404,-7.255 -26.075,-9.328Zm-40.655,178.12l37.605,-37.585c-9.923,-1.179 -18.988,-3.565 -27.193,-7.159c-8.206,-3.594 -15.033,-8.155 -20.48,-13.683c-10.917,-10.916 -18.218,-22.894 -21.902,-35.934c-3.685,-13.04 -3.734,-26.079 -0.147,-39.119c3.587,-13.039 10.814,-24.952 21.679,-35.739l69.53,-69.389c10.786,-10.931 22.7,-18.19 35.739,-21.777c13.04,-3.587 26.076,-3.582 39.109,0.016c13.032,3.598 24.999,10.849 35.901,21.751c10.93,10.997 18.215,23.015 21.854,36.054c3.639,13.04 3.644,26.06 0.017,39.06c-3.628,13 -10.835,24.932 -21.621,35.798l-26.076,26.078c3.932,9.07 6.54,19.073 7.824,30.009c1.284,10.936 0.474,21.421 -2.431,31.455l55.92,-55.562c17.367,-17.208 28.929,-36.314 34.688,-57.319c5.758,-21.005 5.725,-42.017 -0.1,-63.037c-5.822,-21.018 -17.431,-40.226 -34.825,-57.621c-17.489,-17.569 -36.724,-29.225 -57.704,-34.969c-20.98,-5.745 -41.952,-5.718 -62.917,0.081c-20.966,5.798 -40.085,17.341 -57.358,34.628l-72.764,72.764c-17.301,17.288 -28.851,36.394 -34.65,57.319c-5.798,20.926 -5.785,41.918 0.039,62.977c5.824,21.059 17.44,40.286 34.85,57.681c5.181,5.196 11.611,9.866 19.29,14.012c7.679,4.146 16.387,7.216 26.123,9.21Z" style="fill-rule:nonzero;"/></g><g id="Semibold-M"><path d="M8527.46,4456.15l-33.863,33.99c11.262,1.145 21.174,3.578 29.735,7.298c8.562,3.719 15.78,8.567 21.653,14.544c11.25,11.249 18.753,23.622 22.51,37.12c3.757,13.498 3.775,26.97 0.055,40.417c-3.719,13.446 -11.147,25.763 -22.282,36.948l-68.366,68.29c-11.289,11.219 -23.657,18.696 -37.103,22.431c-13.446,3.735 -26.914,3.742 -40.402,0.021c-13.488,-3.721 -25.831,-11.171 -37.03,-22.349c-11.249,-11.372 -18.764,-23.802 -22.547,-37.29c-3.782,-13.488 -3.818,-26.968 -0.108,-40.44c3.71,-13.472 11.209,-25.775 22.498,-36.91l31.116,-31.087c-3.547,-8.145 -5.86,-17.008 -6.939,-26.589c-1.079,-9.58 -0.526,-18.761 1.659,-27.543l-57.221,57.024c-17.047,16.843 -28.393,35.528 -34.038,56.056c-5.646,20.527 -5.631,41.065 0.045,61.612c5.677,20.547 17.084,39.339 34.222,56.374c17.056,17.055 35.852,28.429 56.39,34.122c20.537,5.692 41.057,5.695 61.559,0.008c20.502,-5.687 39.2,-16.977 56.093,-33.87l71.586,-71.666c16.893,-16.893 28.189,-35.578 33.886,-56.054c5.697,-20.476 5.694,-41 -0.008,-61.574c-5.703,-20.573 -17.072,-39.378 -34.107,-56.413c-5.65,-5.65 -12.507,-10.602 -20.572,-14.857c-8.064,-4.254 -17.538,-7.458 -28.421,-9.613Zm-27.712,174.282l33.709,-33.836c-11.159,-1.145 -21.014,-3.578 -29.566,-7.297c-8.552,-3.72 -15.765,-8.568 -21.638,-14.545c-11.249,-11.249 -18.765,-23.622 -22.547,-37.12c-3.782,-13.498 -3.818,-26.983 -0.109,-40.455c3.71,-13.471 11.158,-25.774 22.344,-36.91l68.396,-68.29c11.135,-11.269 23.452,-18.759 36.95,-22.469c13.497,-3.71 26.99,-3.717 40.478,-0.021c13.488,3.696 25.846,11.158 37.075,22.388c11.269,11.352 18.777,23.777 22.525,37.275c3.747,13.498 3.74,26.97 -0.021,40.416c-3.761,13.447 -11.21,25.763 -22.346,36.949l-31.086,31.086c3.528,8.145 5.836,17.008 6.925,26.588c1.088,9.581 0.53,18.762 -1.675,27.544l57.253,-57.024c16.941,-16.843 28.244,-35.528 33.908,-56.055c5.661,-20.528 5.646,-41.066 -0.046,-61.613c-5.694,-20.547 -17.058,-39.338 -34.092,-56.374c-17.105,-17.209 -35.92,-28.621 -56.443,-34.237c-20.522,-5.616 -41.034,-5.58 -61.536,0.107c-20.502,5.688 -39.19,16.978 -56.064,33.87l-71.586,71.665c-16.913,16.894 -28.213,35.566 -33.9,56.017c-5.688,20.451 -5.685,40.975 0.008,61.574c5.693,20.599 17.067,39.416 34.121,56.451c5.631,5.65 12.457,10.602 20.48,14.857c8.023,4.254 17.517,7.407 28.483,9.459Z" style="fill-rule:nonzero;"/></g><g id="Medium-M"><path d="M7286.28,4457.5l-30.934,31.175c12.216,1.12 22.737,3.587 31.563,7.402c8.826,3.815 16.338,8.881 22.534,15.198c11.501,11.501 19.173,24.174 23.015,38.019c3.842,13.846 3.855,27.661 0.04,41.446c-3.815,13.785 -11.423,26.392 -22.823,37.82l-67.5,67.457c-11.549,11.497 -24.216,19.154 -38.001,22.971c-13.784,3.817 -27.593,3.834 -41.427,0.05c-13.833,-3.784 -26.486,-11.4 -37.959,-22.848c-11.501,-11.647 -19.18,-24.386 -23.036,-38.219c-3.856,-13.834 -3.883,-27.65 -0.08,-41.449c3.804,-13.8 11.48,-26.399 23.029,-37.799l34.92,-34.884c-3.244,-7.445 -5.33,-15.444 -6.26,-23.996c-0.929,-8.552 -0.568,-16.744 1.083,-24.577l-58.225,58.133c-16.744,16.566 -27.893,34.931 -33.447,55.097c-5.555,20.165 -5.553,40.343 0.007,60.533c5.559,20.189 16.78,38.665 33.663,55.428c16.787,16.786 35.269,27.976 55.446,33.569c20.178,5.593 40.342,5.589 60.494,-0.014c20.151,-5.603 38.524,-16.702 55.118,-33.296l70.694,-70.832c16.594,-16.594 27.698,-34.944 33.313,-55.049c5.615,-20.106 5.62,-40.276 0.015,-60.511c-5.606,-20.236 -16.79,-38.735 -33.552,-55.498c-5.995,-5.994 -13.158,-11.16 -21.49,-15.496c-8.331,-4.337 -18.398,-7.614 -30.2,-9.83Zm-17.898,171.373l30.754,-30.995c-12.095,-1.119 -22.55,-3.587 -31.364,-7.401c-8.815,-3.815 -16.32,-8.881 -22.516,-15.198c-11.502,-11.502 -19.18,-24.175 -23.037,-38.02c-3.856,-13.845 -3.882,-27.668 -0.079,-41.466c3.803,-13.8 11.419,-26.399 22.847,-37.799l67.536,-67.458c11.4,-11.525 24.022,-19.189 37.868,-22.992c13.845,-3.803 27.684,-3.82 41.518,-0.05c13.833,3.769 26.488,11.393 37.966,22.87c11.525,11.622 19.203,24.356 23.033,38.202c3.831,13.845 3.814,27.66 -0.05,41.445c-3.864,13.784 -11.496,26.391 -22.896,37.82l-34.885,34.884c3.221,7.444 5.301,15.443 6.242,23.995c0.941,8.552 0.574,16.744 -1.1,24.577l58.26,-58.132c16.622,-16.566 27.728,-34.931 33.317,-55.097c5.589,-20.166 5.587,-40.343 -0.005,-60.533c-5.594,-20.189 -16.772,-38.665 -33.533,-55.428c-16.817,-16.936 -35.312,-28.163 -55.487,-33.681c-20.175,-5.519 -40.339,-5.477 -60.49,0.126c-20.151,5.603 -38.512,16.701 -55.083,33.295l-70.693,70.832c-16.618,16.594 -27.729,34.937 -33.332,55.028c-5.603,20.091 -5.607,40.262 -0.014,60.511c5.593,20.25 16.783,38.757 33.569,55.519c5.971,5.995 13.098,11.16 21.381,15.497c8.284,4.336 18.375,7.552 30.273,9.649Z" style="fill-rule:nonzero;"/></g><g id="Regular-M"><g id="Crayon"><path d="M5872.63,4585.18c-5.114,5.114 -7.53,12.616 -6.432,21.143c0.546,4.248 2.135,8.843 3.737,12.647c-0.001,-0.003 -36.867,82.269 -36.867,82.269c-2.828,6.31 -1.465,13.711 3.424,18.6l24.76,24.759c5.108,5.109 12.926,6.345 19.361,3.061l78.328,-39.974c3.701,1.528 8.083,3.005 12.147,3.528c8.526,1.097 16.028,-1.319 21.142,-6.433c0,-0 271.927,-271.927 271.927,-271.927c11.761,-11.76 11.965,-32.359 -1.543,-45.867c-0,-0 -72.19,-72.19 -72.19,-72.19c-13.508,-13.508 -34.106,-13.303 -45.867,-1.543c0,0 -271.927,271.927 -271.927,271.927Zm294.074,-246.934l0.15,0.121c0,-0 72.19,72.189 72.19,72.189l0.12,0.15l-266.39,266.39l-5.552,-2.283c-4.926,-2.948 -11.022,-3.153 -16.134,-0.544l-74.834,38.191c-0,0 -8.071,-8.071 -8.071,-8.071c0,0 35.322,-78.827 35.322,-78.827c2.225,-4.966 1.886,-10.704 -0.908,-15.374l-2.283,-5.552l266.39,-266.39Z"/><path d="M6023.92,4634.77l-83.386,-83.387l-23.571,23.57l83.387,83.387l23.57,-23.57Z"/><path d="M6219.14,4439.55l-83.387,-83.387l-23.57,23.57l83.387,83.387l23.57,-23.57Z"/></g></g><g id="Light-M"><path d="M4795.81,4461.27l-21.411,21.584c15.361,0.041 28.329,2.138 38.903,6.292c10.573,4.153 19.763,10.18 27.568,18.081c12.211,12.21 20.341,25.762 24.389,40.654c4.047,14.893 3.994,29.761 -0.159,44.606c-4.154,14.845 -12.365,28.401 -24.633,40.669l-66.228,66.226c-12.363,12.288 -25.967,20.489 -40.811,24.604c-14.844,4.115 -29.694,4.191 -44.548,0.23c-14.855,-3.961 -28.387,-12.008 -40.597,-24.14c-12.21,-12.385 -20.339,-26.004 -24.386,-40.858c-4.048,-14.854 -4.015,-29.703 0.1,-44.548c4.115,-14.844 12.354,-28.4 24.718,-40.667l47.724,-47.61c-2.135,-4.772 -3.462,-10.015 -3.982,-15.729c-0.519,-5.714 -0.231,-11.321 0.864,-16.823l-63.882,63.999c-15.636,15.539 -26.089,32.775 -31.358,51.708c-5.269,18.933 -5.307,37.904 -0.115,56.915c5.192,19.01 15.731,36.409 31.616,52.198c15.866,15.866 33.285,26.399 52.256,31.601c18.972,5.202 37.924,5.164 56.856,-0.115c18.934,-5.278 36.17,-15.688 51.709,-31.227l69.457,-69.603c15.539,-15.539 25.967,-32.751 31.285,-51.636c5.317,-18.885 5.356,-37.856 0.115,-56.914c-5.24,-19.057 -15.755,-36.48 -31.543,-52.27c-7.633,-7.632 -16.443,-13.766 -26.431,-18.4c-9.988,-4.633 -22.48,-7.576 -37.476,-8.827Zm17.788,163.584l21.268,-21.441c-15.265,-0.041 -28.165,-2.138 -38.7,-6.291c-10.536,-4.152 -19.706,-10.18 -27.512,-18.082c-12.21,-12.21 -20.339,-25.761 -24.386,-40.654c-4.048,-14.893 -4.014,-29.761 0.1,-44.605c4.115,-14.844 12.306,-28.4 24.573,-40.668l66.344,-66.228c12.268,-12.288 25.848,-20.489 40.741,-24.603c14.892,-4.115 29.765,-4.192 44.619,-0.231c14.854,3.961 28.348,12.009 40.482,24.143c12.286,12.307 20.434,25.906 24.445,40.799c4.008,14.892 3.931,29.761 -0.233,44.605c-4.161,14.844 -12.376,28.4 -24.644,40.668l-47.61,47.609c2.059,4.772 3.367,10.015 3.925,15.728c0.557,5.714 0.25,11.321 -0.923,16.823l64.002,-63.999c15.536,-15.538 25.944,-32.773 31.225,-51.707c5.28,-18.933 5.319,-37.905 0.116,-56.914c-5.202,-19.01 -15.698,-36.41 -31.487,-52.199c-15.866,-15.962 -33.304,-26.52 -52.314,-31.674c-19.01,-5.154 -37.981,-5.091 -56.914,0.188c-18.932,5.279 -36.13,15.688 -51.593,31.226l-69.458,69.603c-15.615,15.539 -26.063,32.751 -31.342,51.636c-5.279,18.885 -5.318,37.857 -0.115,56.915c5.202,19.058 15.736,36.481 31.601,52.269c7.556,7.633 16.323,13.766 26.3,18.4c9.978,4.634 22.474,7.528 37.49,8.684Z" style="fill-rule:nonzero;"/></g><g id="Thin-M"><path d="M3544.39,4463.91l-13.868,13.756c17.876,-1.341 33.029,0.206 45.456,4.642c12.428,4.437 23.33,11.36 32.707,20.769c12.716,12.713 21.16,26.909 25.333,42.587c4.174,15.678 4.042,31.349 -0.395,47.011c-4.436,15.662 -13.134,29.973 -26.094,42.933l-66.04,66.036c-12.992,12.853 -27.318,21.463 -42.979,25.829c-15.662,4.367 -31.297,4.506 -46.905,0.419c-15.61,-4.087 -29.771,-12.416 -42.483,-24.988c-12.713,-12.888 -21.156,-27.136 -25.329,-42.744c-4.174,-15.608 -4.078,-31.243 0.289,-46.905c4.366,-15.662 13.045,-29.972 26.037,-42.93l58.096,-57.889c-1.192,-2.446 -1.906,-5.536 -2.142,-9.27c-0.237,-3.733 0.287,-7.627 1.57,-11.683l-69.633,69.845c-14.694,14.659 -24.566,30.952 -29.615,48.879c-5.048,17.927 -5.118,35.924 -0.209,53.992c4.909,18.067 14.866,34.586 29.872,49.557c15.112,15.112 31.666,25.096 49.664,29.952c17.997,4.856 35.959,4.786 53.885,-0.209c17.927,-4.996 34.221,-14.824 48.88,-29.483l69.362,-69.414c14.66,-14.66 24.522,-30.945 29.588,-48.855c5.067,-17.911 5.136,-35.908 0.21,-53.99c-4.926,-18.083 -14.875,-34.611 -29.846,-49.584c-9.204,-9.204 -19.664,-16.249 -31.381,-21.134c-11.717,-4.885 -26.394,-7.262 -44.03,-7.129Zm48.056,158.302l13.819,-13.708c-17.842,1.342 -32.942,-0.205 -45.3,-4.641c-12.359,-4.435 -23.226,-11.359 -32.603,-20.77c-12.713,-12.713 -21.157,-26.908 -25.33,-42.587c-4.173,-15.678 -4.077,-31.348 0.289,-47.009c4.366,-15.661 13.028,-29.971 25.986,-42.931l66.25,-66.04c12.96,-12.853 27.28,-21.463 42.958,-25.829c15.678,-4.366 31.321,-4.506 46.929,-0.419c15.608,4.087 29.699,12.417 42.273,24.992c12.852,12.747 21.329,26.96 25.432,42.638c4.106,15.678 3.967,31.348 -0.417,47.009c-4.383,15.661 -13.054,29.972 -26.012,42.931l-57.889,57.886c1.054,2.447 1.734,5.537 2.039,9.27c0.306,3.733 -0.253,7.628 -1.677,11.683l69.848,-69.844c14.658,-14.657 24.485,-30.95 29.479,-48.878c4.997,-17.928 5.068,-35.925 0.212,-53.992c-4.858,-18.066 -14.772,-34.586 -29.741,-49.559c-15.113,-15.144 -31.703,-25.136 -49.769,-29.976c-18.067,-4.84 -36.064,-4.762 -53.99,0.235c-17.927,4.997 -34.151,14.824 -48.672,29.481l-69.363,69.414c-14.797,14.66 -24.695,30.945 -29.692,48.855c-4.996,17.911 -5.066,35.908 -0.209,53.992c4.857,18.084 14.84,34.611 29.95,49.582c9.065,9.204 19.483,16.249 31.251,21.134c11.769,4.885 26.419,7.246 43.949,7.081Z" style="fill-rule:nonzero;"/></g><g id="Ultralight-M"><path d="M2300.35,4465.26l-10.004,9.747c19.165,-2.05 35.436,-0.784 48.813,3.797c13.378,4.582 25.157,11.963 35.339,22.145c12.973,12.97 21.579,27.496 25.816,43.577c4.238,16.08 4.066,32.161 -0.515,48.242c-4.582,16.081 -13.53,30.779 -26.844,44.093l-65.943,65.938c-13.314,13.144 -28.011,21.963 -44.09,26.458c-16.079,4.495 -32.117,4.667 -48.112,0.516c-15.996,-4.152 -30.479,-12.626 -43.449,-25.423c-12.971,-13.146 -21.575,-27.716 -25.812,-43.71c-4.238,-15.995 -4.11,-32.032 0.385,-48.113c4.495,-16.081 13.4,-30.777 26.713,-44.088l63.41,-63.154c-0.709,-1.255 -1.11,-3.242 -1.201,-5.962c-0.091,-2.718 0.553,-5.735 1.932,-9.05l-72.578,72.838c-14.212,14.209 -23.786,30.019 -28.722,47.431c-4.936,17.411 -5.022,34.91 -0.258,52.494c4.765,17.585 14.424,33.654 28.979,48.206c14.726,14.726 30.837,24.428 48.336,29.106c17.498,4.679 34.953,4.593 52.364,-0.257c17.412,-4.851 33.222,-14.381 47.431,-28.589l69.313,-69.318c14.209,-14.209 23.782,-30.019 28.719,-47.431c4.938,-17.411 5.024,-34.909 0.258,-52.492c-4.765,-17.583 -14.424,-33.653 -28.976,-48.208c-10.009,-10.008 -21.315,-17.52 -33.917,-22.534c-12.603,-5.014 -28.398,-7.1 -47.387,-6.259Zm63.56,155.596l10.003,-9.747c-19.161,2.05 -35.388,0.784 -48.681,-3.796c-13.292,-4.58 -25.029,-11.962 -35.211,-22.147c-12.97,-12.97 -21.574,-27.495 -25.812,-43.576c-4.238,-16.081 -4.109,-32.161 0.386,-48.24c4.495,-16.08 13.398,-30.777 26.709,-44.091l66.203,-65.943c13.314,-13.144 28.012,-21.963 44.093,-26.458c16.08,-4.495 32.118,-4.666 48.112,-0.515c15.994,4.151 30.391,12.627 43.191,25.427c13.141,12.973 21.788,27.5 25.941,43.58c4.152,16.081 3.98,32.161 -0.517,48.241c-4.497,16.079 -13.401,30.776 -26.711,44.09l-63.154,63.15c0.539,1.255 0.897,3.242 1.073,5.961c0.177,2.719 -0.511,5.736 -2.064,9.051l72.843,-72.839c14.206,-14.206 23.735,-30.015 28.588,-47.428c4.853,-17.413 4.939,-34.911 0.258,-52.495c-4.68,-17.583 -14.297,-33.652 -28.85,-48.208c-14.725,-14.725 -30.88,-24.427 -48.463,-29.106c-17.584,-4.679 -35.081,-4.592 -52.492,0.26c-17.412,4.852 -33.137,14.381 -47.175,28.587l-69.314,69.317c-14.379,14.209 -23.995,30.02 -28.847,47.431c-4.852,17.412 -4.938,34.91 -0.258,52.495c4.68,17.584 14.382,33.653 29.104,48.205c9.839,10.009 21.101,17.52 33.788,22.534c12.686,5.015 28.438,7.101 47.257,6.26Z" style="fill-rule:nonzero;"/></g><g id="Black-S"><path d="M12254.3,2677.83l-39.063,38.656c4.747,0.949 9.935,2.678 15.564,5.187c5.629,2.51 10.071,5.392 13.326,8.647c7.731,7.731 12.885,16.141 15.462,25.228c2.577,9.088 2.611,18.175 0.102,27.263c-2.509,9.087 -7.562,17.496 -15.157,25.227l-57.373,57.17c-7.731,7.595 -16.14,12.682 -25.228,15.259c-9.087,2.577 -18.175,2.543 -27.263,-0.102c-9.087,-2.645 -17.428,-7.765 -25.024,-15.36c-7.731,-7.731 -12.919,-16.141 -15.564,-25.228c-2.645,-9.088 -2.712,-18.209 -0.203,-27.364c2.509,-9.156 7.629,-17.531 15.36,-25.127l8.138,-8.138c-4.069,-9.358 -6.849,-20.005 -8.341,-31.941c-1.492,-11.936 -0.204,-23.397 3.865,-34.384l-40.69,40.08c-14.648,14.377 -24.38,30.382 -29.195,48.015c-4.815,17.632 -4.747,35.264 0.204,52.897c4.95,17.632 14.682,33.705 29.195,48.218c14.512,14.512 30.585,24.21 48.218,29.093c17.632,4.883 35.23,4.917 52.795,0.102c17.564,-4.815 33.603,-14.479 48.116,-28.992l60.018,-59.815c14.513,-14.512 24.176,-30.585 28.991,-48.217c4.815,-17.633 4.782,-35.231 -0.101,-52.796c-4.883,-17.564 -14.581,-33.603 -29.094,-48.116c-2.983,-2.984 -7.086,-5.968 -12.308,-8.951c-5.222,-2.984 -10.139,-5.155 -14.75,-6.511Zm-63.477,149.129l39.063,-38.655c-4.748,-0.95 -9.936,-2.679 -15.565,-5.188c-5.628,-2.51 -10.07,-5.392 -13.325,-8.647c-7.732,-7.731 -12.92,-16.14 -15.565,-25.228c-2.644,-9.087 -2.712,-18.209 -0.203,-27.364c2.509,-9.155 7.629,-17.531 15.36,-25.126l57.374,-57.17c7.595,-7.731 15.936,-12.851 25.024,-15.36c9.087,-2.509 18.175,-2.475 27.262,0.102c9.088,2.577 17.497,7.731 25.228,15.462c7.731,7.731 12.885,16.14 15.462,25.228c2.578,9.087 2.612,18.175 0.102,27.262c-2.509,9.088 -7.561,17.497 -15.157,25.228l-8.138,8.138c4.069,9.359 6.85,20.006 8.342,31.942c1.492,11.935 0.203,23.397 -3.866,34.383l40.69,-40.08c14.649,-14.377 24.346,-30.382 29.094,-48.014c4.747,-17.633 4.679,-35.265 -0.204,-52.897c-4.883,-17.633 -14.581,-33.705 -29.093,-48.218c-14.649,-14.649 -30.755,-24.38 -48.32,-29.195c-17.564,-4.815 -35.129,-4.815 -52.693,-0c-17.565,4.815 -33.604,14.479 -48.117,28.991l-60.017,59.815c-14.513,14.513 -24.177,30.551 -28.992,48.116c-4.815,17.564 -4.781,35.163 0.102,52.795c4.882,17.633 14.58,33.705 29.093,48.218c2.984,2.984 7.087,5.968 12.309,8.952c5.222,2.984 10.138,5.154 14.75,6.51Z" style="fill-rule:nonzero;"/></g><g id="Heavy-S"><path d="M11012.2,2679.56l-35.509,35.294c5.899,1.046 11.768,2.879 17.605,5.5c5.836,2.621 10.543,5.736 14.118,9.343c8.051,8.051 13.421,16.837 16.11,26.356c2.689,9.52 2.723,19.032 0.102,28.535c-2.621,9.504 -7.89,18.265 -15.805,26.284l-56.125,55.97c-8.051,7.947 -16.829,13.258 -26.332,15.931c-9.504,2.673 -19.015,2.647 -28.535,-0.078c-9.52,-2.725 -18.253,-8.061 -26.201,-16.009c-8.051,-8.083 -13.447,-16.885 -16.188,-26.404c-2.741,-9.52 -2.801,-19.057 -0.18,-28.613c2.622,-9.555 7.958,-18.291 16.009,-26.206l12.7,-12.7c-3.717,-8.559 -6.225,-18.149 -7.525,-28.773c-1.3,-10.623 -0.315,-20.803 2.953,-30.541l-41.602,41.136c-14.297,14.057 -23.796,29.686 -28.499,46.886c-4.703,17.2 -4.651,34.4 0.155,51.601c4.807,17.2 14.322,32.896 28.547,47.089c14.193,14.192 29.889,23.674 47.09,28.445c17.2,4.771 34.374,4.797 51.522,0.078c17.149,-4.719 32.803,-14.159 46.964,-28.32l58.721,-58.614c14.161,-14.16 23.601,-29.833 28.32,-47.017c4.719,-17.184 4.693,-34.359 -0.078,-51.523c-4.771,-17.164 -14.252,-32.843 -28.445,-47.036c-3.336,-3.336 -7.727,-6.544 -13.173,-9.624c-5.446,-3.08 -11.019,-5.41 -16.719,-6.99Zm-52.048,145.384l35.461,-35.247c-5.868,-1.045 -11.72,-2.879 -17.557,-5.5c-5.837,-2.621 -10.543,-5.736 -14.118,-9.343c-8.051,-8.051 -13.448,-16.837 -16.188,-26.356c-2.741,-9.52 -2.801,-19.057 -0.18,-28.613c2.621,-9.555 7.942,-18.291 15.961,-26.206l56.124,-55.97c7.916,-8.051 16.634,-13.387 26.153,-16.008c9.52,-2.621 19.039,-2.595 28.559,0.078c9.52,2.673 18.305,8.035 26.356,16.086c8.052,8.083 13.422,16.885 16.111,26.404c2.689,9.52 2.715,19.032 0.078,28.535c-2.637,9.504 -7.914,18.265 -15.829,26.285l-12.7,12.699c3.717,8.559 6.225,18.15 7.525,28.773c1.3,10.623 0.315,20.804 -2.953,30.541l41.602,-41.136c14.264,-14.057 23.73,-29.685 28.397,-46.886c4.667,-17.2 4.616,-34.4 -0.155,-51.6c-4.771,-17.2 -14.253,-32.897 -28.446,-47.09c-14.296,-14.328 -30.018,-23.844 -47.167,-28.546c-17.148,-4.703 -34.296,-4.696 -51.445,0.023c-17.148,4.719 -32.803,14.159 -46.963,28.32l-58.722,58.614c-14.16,14.161 -23.6,29.807 -28.319,46.94c-4.719,17.132 -4.693,34.306 0.078,51.523c4.77,17.216 14.252,32.92 28.445,47.113c3.336,3.336 7.719,6.544 13.149,9.624c5.43,3.08 11.011,5.394 16.743,6.943Z" style="fill-rule:nonzero;"/></g><g id="Bold-S"><path d="M9769.56,2681.49l-31.535,31.535c7.189,1.153 13.818,3.103 19.888,5.849c6.069,2.747 11.071,6.121 15.004,10.122c8.409,8.409 14.021,17.615 16.836,27.618c2.814,10.003 2.848,19.989 0.101,29.958c-2.746,9.969 -8.256,19.125 -16.53,27.466l-54.728,54.627c-8.41,8.341 -17.599,13.902 -27.568,16.683c-9.969,2.78 -19.955,2.763 -29.958,-0.051c-10.003,-2.815 -19.175,-8.393 -27.516,-16.734c-8.41,-8.477 -14.039,-17.717 -16.887,-27.72c-2.848,-10.003 -2.899,-20.006 -0.153,-30.009c2.747,-10.003 8.325,-19.141 16.734,-27.415l17.802,-17.802c-3.323,-7.664 -5.527,-16.073 -6.612,-25.228c-1.085,-9.155 -0.441,-17.904 1.933,-26.245l-42.623,42.318c-13.902,13.699 -23.142,28.907 -27.72,45.624c-4.578,16.716 -4.544,33.433 0.102,50.15c4.645,16.717 13.919,31.993 27.821,45.827c13.835,13.835 29.111,23.075 45.828,27.72c16.717,4.646 33.417,4.663 50.1,0.051c16.682,-4.611 31.907,-13.8 45.674,-27.567l57.271,-57.272c13.767,-13.766 22.956,-28.991 27.568,-45.674c4.612,-16.683 4.595,-33.383 -0.051,-50.1c-4.645,-16.717 -13.885,-31.993 -27.72,-45.827c-3.73,-3.73 -8.443,-7.189 -14.14,-10.376c-5.697,-3.188 -12.004,-5.697 -18.921,-7.528Zm-39.266,141.195l31.433,-31.433c-7.121,-1.153 -13.716,-3.103 -19.785,-5.849c-6.07,-2.747 -11.071,-6.121 -15.005,-10.122c-8.409,-8.409 -14.038,-17.616 -16.886,-27.619c-2.848,-10.003 -2.899,-20.005 -0.153,-30.009c2.747,-10.003 8.291,-19.141 16.632,-27.415l54.729,-54.626c8.273,-8.409 17.412,-13.987 27.415,-16.734c10.003,-2.746 20.006,-2.729 30.008,0.051c10.003,2.78 19.21,8.375 27.619,16.785c8.409,8.477 14.021,17.717 16.835,27.72c2.815,10.003 2.832,19.989 0.051,29.958c-2.78,9.969 -8.307,19.124 -16.581,27.466l-17.802,17.802c3.323,7.663 5.527,16.072 6.612,25.228c1.085,9.155 0.441,17.903 -1.932,26.245l42.622,-42.318c13.835,-13.699 23.041,-28.907 27.619,-45.624c4.577,-16.717 4.543,-33.433 -0.102,-50.15c-4.645,-16.717 -13.885,-31.993 -27.72,-45.827c-13.902,-13.971 -29.195,-23.245 -45.878,-27.823c-16.683,-4.577 -33.366,-4.56 -50.049,0.051c-16.683,4.612 -31.908,13.801 -45.675,27.568l-57.271,57.271c-13.767,13.767 -22.956,28.975 -27.568,45.624c-4.611,16.649 -4.594,33.349 0.052,50.1c4.645,16.751 13.885,32.043 27.72,45.878c3.73,3.73 8.426,7.188 14.088,10.376c5.663,3.187 11.987,5.662 18.972,7.426Z" style="fill-rule:nonzero;"/></g><g id="Semibold-S"><path d="M8528.84,2682.83l-28.795,28.943c8.077,1.227 15.231,3.257 21.461,6.09c6.23,2.833 11.435,6.386 15.616,10.658c8.656,8.656 14.434,18.153 17.335,28.489c2.901,10.336 2.935,20.649 0.102,30.939c-2.833,10.29 -8.51,19.717 -17.03,28.281l-53.766,53.701c-8.656,8.613 -18.129,14.346 -28.419,17.201c-10.29,2.854 -20.603,2.844 -30.94,-0.032c-10.336,-2.877 -19.81,-8.621 -28.423,-17.234c-8.656,-8.749 -14.446,-18.291 -17.368,-28.628c-2.922,-10.336 -2.967,-20.66 -0.134,-30.971c2.833,-10.312 8.577,-19.728 17.233,-28.248l21.32,-21.32c-3.051,-7.046 -5.046,-14.641 -5.983,-22.784c-0.937,-8.143 -0.527,-15.904 1.23,-23.283l-43.327,43.133c-13.631,13.452 -22.692,28.37 -27.183,44.753c-4.491,16.384 -4.47,32.768 0.065,49.151c4.534,16.384 13.641,31.369 27.322,44.957c13.587,13.588 28.573,22.661 44.957,27.22c16.383,4.559 32.756,4.57 49.118,0.033c16.362,-4.538 31.291,-13.554 44.786,-27.049l56.272,-56.346c13.495,-13.495 22.511,-28.412 27.049,-44.749c4.537,-16.337 4.527,-32.71 -0.032,-49.118c-4.559,-16.409 -13.633,-31.407 -27.221,-44.994c-4.001,-4.002 -8.937,-7.634 -14.806,-10.895c-5.869,-3.261 -12.682,-5.894 -20.439,-7.898Zm-30.453,138.307l28.656,-28.804c-7.985,-1.227 -15.092,-3.257 -21.323,-6.09c-6.23,-2.833 -11.435,-6.386 -15.615,-10.659c-8.656,-8.656 -14.445,-18.152 -17.368,-28.488c-2.922,-10.337 -2.967,-20.66 -0.134,-30.972c2.833,-10.312 8.532,-19.728 17.095,-28.248l53.766,-53.701c8.52,-8.656 17.948,-14.401 28.285,-17.234c10.336,-2.833 20.672,-2.822 31.008,0.032c10.337,2.855 19.833,8.611 28.489,17.267c8.656,8.748 14.435,18.291 17.336,28.627c2.9,10.336 2.911,20.649 0.032,30.939c-2.88,10.29 -8.579,19.717 -17.1,28.281l-21.32,21.319c3.052,7.046 5.046,14.641 5.983,22.785c0.937,8.143 0.527,15.904 -1.229,23.282l43.326,-43.132c13.539,-13.452 22.566,-28.37 27.082,-44.754c4.516,-16.383 4.494,-32.767 -0.065,-49.151c-4.559,-16.383 -13.632,-31.369 -27.22,-44.957c-13.631,-13.723 -28.628,-22.83 -44.989,-27.321c-16.362,-4.492 -32.725,-4.469 -49.087,0.069c-16.362,4.537 -31.29,13.554 -44.786,27.049l-56.271,56.346c-13.496,13.495 -22.512,28.4 -27.049,44.716c-4.538,16.316 -4.527,32.689 0.032,49.119c4.559,16.429 13.632,31.438 27.22,45.026c4.002,4.001 8.914,7.633 14.737,10.895c5.824,3.261 12.66,5.847 20.509,7.759Z" style="fill-rule:nonzero;"/></g><g id="Medium-S"><path d="M7289.19,2683.84l-26.717,26.977c8.751,1.283 16.303,3.374 22.654,6.273c6.352,2.898 11.712,6.587 16.079,11.065c8.843,8.844 14.748,18.56 17.714,29.149c2.967,10.589 3.001,21.15 0.102,31.683c-2.898,10.533 -8.701,20.166 -17.409,28.898l-53.036,52.999c-8.843,8.819 -18.531,14.684 -29.065,17.595c-10.533,2.91 -21.094,2.904 -31.683,-0.019c-10.589,-2.923 -20.293,-8.794 -29.112,-17.612c-8.843,-8.955 -14.754,-18.727 -17.732,-29.316c-2.979,-10.588 -3.019,-21.156 -0.121,-31.701c2.899,-10.546 8.77,-20.172 17.613,-28.88l23.987,-23.987c-2.846,-6.578 -4.681,-13.555 -5.505,-20.931c-0.825,-7.376 -0.593,-14.388 0.695,-21.037l-43.859,43.75c-13.425,13.265 -22.351,27.963 -26.776,44.094c-4.426,16.131 -4.414,32.262 0.036,48.393c4.45,16.131 13.431,30.897 26.943,44.297c13.401,13.401 28.166,22.348 44.297,26.841c16.131,4.494 32.256,4.5 48.375,0.019c16.118,-4.482 30.822,-13.367 44.112,-26.656l55.514,-55.644c13.289,-13.29 22.174,-27.972 26.655,-44.047c4.482,-16.075 4.476,-32.2 -0.018,-48.375c-4.493,-16.174 -13.44,-30.961 -26.841,-44.362c-4.207,-4.207 -9.311,-7.97 -15.312,-11.287c-6,-3.318 -13.197,-6.044 -21.59,-8.179Zm-23.771,136.117l26.55,-26.811c-8.64,-1.283 -16.135,-3.374 -22.487,-6.273c-6.352,-2.898 -11.711,-6.587 -16.079,-11.065c-8.843,-8.843 -14.754,-18.56 -17.732,-29.149c-2.979,-10.589 -3.019,-21.156 -0.12,-31.701c2.898,-10.546 8.713,-20.172 17.445,-28.88l53.036,-52.999c8.707,-8.843 18.356,-14.714 28.945,-17.613c10.589,-2.898 21.178,-2.892 31.767,0.018c10.588,2.911 20.305,8.788 29.148,17.632c8.843,8.954 14.748,18.726 17.714,29.315c2.967,10.589 2.973,21.15 0.018,31.683c-2.953,10.533 -8.784,20.166 -17.492,28.898l-23.987,23.987c2.846,6.578 4.681,13.555 5.506,20.931c0.824,7.376 0.592,14.388 -0.696,21.037l43.859,-43.75c13.314,-13.265 22.206,-27.963 26.675,-44.094c4.469,-16.131 4.457,-32.262 -0.037,-48.393c-4.493,-16.131 -13.44,-30.896 -26.841,-44.297c-13.425,-13.536 -28.197,-22.517 -44.315,-26.943c-16.119,-4.426 -32.238,-4.398 -48.357,0.083c-16.118,4.482 -30.822,13.367 -44.112,26.656l-55.513,55.644c-13.29,13.29 -22.175,27.966 -26.656,44.029c-4.482,16.063 -4.476,32.188 0.018,48.375c4.493,16.186 13.44,30.979 26.841,44.38c4.208,4.207 9.284,7.97 15.228,11.287c5.945,3.318 13.17,5.989 21.674,8.013Z" style="fill-rule:nonzero;"/></g><g id="Regular-S"><path d="M6048.53,2685.16l-24.008,24.414c9.63,1.357 17.701,3.527 24.211,6.511c6.51,2.984 12.071,6.849 16.683,11.596c9.087,9.088 15.157,19.091 18.209,30.009c3.052,10.919 3.085,21.803 0.102,32.654c-2.984,10.851 -8.952,20.752 -17.904,29.704l-52.083,52.083c-9.088,9.088 -19.057,15.123 -29.908,18.107c-10.85,2.984 -21.735,2.984 -32.653,0c-10.919,-2.984 -20.922,-9.019 -30.009,-18.107c-9.088,-9.223 -15.158,-19.294 -18.209,-30.212c-3.052,-10.919 -3.086,-21.803 -0.102,-32.654c2.984,-10.851 9.02,-20.752 18.107,-29.704l27.466,-27.465c-2.577,-5.968 -4.205,-12.14 -4.883,-18.515c-0.678,-6.374 -0.678,-12.41 0,-18.107l-44.556,44.556c-13.156,13.021 -21.904,27.432 -26.245,43.233c-4.34,15.802 -4.34,31.603 0,47.404c4.341,15.802 13.157,30.28 26.449,43.437c13.156,13.156 27.635,21.939 43.437,26.347c15.801,4.408 31.602,4.408 47.403,-0c15.802,-4.408 30.213,-13.123 43.234,-26.144l54.524,-54.728c13.021,-13.021 21.736,-27.398 26.144,-43.131c4.408,-15.734 4.408,-31.535 0,-47.404c-4.408,-15.87 -13.191,-30.382 -26.347,-43.539c-4.476,-4.476 -9.799,-8.409 -15.971,-11.8c-6.171,-3.391 -13.868,-6.239 -23.092,-8.545Zm-15.055,133.26l23.804,-24.21c-9.494,-1.357 -17.497,-3.527 -24.007,-6.511c-6.511,-2.983 -12.072,-6.849 -16.683,-11.596c-9.088,-9.088 -15.157,-19.091 -18.209,-30.009c-3.052,-10.919 -3.086,-21.803 -0.102,-32.654c2.984,-10.851 8.952,-20.752 17.904,-29.704l52.083,-52.083c8.952,-9.088 18.887,-15.123 29.806,-18.107c10.918,-2.984 21.837,-2.984 32.755,-0c10.919,2.984 20.922,9.019 30.009,18.107c9.088,9.223 15.157,19.294 18.209,30.212c3.052,10.919 3.052,21.803 0,32.654c-3.052,10.851 -9.054,20.752 -18.005,29.704l-27.466,27.466c2.577,5.967 4.204,12.139 4.882,18.514c0.679,6.374 0.679,12.41 0,18.107l44.556,-44.556c13.021,-13.021 21.736,-27.432 26.144,-43.233c4.408,-15.802 4.408,-31.603 -0,-47.404c-4.408,-15.801 -13.191,-30.28 -26.347,-43.437c-13.157,-13.292 -27.636,-22.108 -43.437,-26.448c-15.801,-4.341 -31.602,-4.307 -47.404,0.101c-15.801,4.408 -30.212,13.123 -43.233,26.143l-54.525,54.729c-13.021,13.021 -21.735,27.398 -26.143,43.131c-4.408,15.734 -4.408,31.535 -0,47.404c4.408,15.869 13.19,30.382 26.347,43.539c4.476,4.476 9.765,8.409 15.869,11.8c6.103,3.391 13.834,6.171 23.193,8.341Z" style="fill-rule:nonzero;"/></g><g id="Light-S"><path d="M4802.11,2686.92l-18.961,19.178c11.312,0.432 20.843,2.234 28.594,5.407c7.75,3.174 14.457,7.638 20.12,13.394c9.424,9.424 15.704,19.858 18.84,31.302c3.136,11.444 3.117,22.865 -0.056,34.262c-3.173,11.398 -9.467,21.804 -18.882,31.218l-51.957,51.956c-9.508,9.467 -19.96,15.776 -31.357,18.928c-11.397,3.152 -22.807,3.194 -34.231,0.126c-11.423,-3.068 -21.846,-9.293 -31.27,-18.674c-9.424,-9.56 -15.704,-20.052 -18.84,-31.475c-3.135,-11.423 -3.127,-22.833 0.025,-34.23c3.152,-11.398 9.482,-21.803 18.99,-31.217l34.403,-34.341c-1.946,-4.412 -3.164,-9.143 -3.653,-14.194c-0.489,-5.05 -0.331,-9.94 0.473,-14.669l-48.402,48.465c-12.527,12.433 -20.886,26.213 -25.079,41.341c-4.193,15.129 -4.214,30.279 -0.063,45.45c4.151,15.17 12.578,29.061 25.282,41.67c12.652,12.652 26.553,21.067 41.702,25.244c15.15,4.176 30.289,4.155 45.417,-0.063c15.129,-4.219 28.909,-12.545 41.342,-24.977l54.461,-54.602c12.432,-12.433 20.768,-26.19 25.008,-41.272c4.24,-15.082 4.261,-30.231 0.064,-45.448c-4.199,-15.217 -12.602,-29.131 -25.212,-41.741c-5.527,-5.527 -11.954,-10.07 -19.282,-13.629c-7.328,-3.559 -16.486,-6.029 -27.476,-7.41Zm5.19,129.728l18.822,-19.039c-11.218,-0.431 -20.692,-2.233 -28.422,-5.406c-7.729,-3.173 -14.426,-7.638 -20.088,-13.395c-9.424,-9.423 -15.704,-19.858 -18.84,-31.302c-3.136,-11.444 -3.127,-22.864 0.025,-34.261c3.152,-11.397 9.434,-21.803 18.848,-31.218l52.021,-51.957c9.415,-9.466 19.844,-15.775 31.288,-18.927c11.444,-3.152 22.878,-3.194 34.301,-0.126c11.423,3.068 21.825,9.293 31.207,18.675c9.466,9.518 15.756,19.998 18.87,31.442c3.115,11.444 3.073,22.865 -0.125,34.262c-3.2,11.397 -9.506,21.803 -18.92,31.218l-34.34,34.339c1.904,4.413 3.111,9.144 3.621,14.194c0.51,5.05 0.341,9.94 -0.505,14.67l48.467,-48.466c12.431,-12.432 20.757,-26.212 24.976,-41.341c4.219,-15.128 4.24,-30.278 0.063,-45.449c-4.177,-15.17 -12.571,-29.06 -25.18,-41.671c-12.652,-12.745 -26.564,-21.183 -41.734,-25.313c-15.171,-4.13 -30.32,-4.086 -45.448,0.133c-15.129,4.22 -28.889,12.545 -41.279,24.977l-54.461,54.602c-12.475,12.432 -20.821,26.189 -25.04,41.271c-4.219,15.082 -4.24,30.232 -0.063,45.449c4.177,15.217 12.591,29.131 25.243,41.741c5.485,5.527 11.878,10.07 19.18,13.629c7.302,3.559 16.473,5.982 27.513,7.269Z" style="fill-rule:nonzero;"/></g><g id="Thin-S"><path d="M3552.44,2689.26l-12.287,12.253c13.536,-0.791 25,0.525 34.391,3.949c9.39,3.424 17.612,8.681 24.665,15.771c9.87,9.868 16.429,20.872 19.676,33.011c3.247,12.139 3.159,24.269 -0.265,36.39c-3.424,12.121 -10.149,23.194 -20.176,33.221l-51.79,51.788c-10.064,9.967 -21.155,16.637 -33.275,20.012c-12.12,3.374 -24.225,3.472 -36.316,0.293c-12.091,-3.18 -23.071,-9.654 -32.939,-19.424c-9.868,-10.006 -16.426,-21.054 -19.673,-33.144c-3.247,-12.09 -3.183,-24.195 0.191,-36.316c3.374,-12.12 10.093,-23.193 20.157,-33.218l43.579,-43.433c-1.112,-2.355 -1.787,-5.182 -2.026,-8.48c-0.238,-3.299 0.128,-6.673 1.098,-10.124l-53.489,53.637c-11.693,11.655 -19.539,24.601 -23.537,38.839c-3.998,14.239 -4.047,28.527 -0.147,42.863c3.901,14.338 11.814,27.449 23.739,39.336c11.985,11.985 25.122,19.913 39.409,23.783c14.288,3.871 28.551,3.822 42.79,-0.146c14.239,-3.968 27.185,-11.78 38.839,-23.434l54.377,-54.435c11.654,-11.654 19.49,-24.591 23.507,-38.811c4.018,-14.22 4.067,-28.507 0.147,-42.862c-3.92,-14.355 -11.823,-27.476 -23.71,-39.365c-6.917,-6.917 -14.805,-12.266 -23.662,-16.048c-8.857,-3.781 -19.948,-5.75 -33.273,-5.906Zm31.967,125.055l12.231,-12.198c-13.498,0.791 -24.918,-0.525 -34.26,-3.948c-9.342,-3.422 -17.54,-8.68 -24.593,-15.771c-9.868,-9.869 -16.426,-20.873 -19.673,-33.012c-3.247,-12.139 -3.183,-24.269 0.191,-36.388c3.375,-12.12 10.074,-23.194 20.099,-33.22l51.938,-51.79c10.027,-9.967 21.109,-16.638 33.249,-20.012c12.139,-3.375 24.253,-3.473 36.343,-0.293c12.09,3.179 23.021,9.654 32.793,19.426c9.965,9.907 16.547,20.93 19.746,33.07c3.198,12.139 3.101,24.269 -0.293,36.388c-3.394,12.12 -10.103,23.193 -20.128,33.22l-43.433,43.431c1.015,2.355 1.666,5.181 1.952,8.48c0.287,3.298 -0.104,6.673 -1.172,10.123l53.639,-53.637c11.653,-11.653 19.463,-24.598 23.433,-38.838c3.969,-14.239 4.018,-28.527 0.146,-42.863c-3.871,-14.336 -11.751,-27.448 -23.637,-39.337c-11.985,-12.022 -25.146,-19.959 -39.482,-23.811c-14.336,-3.852 -28.623,-3.794 -42.862,0.176c-14.238,3.969 -27.136,11.78 -38.694,23.432l-54.377,54.436c-11.751,11.654 -19.611,24.591 -23.58,38.81c-3.969,14.22 -4.018,28.508 -0.146,42.864c3.871,14.355 11.799,27.476 23.782,39.363c6.821,6.917 14.674,12.267 23.56,16.048c8.886,3.781 19.962,5.732 33.228,5.851Z" style="fill-rule:nonzero;"/></g><g id="Ultralight-S"><path d="M2309.29,2690.45l-8.869,8.707c14.676,-1.417 27.129,-0.35 37.36,3.202c10.231,3.552 19.229,9.214 26.994,16.988c10.098,10.096 16.799,21.392 20.103,33.887c3.304,12.495 3.18,24.988 -0.372,37.479c-3.552,12.491 -10.498,23.907 -20.838,34.247l-51.705,51.702c-10.348,10.223 -21.767,17.079 -34.257,20.567c-12.49,3.489 -24.951,3.615 -37.384,0.379c-12.433,-3.237 -23.697,-9.839 -33.794,-19.808c-10.096,-10.234 -16.796,-21.567 -20.1,-33.999c-3.304,-12.431 -3.212,-24.893 0.277,-37.383c3.488,-12.492 10.406,-23.906 20.755,-34.244l48.278,-48.091c-0.684,-1.301 -1.082,-3.152 -1.192,-5.553c-0.11,-2.401 0.362,-4.999 1.418,-7.795l-56.096,56.286c-11.265,11.255 -18.848,23.775 -22.746,37.557c-3.898,13.783 -3.962,27.629 -0.189,41.539c3.772,13.91 11.422,26.623 22.948,38.139c11.644,11.644 24.388,19.322 38.235,23.036c13.846,3.714 27.661,3.651 41.443,-0.189c13.783,-3.84 26.302,-11.388 37.557,-22.643l54.335,-54.35c11.255,-11.256 18.835,-23.773 22.738,-37.551c3.904,-13.779 3.967,-27.624 0.189,-41.537c-3.777,-13.913 -11.424,-26.629 -22.94,-38.147c-7.63,-7.63 -16.264,-13.392 -25.905,-17.288c-9.641,-3.895 -21.722,-5.607 -36.243,-5.137Zm45.681,122.662l8.857,-8.694c-14.666,1.418 -27.083,0.351 -37.251,-3.2c-10.168,-3.551 -19.135,-9.214 -26.9,-16.99c-10.096,-10.096 -16.796,-21.391 -20.1,-33.887c-3.304,-12.495 -3.212,-24.988 0.276,-37.478c3.489,-12.49 10.402,-23.905 20.74,-34.244l51.896,-51.706c10.339,-10.223 21.757,-17.079 34.252,-20.567c12.495,-3.488 24.959,-3.615 37.39,-0.379c12.432,3.237 23.634,9.84 33.605,19.812c10.221,10.106 16.952,21.407 20.194,33.903c3.241,12.495 3.115,24.988 -0.379,37.478c-3.493,12.49 -10.409,23.905 -20.747,34.245l-48.09,48.087c0.559,1.301 0.925,3.152 1.098,5.553c0.173,2.402 -0.332,5 -1.515,7.795l56.289,-56.286c11.254,-11.253 18.801,-23.772 22.642,-37.555c3.841,-13.784 3.905,-27.631 0.189,-41.539c-3.715,-13.909 -11.33,-26.622 -22.846,-38.141c-11.644,-11.652 -24.42,-19.333 -38.329,-23.042c-13.908,-3.71 -27.754,-3.644 -41.537,0.197c-13.783,3.841 -26.239,11.389 -37.37,22.642l-54.334,54.349c-11.38,11.256 -18.991,23.773 -22.832,37.552c-3.841,13.778 -3.905,27.624 -0.189,41.538c3.715,13.915 11.393,26.63 23.034,38.146c7.504,7.629 16.105,13.391 25.803,17.286c9.698,3.896 21.749,5.604 36.154,5.125Z" style="fill-rule:nonzero;"/></g></g></svg>